<?xml version="1.0" encoding="UTF-8"?>
<svg id="Layer_1" data-name="Layer 1" xmlns="http://www.w3.org/2000/svg" viewBox="0 0 520.73 390">
  <defs>
    <style>
      .cls-1 {
        letter-spacing: 0em;
      }

      .cls-2, .cls-3 {
        font-family: DMSans-Bold, 'DM Sans';
        font-weight: 700;
      }

      .cls-4, .cls-5, .cls-6, .cls-7, .cls-8, .cls-9, .cls-10, .cls-11, .cls-12, .cls-13, .cls-14 {
        stroke-width: 1.16px;
      }

      .cls-4, .cls-5, .cls-6, .cls-7, .cls-8, .cls-9, .cls-10, .cls-11, .cls-12, .cls-13, .cls-14, .cls-15, .cls-16, .cls-17, .cls-18, .cls-19, .cls-20, .cls-21, .cls-22, .cls-23, .cls-24, .cls-25, .cls-26, .cls-27, .cls-28, .cls-29, .cls-30, .cls-31 {
        stroke: #fff;
      }

      .cls-4, .cls-5, .cls-6, .cls-7, .cls-8, .cls-9, .cls-10, .cls-11, .cls-12, .cls-13, .cls-14, .cls-17, .cls-18, .cls-19, .cls-20, .cls-21, .cls-22, .cls-23, .cls-24, .cls-25, .cls-26, .cls-27, .cls-28, .cls-29, .cls-30, .cls-31 {
        stroke-miterlimit: 10;
      }

      .cls-4, .cls-16, .cls-19 {
        fill: #f1f9fe;
      }

      .cls-5, .cls-18 {
        fill: #e2f4fd;
      }

      .cls-6 {
        fill: #224c59;
      }

      .cls-7, .cls-22 {
        fill: #0f2633;
      }

      .cls-8, .cls-23 {
        fill: #4197a0;
      }

      .cls-9 {
        fill: #62afbb;
      }

      .cls-10, .cls-26 {
        fill: #81c2d6;
      }

      .cls-11, .cls-24 {
        fill: #112f47;
      }

      .cls-12, .cls-30 {
        fill: #cae5ed;
      }

      .cls-13, .cls-29 {
        fill: #add9ea;
      }

      .cls-32 {
        fill: #171717;
        font-size: 16px;
      }

      .cls-14 {
        fill: #26596d;
      }

      .cls-33 {
        letter-spacing: -.02em;
      }

      .cls-34 {
        letter-spacing: -.02em;
      }

      .cls-35 {
        letter-spacing: -.02em;
      }

      .cls-36 {
        fill: #2d3848;
        font-size: 9.38px;
      }

      .cls-36, .cls-37 {
        font-family: DMSans-Medium, 'DM Sans';
        font-weight: 500;
      }

      .cls-38, .cls-39, .cls-40 {
        fill: #676767;
      }

      .cls-41 {
        letter-spacing: 0em;
      }

      .cls-15 {
        fill: #e4eef3;
      }

      .cls-15, .cls-16 {
        stroke-width: 1.44px;
      }

      .cls-3, .cls-37, .cls-42, .cls-39, .cls-43, .cls-40, .cls-44, .cls-45, .cls-46 {
        isolation: isolate;
      }

      .cls-3, .cls-43, .cls-44, .cls-45 {
        fill: #fff;
      }

      .cls-3, .cls-45, .cls-46 {
        font-size: 8.66px;
      }

      .cls-47 {
        letter-spacing: -.05em;
      }

      .cls-37 {
        fill: #4b5668;
        font-size: 6.8px;
      }

      .cls-48 {
        letter-spacing: -.02em;
      }

      .cls-49 {
        letter-spacing: 0em;
      }

      .cls-50 {
        letter-spacing: -.03em;
      }

      .cls-42, .cls-43, .cls-51, .cls-45, .cls-46 {
        font-family: DMSans-Regular, 'DM Sans';
      }

      .cls-42, .cls-43, .cls-44 {
        font-size: 5.22px;
      }

      .cls-42, .cls-46 {
        fill: #1a212d;
      }

      .cls-39 {
        font-size: 5.8px;
      }

      .cls-39, .cls-40 {
        font-family: DMSans-9ptRegular, 'DM Sans';
        font-variation-settings: 'opsz' 9, 'wght' 400;
      }

      .cls-40 {
        font-size: 6.52px;
      }

      .cls-52 {
        letter-spacing: -.01em;
      }

      .cls-44 {
        font-family: DMSans-SemiBold, 'DM Sans';
        font-weight: 600;
      }

      .cls-53 {
        letter-spacing: -.03em;
      }

      .cls-54 {
        letter-spacing: 0em;
      }

      .cls-55 {
        letter-spacing: -.01em;
      }

      .cls-56 {
        letter-spacing: 0em;
      }

      .cls-57 {
        letter-spacing: -.09em;
      }

      .cls-58 {
        letter-spacing: 0em;
      }

      .cls-59 {
        letter-spacing: -.02em;
      }

      .cls-60 {
        letter-spacing: -.02em;
      }

      .cls-61 {
        letter-spacing: 0em;
      }

      .cls-17 {
        fill: #9fcad8;
      }

      .cls-17, .cls-18, .cls-19, .cls-20, .cls-21, .cls-22, .cls-23, .cls-24, .cls-25, .cls-26, .cls-27, .cls-28, .cls-29, .cls-30, .cls-31 {
        stroke-width: 1.44px;
      }

      .cls-20 {
        fill: #fafcfd;
      }

      .cls-62 {
        letter-spacing: -.02em;
      }

      .cls-63 {
        letter-spacing: -.02em;
      }

      .cls-21 {
        fill: #a2cdda;
      }

      .cls-25 {
        fill: #2f5d67;
      }

      .cls-27 {
        fill: #5ba3aa;
      }

      .cls-28 {
        fill: #a6d0dc;
      }

      .cls-31 {
        fill: #f2f3f4;
      }
    </style>
  </defs>
  <text class="cls-36" transform="translate(120.14 91.17)"><tspan x="0" y="0">Ju</tspan><tspan class="cls-33" x="10.33" y="0">e</tspan><tspan class="cls-48" x="15.57" y="0">v</tspan><tspan x="20.4" y="0">es</tspan></text>
  <text class="cls-36" transform="translate(123.19 104.16)"><tspan x="0" y="0">10:00</tspan></text>
  <text class="cls-36" transform="translate(185.09 91.17)"><tspan x="0" y="0">Ju</tspan><tspan class="cls-33" x="10.33" y="0">e</tspan><tspan class="cls-48" x="15.57" y="0">v</tspan><tspan x="20.4" y="0">es</tspan></text>
  <text class="cls-36" transform="translate(188.9 104.16)"><tspan x="0" y="0">14:30</tspan></text>
  <text class="cls-36" transform="translate(248.61 91.17)"><tspan x="0" y="0">Viernes</tspan></text>
  <text class="cls-36" transform="translate(253.08 104.16)"><tspan x="0" y="0">10:00</tspan></text>
  <text class="cls-36" transform="translate(313.56 91.17)"><tspan x="0" y="0">Viernes</tspan></text>
  <text class="cls-36" transform="translate(318.8 104.16)"><tspan x="0" y="0">14:30</tspan></text>
  <text class="cls-36" transform="translate(378.49 91.17)"><tspan x="0" y="0">Sábado</tspan></text>
  <text class="cls-36" transform="translate(382.97 104.16)"><tspan x="0" y="0">10:00</tspan></text>
  <text class="cls-36" transform="translate(443.44 91.17)"><tspan x="0" y="0">Sábado</tspan></text>
  <text class="cls-36" transform="translate(448.69 104.16)"><tspan x="0" y="0">14:30</tspan></text>
  <text class="cls-36" transform="translate(33.03 143.61)"><tspan x="0" y="0">0-5 años</tspan></text>
  <rect class="cls-20" x="102.98" y="120.04" width="64.95" height="39.69" rx="2.16" ry="2.16"/>
  <text class="cls-46" transform="translate(132.96 143.49)"><tspan x="0" y="0">2</tspan></text>
  <rect class="cls-18" x="167.93" y="120.04" width="64.95" height="39.69" rx="2.16" ry="2.16"/>
  <text class="cls-46" transform="translate(197.25 143.49)"><tspan x="0" y="0">11</tspan></text>
  <rect class="cls-16" x="232.87" y="120.04" width="64.95" height="39.69" rx="2.16" ry="2.16"/>
  <text class="cls-46" transform="translate(262.53 143.49)"><tspan x="0" y="0">4</tspan></text>
  <rect class="cls-16" x="297.82" y="120.04" width="64.95" height="39.69" rx="2.16" ry="2.16"/>
  <text class="cls-46" transform="translate(327.54 143.49)"><tspan x="0" y="0">9</tspan></text>
  <rect class="cls-18" x="362.77" y="120.04" width="64.95" height="39.69" rx="2.16" ry="2.16"/>
  <text class="cls-46" transform="translate(391.17 143.49)"><tspan x="0" y="0">12</tspan></text>
  <rect class="cls-19" x="427.71" y="120.04" width="64.95" height="39.69" rx="2.16" ry="2.16"/>
  <text class="cls-46" transform="translate(457.86 143.49)"><tspan x="0" y="0">7</tspan></text>
  <text class="cls-36" transform="translate(32.97 183.29)"><tspan x="0" y="0">6-18 años</tspan></text>
  <rect class="cls-31" x="102.98" y="159.73" width="64.95" height="39.69" rx="2.16" ry="2.16"/>
  <text class="cls-46" transform="translate(132.84 183.18)"><tspan x="0" y="0">3</tspan></text>
  <rect class="cls-30" x="167.93" y="159.73" width="64.95" height="39.69" rx="2.16" ry="2.16"/>
  <text class="cls-46" transform="translate(195.29 183.18)"><tspan x="0" y="0">23</tspan></text>
  <rect class="cls-16" x="232.87" y="159.73" width="64.95" height="39.69" rx="2.16" ry="2.16"/>
  <text class="cls-46" transform="translate(262.53 183.18)"><tspan x="0" y="0">4</tspan></text>
  <rect class="cls-28" x="297.82" y="159.73" width="64.95" height="39.69" rx="2.16" ry="2.16"/>
  <text class="cls-46" transform="translate(324.43 183.18)"><tspan x="0" y="0">40</tspan></text>
  <rect class="cls-30" x="362.77" y="159.73" width="64.95" height="39.69" rx="2.16" ry="2.16"/>
  <text class="cls-46" transform="translate(391.17 183.18)"><tspan x="0" y="0">21</tspan></text>
  <rect class="cls-19" x="427.71" y="159.73" width="64.95" height="39.69" rx="2.16" ry="2.16"/>
  <text class="cls-46" transform="translate(457.49 183.18)"><tspan x="0" y="0">5</tspan></text>
  <text class="cls-36" transform="translate(33.18 222.98)"><tspan x="0" y="0">19-30 años</tspan></text>
  <rect class="cls-17" x="102.98" y="199.42" width="64.95" height="39.69" rx="2.16" ry="2.16"/>
  <text class="cls-45" transform="translate(129.83 222.87)"><tspan x="0" y="0">44</tspan></text>
  <rect class="cls-23" x="167.93" y="199.42" width="64.95" height="39.69" rx="2.16" ry="2.16"/>
  <text class="cls-45" transform="translate(194.2 222.87)"><tspan x="0" y="0">110</tspan></text>
  <rect class="cls-29" x="232.87" y="199.42" width="64.95" height="39.69" rx="2.16" ry="2.16"/>
  <text class="cls-46" transform="translate(260.44 222.87)"><tspan class="cls-60" x="0" y="0">3</tspan><tspan x="4.97" y="0">7</tspan></text>
  <rect class="cls-22" x="297.82" y="199.42" width="64.95" height="39.69" rx="2.16" ry="2.16"/>
  <text class="cls-3" transform="translate(323 222.87)"><tspan x="0" y="0">2</tspan><tspan class="cls-41" x="5" y="0">2</tspan><tspan x="9.93" y="0">7</tspan></text>
  <rect class="cls-15" x="362.77" y="199.42" width="64.95" height="39.69" rx="2.16" ry="2.16"/>
  <text class="cls-46" transform="translate(391.34 222.87)"><tspan x="0" y="0">17</tspan></text>
  <rect class="cls-30" x="427.71" y="199.42" width="64.95" height="39.69" rx="2.16" ry="2.16"/>
  <text class="cls-46" transform="translate(456.11 222.87)"><tspan x="0" y="0">21</tspan></text>
  <text class="cls-36" transform="translate(33 262.67)"><tspan class="cls-52" x="0" y="0">3</tspan><tspan class="cls-49" x="5.44" y="0">1-60 años</tspan></text>
  <rect class="cls-29" x="102.98" y="239.11" width="64.95" height="39.69" rx="2.16" ry="2.16"/>
  <text class="cls-46" transform="translate(131.3 262.56)"><tspan class="cls-60" x="0" y="0">3</tspan><tspan class="cls-1" x="4.97" y="0">1</tspan></text>
  <rect class="cls-25" x="167.93" y="239.11" width="64.95" height="39.69" rx="2.16" ry="2.16"/>
  <text class="cls-3" transform="translate(193.52 262.56)"><tspan x="0" y="0">135</tspan></text>
  <rect class="cls-26" x="232.87" y="239.11" width="64.95" height="39.69" rx="2.16" ry="2.16"/>
  <text class="cls-45" transform="translate(260.04 262.56)"><tspan x="0" y="0">53</tspan></text>
  <rect class="cls-24" x="297.82" y="239.11" width="64.95" height="39.69" rx="2.16" ry="2.16"/>
  <text class="cls-3" transform="translate(323.81 262.56)"><tspan x="0" y="0">1</tspan><tspan class="cls-47" x="3.15" y="0">7</tspan><tspan class="cls-1" x="7.33" y="0">4</tspan></text>
  <rect class="cls-29" x="362.77" y="239.11" width="64.95" height="39.69" rx="2.16" ry="2.16"/>
  <text class="cls-46" transform="translate(390.34 262.56)"><tspan class="cls-60" x="0" y="0">3</tspan><tspan x="4.97" y="0">7</tspan></text>
  <rect class="cls-29" x="427.71" y="239.11" width="64.95" height="39.69" rx="2.16" ry="2.16"/>
  <text class="cls-46" transform="translate(455.08 262.56)"><tspan x="0" y="0">32</tspan></text>
  <text class="cls-36" transform="translate(32.97 302.36)"><tspan x="0" y="0">61-90 años</tspan></text>
  <rect class="cls-29" x="102.98" y="278.8" width="64.95" height="39.69" rx="2.16" ry="2.16"/>
  <text class="cls-46" transform="translate(129.8 302.25)"><tspan x="0" y="0">30</tspan></text>
  <rect class="cls-26" x="167.93" y="278.8" width="64.95" height="39.69" rx="2.16" ry="2.16"/>
  <text class="cls-45" transform="translate(194.54 302.25)"><tspan x="0" y="0">40</tspan></text>
  <rect class="cls-29" x="232.87" y="278.8" width="64.95" height="39.69" rx="2.16" ry="2.16"/>
  <text class="cls-46" transform="translate(261.19 302.25)"><tspan class="cls-63" x="0" y="0">3</tspan><tspan class="cls-1" x="4.97" y="0">1</tspan></text>
  <rect class="cls-27" x="297.82" y="278.8" width="64.95" height="39.69" rx="2.16" ry="2.16"/>
  <text class="cls-45" transform="translate(324.74 302.25)"><tspan x="0" y="0">84</tspan></text>
  <rect class="cls-29" x="362.77" y="278.8" width="64.95" height="39.69" rx="2.16" ry="2.16"/>
  <text class="cls-46" transform="translate(390.13 302.25)"><tspan x="0" y="0">32</tspan></text>
  <rect class="cls-21" x="427.71" y="278.8" width="64.95" height="39.69" rx="2.16" ry="2.16"/>
  <text class="cls-46" transform="translate(454.76 302.25)"><tspan x="0" y="0">43</tspan></text>
  <text class="cls-37" transform="translate(32.48 338.38)"><tspan x="0" y="0">Escala </tspan><tspan class="cls-55" x="22.26" y="0">t</tspan><tspan x="24.92" y="0">érmica de in</tspan><tspan class="cls-55" x="64.53" y="0">t</tspan><tspan class="cls-61" x="67.19" y="0">ensidad:</tspan></text>
  <rect class="cls-4" x="46.41" y="344.24" width="17.41" height="14.51" rx="1.16" ry="1.16"/>
  <text class="cls-42" transform="translate(53.61 354.1)"><tspan x="0" y="0">5</tspan></text>
  <rect class="cls-5" x="66.92" y="344.24" width="17.41" height="14.51" rx="1.16" ry="1.16"/>
  <text class="cls-42" transform="translate(73.91 354.1)"><tspan x="0" y="0">10</tspan></text>
  <rect class="cls-12" x="87.43" y="344.24" width="17.41" height="14.51" rx="1.16" ry="1.16"/>
  <text class="cls-42" transform="translate(92.9 354)"><tspan class="cls-58" x="0" y="0">2</tspan><tspan x="2.96" y="0">0</tspan></text>
  <rect class="cls-13" x="107.94" y="344.24" width="17.41" height="14.51" rx="1.16" ry="1.16"/>
  <text class="cls-42" transform="translate(114.33 354.41)"><tspan x="0" y="0">30</tspan></text>
  <rect class="cls-10" x="128.45" y="344.24" width="17.41" height="14.51" rx="1.16" ry="1.16"/>
  <text class="cls-42" transform="translate(133.89 354.1)"><tspan x="0" y="0">50</tspan></text>
  <rect class="cls-9" x="148.96" y="344.24" width="17.41" height="14.51" rx="1.16" ry="1.16"/>
  <text class="cls-43" transform="translate(154.78 354.1)"><tspan class="cls-53" x="0" y="0">7</tspan><tspan class="cls-56" x="2.64" y="0">5</tspan></text>
  <rect class="cls-8" x="169.47" y="344.24" width="17.41" height="14.51" rx="1.16" ry="1.16"/>
  <text class="cls-43" transform="translate(173.44 354)"><tspan x="0" y="0">100</tspan></text>
  <rect class="cls-14" x="189.98" y="344.24" width="17.41" height="14.51" rx="1.16" ry="1.16"/>
  <text class="cls-44" transform="translate(195.26 354.1)"><tspan x="0" y="0">125</tspan></text>
  <rect class="cls-6" x="210.49" y="344.24" width="17.41" height="14.51" rx="1.16" ry="1.16"/>
  <text class="cls-44" transform="translate(215.25 354.1)"><tspan x="0" y="0">150</tspan></text>
  <rect class="cls-11" x="231" y="344.24" width="17.41" height="14.51" rx="1.16" ry="1.16"/>
  <text class="cls-44" transform="translate(236.05 354.1)"><tspan x="0" y="0">1</tspan><tspan class="cls-50" x="1.82" y="0">7</tspan><tspan x="4.49" y="0">5</tspan></text>
  <rect class="cls-7" x="251.51" y="344.24" width="17.41" height="14.51" rx="1.16" ry="1.16"/>
  <text class="cls-44" transform="translate(255.83 354.1)"><tspan x="0" y="0">2</tspan><tspan class="cls-58" x="3.01" y="0">2</tspan><tspan x="5.97" y="0">7</tspan></text>
  <text class="cls-39" transform="translate(31.81 353.59)"><tspan x="0" y="0">Baja</tspan></text>
  <text class="cls-39" transform="translate(272.94 354.16)"><tspan x="0" y="0">Alta</tspan></text>
  <text class="cls-40" transform="translate(433.68 33.22)"><tspan class="cls-57" x="0" y="0">T</tspan><tspan class="cls-35" x="3.09" y="0">o</tspan><tspan x="6.85" y="0">tal: 1.</tspan><tspan class="cls-59" x="21.27" y="0">3</tspan><tspan x="25.06" y="0">19 usuarios</tspan></text>
  <text class="cls-32" transform="translate(30.91 40.12)"><tspan class="cls-51" x="0" y="0">Mapa de calor con </tspan><tspan class="cls-2" x="141.71" y="0">densidad de usuarios </tspan><tspan class="cls-51"><tspan x="0" y="19.2">por ran</tspan><tspan class="cls-34" x="53.5" y="19.2">g</tspan><tspan class="cls-54" x="62.11" y="19.2">o </tspan><tspan class="cls-62" x="75.85" y="19.2">e</tspan><tspan x="84.67" y="19.2">tario y hora del día</tspan></tspan></text>
  <g>
    <path class="cls-38" d="M370.84,350.45v-4.11h-1.36v-.45h3.27v.45h-1.36v4.11h-.55Z"/>
    <path class="cls-38" d="M374.31,350.52c-.32,0-.6-.07-.84-.22-.24-.15-.43-.36-.57-.63s-.2-.58-.2-.95,.07-.68,.21-.95c.14-.27,.33-.48,.57-.62,.25-.15,.53-.22,.84-.22s.6,.07,.84,.22,.43,.36,.56,.62c.13,.27,.2,.58,.2,.95s-.07,.68-.21,.95-.33,.48-.57,.63-.53,.22-.85,.22Zm0-.47c.2,0,.38-.05,.54-.15s.29-.25,.38-.44c.09-.2,.14-.44,.14-.73s-.05-.54-.14-.74c-.09-.2-.22-.34-.38-.44-.16-.1-.34-.15-.54-.15s-.37,.05-.53,.15c-.16,.1-.29,.24-.38,.44-.1,.2-.14,.44-.14,.74s.05,.54,.14,.73c.09,.2,.22,.35,.38,.44,.16,.1,.34,.15,.53,.15Z"/>
    <path class="cls-38" d="M378.14,350.52c-.3,0-.57-.08-.81-.23s-.42-.37-.55-.64c-.13-.27-.2-.58-.2-.92s.07-.66,.2-.92c.13-.27,.31-.48,.55-.63s.51-.23,.82-.23c.27,0,.5,.05,.69,.16,.19,.11,.35,.26,.46,.46v-1.81h.55v4.69h-.5l-.05-.55c-.07,.11-.15,.21-.26,.31s-.23,.17-.38,.23c-.15,.06-.32,.09-.52,.09Zm.07-.48c.22,0,.41-.05,.57-.16s.29-.26,.37-.46c.09-.2,.13-.43,.13-.7s-.04-.5-.13-.7c-.09-.2-.21-.35-.37-.46s-.35-.16-.57-.16c-.2,0-.39,.05-.55,.16-.16,.11-.29,.26-.38,.46-.09,.2-.14,.43-.14,.7s.05,.5,.14,.7c.09,.2,.22,.35,.38,.46,.16,.11,.34,.16,.55,.16Z"/>
    <path class="cls-38" d="M382.25,350.52c-.32,0-.6-.07-.84-.22-.24-.15-.43-.36-.57-.63s-.2-.58-.2-.95,.07-.68,.21-.95c.14-.27,.33-.48,.57-.62,.25-.15,.53-.22,.84-.22s.6,.07,.84,.22,.43,.36,.56,.62c.13,.27,.2,.58,.2,.95s-.07,.68-.21,.95-.33,.48-.57,.63-.53,.22-.85,.22Zm0-.47c.2,0,.38-.05,.54-.15s.29-.25,.38-.44c.09-.2,.14-.44,.14-.73s-.05-.54-.14-.74c-.09-.2-.22-.34-.38-.44-.16-.1-.34-.15-.54-.15s-.37,.05-.53,.15c-.16,.1-.29,.24-.38,.44-.1,.2-.14,.44-.14,.74s.05,.54,.14,.73c.09,.2,.22,.35,.38,.44,.16,.1,.34,.15,.53,.15Z"/>
    <path class="cls-38" d="M385.9,350.52c-.31,0-.56-.05-.77-.14-.2-.09-.36-.22-.46-.39-.1-.17-.17-.36-.19-.58h.56c.02,.12,.06,.23,.12,.32,.06,.1,.16,.18,.28,.24,.12,.06,.28,.09,.46,.09,.15,0,.27-.02,.38-.07,.1-.05,.18-.11,.24-.19,.05-.08,.08-.18,.08-.29,0-.14-.03-.25-.09-.34-.06-.08-.15-.14-.27-.18-.12-.04-.27-.07-.45-.09-.19-.03-.36-.06-.51-.11-.15-.05-.27-.11-.38-.19-.1-.08-.18-.18-.23-.29-.05-.12-.08-.26-.08-.42,0-.19,.05-.35,.15-.5,.1-.14,.24-.25,.43-.33,.18-.08,.4-.12,.66-.12,.37,0,.66,.08,.88,.25,.21,.17,.34,.41,.38,.72h-.54c-.02-.16-.1-.29-.22-.38-.13-.09-.29-.14-.5-.14-.22,0-.39,.04-.5,.12-.11,.08-.17,.19-.17,.33,0,.1,.02,.19,.08,.27,.05,.08,.14,.15,.26,.2,.12,.05,.29,.09,.49,.12,.26,.03,.47,.08,.65,.15,.18,.07,.31,.17,.41,.31,.09,.14,.14,.33,.13,.57,0,.23-.05,.42-.16,.57s-.25,.28-.44,.36c-.19,.08-.41,.12-.66,.12Z"/>
    <path class="cls-38" d="M389.74,350.45v-4.69h.55v4.69h-.55Z"/>
    <path class="cls-38" d="M392.68,350.52c-.32,0-.6-.07-.84-.22-.24-.15-.43-.36-.57-.63s-.2-.58-.2-.95,.07-.68,.21-.95c.14-.27,.33-.48,.57-.62,.25-.15,.53-.22,.84-.22s.6,.07,.84,.22,.43,.36,.56,.62c.13,.27,.2,.58,.2,.95s-.07,.68-.21,.95-.33,.48-.57,.63-.53,.22-.85,.22Zm0-.47c.2,0,.38-.05,.54-.15s.29-.25,.38-.44c.09-.2,.14-.44,.14-.73s-.05-.54-.14-.74c-.09-.2-.22-.34-.38-.44-.16-.1-.34-.15-.54-.15s-.37,.05-.53,.15c-.16,.1-.29,.24-.38,.44-.1,.2-.14,.44-.14,.74s.05,.54,.14,.73c.09,.2,.22,.35,.38,.44,.16,.1,.34,.15,.53,.15Z"/>
    <path class="cls-38" d="M396.34,350.52c-.31,0-.56-.05-.77-.14-.2-.09-.36-.22-.46-.39-.1-.17-.17-.36-.19-.58h.56c.02,.12,.06,.23,.12,.32,.06,.1,.16,.18,.28,.24,.12,.06,.28,.09,.46,.09,.15,0,.27-.02,.38-.07,.1-.05,.18-.11,.24-.19,.05-.08,.08-.18,.08-.29,0-.14-.03-.25-.09-.34-.06-.08-.15-.14-.27-.18-.12-.04-.27-.07-.45-.09-.19-.03-.36-.06-.51-.11-.15-.05-.27-.11-.38-.19-.1-.08-.18-.18-.23-.29-.05-.12-.08-.26-.08-.42,0-.19,.05-.35,.15-.5,.1-.14,.24-.25,.43-.33,.18-.08,.4-.12,.66-.12,.37,0,.66,.08,.88,.25,.21,.17,.34,.41,.38,.72h-.54c-.02-.16-.1-.29-.22-.38-.13-.09-.29-.14-.5-.14-.22,0-.39,.04-.5,.12-.11,.08-.17,.19-.17,.33,0,.1,.02,.19,.08,.27,.05,.08,.14,.15,.26,.2,.12,.05,.29,.09,.49,.12,.26,.03,.47,.08,.65,.15,.18,.07,.31,.17,.41,.31,.09,.14,.14,.33,.13,.57,0,.23-.05,.42-.16,.57s-.25,.28-.44,.36c-.19,.08-.41,.12-.66,.12Z"/>
    <path class="cls-38" d="M401.59,350.52c-.3,0-.57-.08-.81-.23s-.42-.37-.55-.64c-.13-.27-.2-.58-.2-.92s.07-.66,.2-.92c.13-.27,.31-.48,.55-.63s.51-.23,.82-.23c.27,0,.5,.05,.69,.16,.19,.11,.35,.26,.46,.46v-1.81h.55v4.69h-.5l-.05-.55c-.07,.11-.15,.21-.26,.31s-.23,.17-.38,.23c-.15,.06-.32,.09-.52,.09Zm.07-.48c.22,0,.41-.05,.57-.16s.29-.26,.37-.46c.09-.2,.13-.43,.13-.7s-.04-.5-.13-.7c-.09-.2-.21-.35-.37-.46s-.35-.16-.57-.16c-.2,0-.39,.05-.55,.16-.16,.11-.29,.26-.38,.46-.09,.2-.14,.43-.14,.7s.05,.5,.14,.7c.09,.2,.22,.35,.38,.46,.16,.11,.34,.16,.55,.16Z"/>
    <path class="cls-38" d="M405.29,350.52c-.26,0-.48-.05-.65-.15s-.3-.23-.39-.39-.13-.34-.13-.52c0-.23,.06-.42,.17-.58,.12-.16,.28-.28,.49-.36,.21-.08,.45-.12,.73-.12h.85c0-.22-.03-.41-.08-.55-.05-.15-.14-.26-.25-.33-.12-.07-.27-.11-.47-.11s-.36,.05-.5,.15c-.14,.1-.23,.24-.26,.43h-.56c.03-.23,.1-.42,.23-.57s.29-.27,.48-.35c.19-.08,.4-.12,.62-.12,.31,0,.56,.06,.76,.17,.2,.11,.35,.27,.44,.46,.1,.2,.14,.43,.14,.7v2.18h-.49l-.03-.59c-.04,.09-.1,.18-.17,.26s-.15,.15-.24,.21c-.09,.06-.2,.11-.31,.14-.12,.03-.24,.05-.38,.05Zm.08-.46c.14,0,.28-.03,.4-.1,.12-.07,.23-.15,.32-.26,.09-.11,.16-.24,.21-.38,.05-.14,.07-.29,.07-.44v-.06h-.81c-.2,0-.37,.03-.5,.08-.13,.05-.22,.12-.28,.22-.06,.09-.08,.2-.08,.32,0,.13,.03,.24,.08,.33,.05,.09,.13,.17,.23,.22,.1,.05,.22,.08,.37,.08Z"/>
    <path class="cls-38" d="M409.06,350.45c-.2,0-.37-.03-.51-.09-.14-.06-.25-.16-.33-.31-.08-.15-.11-.34-.11-.59v-1.98h-.6v-.46h.6l.07-.85h.48v.85h.97v.46h-.97v1.98c0,.2,.04,.34,.12,.41,.08,.07,.23,.11,.44,.11h.4v.47h-.55Z"/>
    <path class="cls-38" d="M411.76,350.52c-.32,0-.6-.07-.84-.22-.24-.15-.43-.36-.57-.63s-.2-.58-.2-.95,.07-.68,.21-.95c.14-.27,.33-.48,.57-.62,.25-.15,.53-.22,.84-.22s.6,.07,.84,.22,.43,.36,.56,.62c.13,.27,.2,.58,.2,.95s-.07,.68-.21,.95-.33,.48-.57,.63-.53,.22-.85,.22Zm0-.47c.2,0,.38-.05,.54-.15s.29-.25,.38-.44c.09-.2,.14-.44,.14-.73s-.05-.54-.14-.74c-.09-.2-.22-.34-.38-.44-.16-.1-.34-.15-.54-.15s-.37,.05-.53,.15c-.16,.1-.29,.24-.38,.44-.1,.2-.14,.44-.14,.74s.05,.54,.14,.73c.09,.2,.22,.35,.38,.44,.16,.1,.34,.15,.53,.15Z"/>
    <path class="cls-38" d="M415.41,350.52c-.31,0-.56-.05-.77-.14-.2-.09-.36-.22-.46-.39-.1-.17-.17-.36-.19-.58h.56c.02,.12,.06,.23,.12,.32,.06,.1,.16,.18,.28,.24,.12,.06,.28,.09,.46,.09,.15,0,.27-.02,.38-.07,.1-.05,.18-.11,.24-.19,.05-.08,.08-.18,.08-.29,0-.14-.03-.25-.09-.34-.06-.08-.15-.14-.27-.18-.12-.04-.27-.07-.45-.09-.19-.03-.36-.06-.51-.11-.15-.05-.27-.11-.38-.19-.1-.08-.18-.18-.23-.29-.05-.12-.08-.26-.08-.42,0-.19,.05-.35,.15-.5,.1-.14,.24-.25,.43-.33,.18-.08,.4-.12,.66-.12,.37,0,.66,.08,.88,.25,.21,.17,.34,.41,.38,.72h-.54c-.02-.16-.1-.29-.22-.38-.13-.09-.29-.14-.5-.14-.22,0-.39,.04-.5,.12-.11,.08-.17,.19-.17,.33,0,.1,.02,.19,.08,.27,.05,.08,.14,.15,.26,.2,.12,.05,.29,.09,.49,.12,.26,.03,.47,.08,.65,.15,.18,.07,.31,.17,.41,.31,.09,.14,.14,.33,.13,.57,0,.23-.05,.42-.16,.57s-.25,.28-.44,.36c-.19,.08-.41,.12-.66,.12Z"/>
    <path class="cls-38" d="M418.93,347.48v-.46h2v.46h-2Zm.53,2.97v-3.79c0-.21,.04-.38,.1-.51s.17-.23,.31-.29c.14-.06,.31-.09,.51-.09h.5v.47h-.41c-.17,0-.28,.03-.36,.1-.07,.07-.11,.18-.11,.35v3.78h-.55Z"/>
    <path class="cls-38" d="M422.83,350.52c-.25,0-.47-.05-.66-.14-.19-.1-.33-.24-.44-.44-.1-.2-.16-.44-.16-.74v-2.18h.55v2.13c0,.3,.08,.53,.22,.68,.15,.15,.35,.23,.6,.23,.17,0,.33-.04,.47-.12,.14-.08,.25-.2,.34-.36,.08-.16,.13-.35,.13-.57v-1.99h.55v3.43h-.5l-.03-.55c-.09,.2-.23,.35-.42,.46s-.41,.16-.66,.16Z"/>
    <path class="cls-38" d="M426.78,350.52c-.3,0-.57-.07-.81-.22-.24-.15-.42-.36-.55-.63-.13-.27-.2-.58-.2-.95s.07-.68,.2-.95c.13-.27,.32-.48,.55-.63s.51-.22,.82-.22c.33,0,.61,.07,.83,.22s.39,.35,.5,.59c.11,.25,.17,.52,.17,.81v.13s0,.1,0,.16h-2.65v-.42h2.13c0-.33-.11-.59-.29-.77-.18-.18-.41-.26-.69-.26-.18,0-.35,.04-.51,.13s-.28,.22-.38,.39-.14,.39-.14,.65v.18c0,.29,.05,.53,.14,.72s.22,.34,.38,.43,.32,.14,.51,.14c.24,0,.43-.05,.57-.14,.14-.09,.24-.23,.31-.4h.54c-.05,.19-.14,.36-.27,.51-.13,.15-.29,.27-.48,.36s-.42,.13-.67,.13Z"/>
    <path class="cls-38" d="M429.05,350.45v-3.43h.5l.04,.63c.08-.16,.18-.29,.31-.39,.13-.1,.28-.18,.46-.24,.18-.05,.38-.08,.61-.08v.57h-.34c-.13,0-.26,.02-.38,.05-.12,.04-.23,.09-.33,.17-.1,.08-.18,.18-.23,.32-.06,.13-.08,.3-.08,.51v1.88h-.55Z"/>
    <path class="cls-38" d="M432.95,350.52c-.32,0-.6-.07-.84-.22-.24-.15-.43-.36-.57-.63s-.2-.58-.2-.95,.07-.68,.21-.95c.14-.27,.33-.48,.57-.62,.25-.15,.53-.22,.84-.22s.6,.07,.84,.22,.43,.36,.56,.62c.13,.27,.2,.58,.2,.95s-.07,.68-.21,.95-.33,.48-.57,.63-.53,.22-.85,.22Zm0-.47c.2,0,.38-.05,.54-.15s.29-.25,.38-.44c.09-.2,.14-.44,.14-.73s-.05-.54-.14-.74c-.09-.2-.22-.34-.38-.44-.16-.1-.34-.15-.54-.15s-.37,.05-.53,.15c-.16,.1-.29,.24-.38,.44-.1,.2-.14,.44-.14,.74s.05,.54,.14,.73c.09,.2,.22,.35,.38,.44,.16,.1,.34,.15,.53,.15Z"/>
    <path class="cls-38" d="M435.36,350.45v-3.43h.5l.03,.54c.1-.2,.25-.35,.43-.46,.19-.11,.41-.16,.66-.16s.47,.05,.66,.14c.19,.1,.33,.24,.44,.44,.1,.2,.16,.44,.16,.74v2.18h-.55v-2.13c0-.3-.08-.53-.22-.68-.15-.15-.35-.23-.6-.23-.17,0-.33,.04-.47,.12-.14,.08-.26,.2-.34,.36s-.13,.35-.13,.57v1.99h-.55Z"/>
    <path class="cls-38" d="M440.89,350.45v-3.43h.5l.04,.63c.08-.16,.18-.29,.31-.39,.13-.1,.28-.18,.46-.24,.18-.05,.38-.08,.61-.08v.57h-.34c-.13,0-.26,.02-.38,.05-.12,.04-.23,.09-.33,.17-.1,.08-.18,.18-.23,.32-.06,.13-.08,.3-.08,.51v1.88h-.55Z"/>
    <path class="cls-38" d="M444.73,350.52c-.3,0-.57-.07-.81-.22-.24-.15-.42-.36-.55-.63-.13-.27-.2-.58-.2-.95s.07-.68,.2-.95c.13-.27,.32-.48,.55-.63s.51-.22,.82-.22c.33,0,.61,.07,.83,.22s.39,.35,.5,.59c.11,.25,.17,.52,.17,.81v.13s0,.1,0,.16h-2.65v-.42h2.13c0-.33-.11-.59-.29-.77-.18-.18-.41-.26-.69-.26-.18,0-.35,.04-.51,.13s-.28,.22-.38,.39-.14,.39-.14,.65v.18c0,.29,.05,.53,.14,.72s.22,.34,.38,.43,.32,.14,.51,.14c.24,0,.43-.05,.57-.14,.14-.09,.24-.23,.31-.4h.54c-.05,.19-.14,.36-.27,.51-.13,.15-.29,.27-.48,.36s-.42,.13-.67,.13Z"/>
    <path class="cls-38" d="M448.48,350.52c-.31,0-.59-.08-.83-.22-.24-.15-.43-.36-.57-.63-.14-.27-.21-.58-.21-.94s.07-.67,.21-.94c.14-.27,.33-.48,.57-.63,.24-.15,.52-.22,.83-.22,.39,0,.72,.1,.98,.31,.26,.21,.43,.49,.51,.84h-.56c-.05-.22-.16-.39-.33-.51-.17-.12-.37-.18-.6-.18-.2,0-.38,.05-.54,.15-.16,.1-.28,.25-.38,.44-.09,.2-.14,.44-.14,.73,0,.22,.03,.41,.08,.58,.05,.17,.12,.31,.22,.42,.09,.11,.2,.19,.33,.25,.13,.06,.27,.08,.42,.08s.3-.03,.43-.08c.13-.05,.24-.13,.33-.24s.15-.23,.18-.37h.56c-.07,.34-.24,.62-.51,.83-.27,.21-.59,.32-.98,.32Z"/>
    <path class="cls-38" d="M452.23,350.52c-.32,0-.6-.07-.84-.22-.24-.15-.43-.36-.57-.63s-.2-.58-.2-.95,.07-.68,.21-.95c.14-.27,.33-.48,.57-.62,.25-.15,.53-.22,.84-.22s.6,.07,.84,.22,.43,.36,.56,.62c.13,.27,.2,.58,.2,.95s-.07,.68-.21,.95-.33,.48-.57,.63-.53,.22-.85,.22Zm0-.47c.2,0,.38-.05,.54-.15s.29-.25,.38-.44c.09-.2,.14-.44,.14-.73s-.05-.54-.14-.74c-.09-.2-.22-.34-.38-.44-.16-.1-.34-.15-.54-.15s-.37,.05-.53,.15c-.16,.1-.29,.24-.38,.44-.1,.2-.14,.44-.14,.74s.05,.54,.14,.73c.09,.2,.22,.35,.38,.44,.16,.1,.34,.15,.53,.15Z"/>
    <path class="cls-38" d="M454.65,351.88v-4.86h.5l.05,.54c.07-.11,.16-.22,.26-.31,.11-.09,.23-.17,.38-.22,.15-.06,.32-.08,.52-.08,.31,0,.58,.08,.81,.23,.23,.16,.41,.37,.54,.64s.2,.58,.2,.93-.06,.65-.2,.92-.31,.48-.55,.64c-.23,.15-.51,.23-.81,.23-.27,0-.5-.05-.7-.16s-.35-.26-.46-.46v1.98h-.55Zm1.64-1.83c.2,0,.39-.05,.54-.16,.16-.11,.29-.26,.38-.46,.09-.2,.14-.43,.14-.7s-.05-.5-.14-.7c-.09-.2-.22-.35-.38-.46-.16-.11-.34-.16-.54-.16-.22,0-.41,.05-.57,.16s-.29,.26-.37,.46c-.09,.2-.13,.43-.13,.7s.04,.5,.13,.7c.09,.2,.21,.35,.37,.46s.35,.16,.57,.16Z"/>
    <path class="cls-38" d="M459.03,346.36c-.11,0-.2-.04-.27-.11-.07-.07-.11-.16-.11-.27s.04-.2,.11-.26c.07-.07,.16-.1,.27-.1s.19,.03,.27,.1c.07,.07,.11,.16,.11,.26s-.04,.2-.11,.27c-.07,.07-.16,.11-.27,.11Zm-.27,4.08v-3.43h.55v3.43h-.55Z"/>
    <path class="cls-38" d="M460.28,350.45v-4.69h.55v4.69h-.55Z"/>
    <path class="cls-38" d="M462.82,350.52c-.26,0-.48-.05-.65-.15s-.3-.23-.39-.39-.13-.34-.13-.52c0-.23,.06-.42,.17-.58,.12-.16,.28-.28,.49-.36,.21-.08,.45-.12,.73-.12h.85c0-.22-.03-.41-.08-.55-.05-.15-.14-.26-.25-.33-.12-.07-.27-.11-.47-.11s-.36,.05-.5,.15c-.14,.1-.23,.24-.26,.43h-.56c.03-.23,.1-.42,.23-.57s.29-.27,.48-.35c.19-.08,.4-.12,.62-.12,.31,0,.56,.06,.76,.17,.2,.11,.35,.27,.44,.46,.1,.2,.14,.43,.14,.7v2.18h-.49l-.03-.59c-.04,.09-.1,.18-.17,.26s-.15,.15-.24,.21c-.09,.06-.2,.11-.31,.14-.12,.03-.24,.05-.38,.05Zm.08-.46c.14,0,.28-.03,.4-.1,.12-.07,.23-.15,.32-.26,.09-.11,.16-.24,.21-.38,.05-.14,.07-.29,.07-.44v-.06h-.81c-.2,0-.37,.03-.5,.08-.13,.05-.22,.12-.28,.22-.06,.09-.08,.2-.08,.32,0,.13,.03,.24,.08,.33,.05,.09,.13,.17,.23,.22,.1,.05,.22,.08,.37,.08Z"/>
    <path class="cls-38" d="M466.76,350.52c-.3,0-.57-.08-.81-.23s-.42-.37-.55-.64c-.13-.27-.2-.58-.2-.92s.07-.66,.2-.92c.13-.27,.31-.48,.55-.63s.51-.23,.82-.23c.27,0,.5,.05,.69,.16,.19,.11,.35,.26,.46,.46v-1.81h.55v4.69h-.5l-.05-.55c-.07,.11-.15,.21-.26,.31s-.23,.17-.38,.23c-.15,.06-.32,.09-.52,.09Zm.07-.48c.22,0,.41-.05,.57-.16s.29-.26,.37-.46c.09-.2,.13-.43,.13-.7s-.04-.5-.13-.7c-.09-.2-.21-.35-.37-.46s-.35-.16-.57-.16c-.2,0-.39,.05-.55,.16-.16,.11-.29,.26-.38,.46-.09,.2-.14,.43-.14,.7s.05,.5,.14,.7c.09,.2,.22,.35,.38,.46,.16,.11,.34,.16,.55,.16Z"/>
    <path class="cls-38" d="M470.86,350.52c-.32,0-.6-.07-.84-.22-.24-.15-.43-.36-.57-.63s-.2-.58-.2-.95,.07-.68,.21-.95c.14-.27,.33-.48,.57-.62,.25-.15,.53-.22,.84-.22s.6,.07,.84,.22,.43,.36,.56,.62c.13,.27,.2,.58,.2,.95s-.07,.68-.21,.95-.33,.48-.57,.63-.53,.22-.85,.22Zm0-.47c.2,0,.38-.05,.54-.15s.29-.25,.38-.44c.09-.2,.14-.44,.14-.73s-.05-.54-.14-.74c-.09-.2-.22-.34-.38-.44-.16-.1-.34-.15-.54-.15s-.37,.05-.53,.15c-.16,.1-.29,.24-.38,.44-.1,.2-.14,.44-.14,.74s.05,.54,.14,.73c.09,.2,.22,.35,.38,.44,.16,.1,.34,.15,.53,.15Z"/>
    <path class="cls-38" d="M474.52,350.52c-.31,0-.56-.05-.77-.14-.2-.09-.36-.22-.46-.39-.1-.17-.17-.36-.19-.58h.56c.02,.12,.06,.23,.12,.32,.06,.1,.16,.18,.28,.24,.12,.06,.28,.09,.46,.09,.15,0,.27-.02,.38-.07,.1-.05,.18-.11,.24-.19,.05-.08,.08-.18,.08-.29,0-.14-.03-.25-.09-.34-.06-.08-.15-.14-.27-.18-.12-.04-.27-.07-.45-.09-.19-.03-.36-.06-.51-.11-.15-.05-.27-.11-.38-.19-.1-.08-.18-.18-.23-.29-.05-.12-.08-.26-.08-.42,0-.19,.05-.35,.15-.5,.1-.14,.24-.25,.43-.33,.18-.08,.4-.12,.66-.12,.37,0,.66,.08,.88,.25,.21,.17,.34,.41,.38,.72h-.54c-.02-.16-.1-.29-.22-.38-.13-.09-.29-.14-.5-.14-.22,0-.39,.04-.5,.12-.11,.08-.17,.19-.17,.33,0,.1,.02,.19,.08,.27,.05,.08,.14,.15,.26,.2,.12,.05,.29,.09,.49,.12,.26,.03,.47,.08,.65,.15,.18,.07,.31,.17,.41,.31,.09,.14,.14,.33,.13,.57,0,.23-.05,.42-.16,.57s-.25,.28-.44,.36c-.19,.08-.41,.12-.66,.12Z"/>
    <path class="cls-38" d="M479.78,350.52c-.3,0-.57-.07-.81-.22-.24-.15-.42-.36-.55-.63-.13-.27-.2-.58-.2-.95s.07-.68,.2-.95c.13-.27,.32-.48,.55-.63s.51-.22,.82-.22c.33,0,.61,.07,.83,.22s.39,.35,.5,.59c.11,.25,.17,.52,.17,.81v.13s0,.1,0,.16h-2.65v-.42h2.13c0-.33-.11-.59-.29-.77-.18-.18-.41-.26-.69-.26-.18,0-.35,.04-.51,.13s-.28,.22-.38,.39-.14,.39-.14,.65v.18c0,.29,.05,.53,.14,.72s.22,.34,.38,.43,.32,.14,.51,.14c.24,0,.43-.05,.57-.14,.14-.09,.24-.23,.31-.4h.54c-.05,.19-.14,.36-.27,.51-.13,.15-.29,.27-.48,.36s-.42,.13-.67,.13Z"/>
    <path class="cls-38" d="M482.05,350.45v-3.43h.5l.03,.54c.1-.2,.25-.35,.43-.46,.19-.11,.41-.16,.66-.16s.47,.05,.66,.14c.19,.1,.33,.24,.44,.44,.1,.2,.16,.44,.16,.74v2.18h-.55v-2.13c0-.3-.08-.53-.22-.68-.15-.15-.35-.23-.6-.23-.17,0-.33,.04-.47,.12-.14,.08-.26,.2-.34,.36s-.13,.35-.13,.57v1.99h-.55Z"/>
    <path class="cls-38" d="M487.15,350.45c-.2,0-.37-.03-.51-.09-.14-.06-.25-.16-.33-.31-.08-.15-.11-.34-.11-.59v-1.98h-.6v-.46h.6l.07-.85h.48v.85h.97v.46h-.97v1.98c0,.2,.04,.34,.12,.41,.08,.07,.23,.11,.44,.11h.4v.47h-.55Z"/>
    <path class="cls-38" d="M488.46,350.45v-3.43h.5l.04,.63c.08-.16,.18-.29,.31-.39,.13-.1,.28-.18,.46-.24,.18-.05,.38-.08,.61-.08v.57h-.34c-.13,0-.26,.02-.38,.05-.12,.04-.23,.09-.33,.17-.1,.08-.18,.18-.23,.32-.06,.13-.08,.3-.08,.51v1.88h-.55Z"/>
    <path class="cls-38" d="M492.3,350.52c-.3,0-.57-.07-.81-.22-.24-.15-.42-.36-.55-.63-.13-.27-.2-.58-.2-.95s.07-.68,.2-.95c.13-.27,.32-.48,.55-.63s.51-.22,.82-.22c.33,0,.61,.07,.83,.22s.39,.35,.5,.59c.11,.25,.17,.52,.17,.81v.13s0,.1,0,.16h-2.65v-.42h2.13c0-.33-.11-.59-.29-.77-.18-.18-.41-.26-.69-.26-.18,0-.35,.04-.51,.13s-.28,.22-.38,.39-.14,.39-.14,.65v.18c0,.29,.05,.53,.14,.72s.22,.34,.38,.43,.32,.14,.51,.14c.24,0,.43-.05,.57-.14,.14-.09,.24-.23,.31-.4h.54c-.05,.19-.14,.36-.27,.51-.13,.15-.29,.27-.48,.36s-.42,.13-.67,.13Z"/>
    <path class="cls-38" d="M388.8,358.35c-.3,0-.57-.07-.81-.22-.24-.15-.42-.36-.55-.63-.13-.27-.2-.58-.2-.95s.07-.68,.2-.95c.13-.27,.32-.48,.55-.63s.51-.22,.82-.22c.33,0,.61,.07,.83,.22s.39,.35,.5,.59c.11,.25,.17,.52,.17,.81v.13s0,.1,0,.16h-2.65v-.42h2.13c0-.33-.11-.59-.29-.77-.18-.18-.41-.26-.69-.26-.18,0-.35,.04-.51,.13s-.28,.22-.38,.39-.14,.39-.14,.65v.18c0,.29,.05,.53,.14,.72s.22,.34,.38,.43,.32,.14,.51,.14c.24,0,.43-.05,.57-.14,.14-.09,.24-.23,.31-.4h.54c-.05,.19-.14,.36-.27,.51-.13,.15-.29,.27-.48,.36s-.42,.13-.67,.13Z"/>
    <path class="cls-38" d="M391.07,358.27v-4.69h.55v4.69h-.55Z"/>
    <path class="cls-38" d="M393.66,359.7v-.47h.25c.17,0,.28-.03,.35-.1s.1-.18,.1-.34v-3.95h.55v3.96c0,.21-.04,.38-.1,.51-.07,.13-.17,.23-.31,.29-.14,.06-.31,.09-.5,.09h-.34Zm.99-5.52c-.11,0-.2-.04-.27-.11s-.11-.16-.11-.27,.04-.2,.11-.26c.07-.07,.16-.1,.27-.1s.19,.03,.26,.1c.07,.07,.11,.16,.11,.26s-.04,.2-.11,.27-.16,.11-.26,.11Z"/>
    <path class="cls-38" d="M397.12,358.35c-.25,0-.47-.05-.66-.14-.19-.1-.33-.24-.44-.44-.1-.2-.16-.44-.16-.74v-2.18h.55v2.13c0,.3,.08,.53,.22,.68,.15,.15,.35,.23,.6,.23,.17,0,.33-.04,.47-.12,.14-.08,.25-.2,.34-.36,.08-.16,.13-.35,.13-.57v-1.99h.55v3.43h-.5l-.03-.55c-.09,.2-.23,.35-.42,.46s-.41,.16-.66,.16Z"/>
    <path class="cls-38" d="M401.07,358.35c-.3,0-.57-.07-.81-.22-.24-.15-.42-.36-.55-.63-.13-.27-.2-.58-.2-.95s.07-.68,.2-.95c.13-.27,.32-.48,.55-.63s.51-.22,.82-.22c.33,0,.61,.07,.83,.22s.39,.35,.5,.59c.11,.25,.17,.52,.17,.81v.13s0,.1,0,.16h-2.65v-.42h2.13c0-.33-.11-.59-.29-.77-.18-.18-.41-.26-.69-.26-.18,0-.35,.04-.51,.13s-.28,.22-.38,.39-.14,.39-.14,.65v.18c0,.29,.05,.53,.14,.72s.22,.34,.38,.43,.32,.14,.51,.14c.24,0,.43-.05,.57-.14,.14-.09,.24-.23,.31-.4h.54c-.05,.19-.14,.36-.27,.51-.13,.15-.29,.27-.48,.36s-.42,.13-.67,.13Z"/>
    <path class="cls-38" d="M404.2,358.27l-1.3-3.43h.58l1.04,2.9,1.05-2.9h.56l-1.3,3.43h-.63Z"/>
    <path class="cls-38" d="M408.01,358.35c-.3,0-.57-.07-.81-.22-.24-.15-.42-.36-.55-.63-.13-.27-.2-.58-.2-.95s.07-.68,.2-.95c.13-.27,.32-.48,.55-.63s.51-.22,.82-.22c.33,0,.61,.07,.83,.22s.39,.35,.5,.59c.11,.25,.17,.52,.17,.81v.13s0,.1,0,.16h-2.65v-.42h2.13c0-.33-.11-.59-.29-.77-.18-.18-.41-.26-.69-.26-.18,0-.35,.04-.51,.13s-.28,.22-.38,.39-.14,.39-.14,.65v.18c0,.29,.05,.53,.14,.72s.22,.34,.38,.43,.32,.14,.51,.14c.24,0,.43-.05,.57-.14,.14-.09,.24-.23,.31-.4h.54c-.05,.19-.14,.36-.27,.51-.13,.15-.29,.27-.48,.36s-.42,.13-.67,.13Z"/>
    <path class="cls-38" d="M411.52,358.35c-.31,0-.56-.05-.77-.14-.2-.09-.36-.22-.46-.39-.1-.17-.17-.36-.19-.58h.56c.02,.12,.06,.23,.12,.32,.06,.1,.16,.18,.28,.24,.12,.06,.28,.09,.46,.09,.15,0,.27-.02,.38-.07,.1-.05,.18-.11,.24-.19,.05-.08,.08-.18,.08-.29,0-.14-.03-.25-.09-.34-.06-.08-.15-.14-.27-.18-.12-.04-.27-.07-.45-.09-.19-.03-.36-.06-.51-.11-.15-.05-.27-.11-.38-.19-.1-.08-.18-.18-.23-.29-.05-.12-.08-.26-.08-.42,0-.19,.05-.35,.15-.5,.1-.14,.24-.25,.43-.33,.18-.08,.4-.12,.66-.12,.37,0,.66,.08,.88,.25,.21,.17,.34,.41,.38,.72h-.54c-.02-.16-.1-.29-.22-.38-.13-.09-.29-.14-.5-.14-.22,0-.39,.04-.5,.12-.11,.08-.17,.19-.17,.33,0,.1,.02,.19,.08,.27,.05,.08,.14,.15,.26,.2,.12,.05,.29,.09,.49,.12,.26,.03,.47,.08,.65,.15,.18,.07,.31,.17,.41,.31,.09,.14,.14,.33,.13,.57,0,.23-.05,.42-.16,.57s-.25,.28-.44,.36c-.19,.08-.41,.12-.66,.12Z"/>
    <path class="cls-38" d="M415.91,358.27l1.67-4.09h-2.5v-.47h3.06v.41l-1.66,4.15h-.58Z"/>
    <path class="cls-38" d="M421,359.7l.78-1.8h-.19l-1.28-3.06h.59l1.06,2.64,1.11-2.64h.57l-2.07,4.86h-.57Z"/>
    <path class="cls-38" d="M427.42,358.35c-.3,0-.57-.07-.81-.22-.24-.15-.42-.36-.55-.63-.13-.27-.2-.58-.2-.95s.07-.68,.2-.95c.13-.27,.32-.48,.55-.63s.51-.22,.82-.22c.33,0,.61,.07,.83,.22s.39,.35,.5,.59c.11,.25,.17,.52,.17,.81v.13s0,.1,0,.16h-2.65v-.42h2.13c0-.33-.11-.59-.29-.77-.18-.18-.41-.26-.69-.26-.18,0-.35,.04-.51,.13s-.28,.22-.38,.39-.14,.39-.14,.65v.18c0,.29,.05,.53,.14,.72s.22,.34,.38,.43,.32,.14,.51,.14c.24,0,.43-.05,.57-.14,.14-.09,.24-.23,.31-.4h.54c-.05,.19-.14,.36-.27,.51-.13,.15-.29,.27-.48,.36s-.42,.13-.67,.13Z"/>
    <path class="cls-38" d="M429.69,358.27v-4.69h.55v4.69h-.55Z"/>
    <path class="cls-38" d="M434.16,358.35c-.31,0-.56-.05-.77-.14-.2-.09-.36-.22-.46-.39-.1-.17-.17-.36-.19-.58h.56c.02,.12,.06,.23,.12,.32,.06,.1,.16,.18,.28,.24,.12,.06,.28,.09,.46,.09,.15,0,.27-.02,.38-.07,.1-.05,.18-.11,.24-.19,.05-.08,.08-.18,.08-.29,0-.14-.03-.25-.09-.34-.06-.08-.15-.14-.27-.18-.12-.04-.27-.07-.45-.09-.19-.03-.36-.06-.51-.11-.15-.05-.27-.11-.38-.19-.1-.08-.18-.18-.23-.29-.05-.12-.08-.26-.08-.42,0-.19,.05-.35,.15-.5,.1-.14,.24-.25,.43-.33,.18-.08,.4-.12,.66-.12,.37,0,.66,.08,.88,.25,.21,.17,.34,.41,.38,.72h-.54c-.02-.16-.1-.29-.22-.38-.13-.09-.29-.14-.5-.14-.22,0-.39,.04-.5,.12-.11,.08-.17,.19-.17,.33,0,.1,.02,.19,.08,.27,.05,.08,.14,.15,.26,.2,.12,.05,.29,.09,.49,.12,.26,.03,.47,.08,.65,.15,.18,.07,.31,.17,.41,.31,.09,.14,.14,.33,.13,.57,0,.23-.05,.42-.16,.57s-.25,.28-.44,.36c-.19,.08-.41,.12-.66,.12Z"/>
    <path class="cls-38" d="M437.31,358.35c-.26,0-.48-.05-.65-.15s-.3-.23-.39-.39-.13-.34-.13-.52c0-.23,.06-.42,.17-.58,.12-.16,.28-.28,.49-.36,.21-.08,.45-.12,.73-.12h.85c0-.22-.03-.41-.08-.55-.05-.15-.14-.26-.25-.33-.12-.07-.27-.11-.47-.11s-.36,.05-.5,.15c-.14,.1-.23,.24-.26,.43h-.56c.03-.23,.1-.42,.23-.57s.29-.27,.48-.35c.19-.08,.4-.12,.62-.12,.31,0,.56,.06,.76,.17,.2,.11,.35,.27,.44,.46,.1,.2,.14,.43,.14,.7v2.18h-.49l-.03-.59c-.04,.09-.1,.18-.17,.26s-.15,.15-.24,.21c-.09,.06-.2,.11-.31,.14-.12,.03-.24,.05-.38,.05Zm.08-.46c.14,0,.28-.03,.4-.1,.12-.07,.23-.15,.32-.26,.09-.11,.16-.24,.21-.38,.05-.14,.07-.29,.07-.44v-.06h-.81c-.2,0-.37,.03-.5,.08-.13,.05-.22,.12-.28,.22-.06,.09-.08,.2-.08,.32,0,.13,.03,.24,.08,.33,.05,.09,.13,.17,.23,.22,.1,.05,.22,.08,.37,.08Zm-.35-3.33l-.23-.35,1.14-.83,.31,.44-1.22,.74Z"/>
    <path class="cls-38" d="M441.54,358.35c-.21,0-.39-.03-.54-.09-.15-.06-.28-.14-.38-.24-.1-.1-.19-.19-.25-.28l-.05,.53h-.5v-4.69h.55v1.81c.1-.2,.26-.36,.46-.46s.43-.16,.68-.16c.31,0,.59,.08,.82,.23,.24,.15,.42,.36,.55,.63s.2,.58,.2,.92-.06,.65-.2,.93c-.13,.27-.31,.49-.54,.65-.23,.16-.5,.23-.81,.23Zm-.07-.48c.2,0,.39-.05,.54-.16,.16-.11,.29-.26,.38-.46,.09-.2,.14-.43,.14-.7s-.05-.5-.14-.7c-.09-.2-.22-.35-.38-.46-.16-.11-.34-.16-.54-.16-.22,0-.41,.05-.57,.16s-.29,.26-.37,.46c-.09,.2-.13,.43-.13,.7s.04,.5,.13,.7c.09,.2,.21,.35,.37,.46s.35,.16,.57,.16Z"/>
    <path class="cls-38" d="M444.95,358.35c-.26,0-.48-.05-.65-.15s-.3-.23-.39-.39-.13-.34-.13-.52c0-.23,.06-.42,.17-.58,.12-.16,.28-.28,.49-.36,.21-.08,.45-.12,.73-.12h.85c0-.22-.03-.41-.08-.55-.05-.15-.14-.26-.25-.33-.12-.07-.27-.11-.47-.11s-.36,.05-.5,.15c-.14,.1-.23,.24-.26,.43h-.56c.03-.23,.1-.42,.23-.57s.29-.27,.48-.35c.19-.08,.4-.12,.62-.12,.31,0,.56,.06,.76,.17,.2,.11,.35,.27,.44,.46,.1,.2,.14,.43,.14,.7v2.18h-.49l-.03-.59c-.04,.09-.1,.18-.17,.26s-.15,.15-.24,.21c-.09,.06-.2,.11-.31,.14-.12,.03-.24,.05-.38,.05Zm.08-.46c.14,0,.28-.03,.4-.1,.12-.07,.23-.15,.32-.26,.09-.11,.16-.24,.21-.38,.05-.14,.07-.29,.07-.44v-.06h-.81c-.2,0-.37,.03-.5,.08-.13,.05-.22,.12-.28,.22-.06,.09-.08,.2-.08,.32,0,.13,.03,.24,.08,.33,.05,.09,.13,.17,.23,.22,.1,.05,.22,.08,.37,.08Z"/>
    <path class="cls-38" d="M448.89,358.35c-.3,0-.57-.08-.81-.23s-.42-.37-.55-.64c-.13-.27-.2-.58-.2-.92s.07-.66,.2-.92c.13-.27,.31-.48,.55-.63s.51-.23,.82-.23c.27,0,.5,.05,.69,.16,.19,.11,.35,.26,.46,.46v-1.81h.55v4.69h-.5l-.05-.55c-.07,.11-.15,.21-.26,.31s-.23,.17-.38,.23c-.15,.06-.32,.09-.52,.09Zm.07-.48c.22,0,.41-.05,.57-.16s.29-.26,.37-.46c.09-.2,.13-.43,.13-.7s-.04-.5-.13-.7c-.09-.2-.21-.35-.37-.46s-.35-.16-.57-.16c-.2,0-.39,.05-.55,.16-.16,.11-.29,.26-.38,.46-.09,.2-.14,.43-.14,.7s.05,.5,.14,.7c.09,.2,.22,.35,.38,.46,.16,.11,.34,.16,.55,.16Z"/>
    <path class="cls-38" d="M453,358.35c-.32,0-.6-.07-.84-.22-.24-.15-.43-.36-.57-.63s-.2-.58-.2-.95,.07-.68,.21-.95c.14-.27,.33-.48,.57-.62,.25-.15,.53-.22,.84-.22s.6,.07,.84,.22,.43,.36,.56,.62c.13,.27,.2,.58,.2,.95s-.07,.68-.21,.95-.33,.48-.57,.63-.53,.22-.85,.22Zm0-.47c.2,0,.38-.05,.54-.15s.29-.25,.38-.44c.09-.2,.14-.44,.14-.73s-.05-.54-.14-.74c-.09-.2-.22-.34-.38-.44-.16-.1-.34-.15-.54-.15s-.37,.05-.53,.15c-.16,.1-.29,.24-.38,.44-.1,.2-.14,.44-.14,.74s.05,.54,.14,.73c.09,.2,.22,.35,.38,.44,.16,.1,.34,.15,.53,.15Z"/>
    <path class="cls-38" d="M458.65,358.35c-.28,0-.53-.05-.73-.16-.21-.11-.37-.25-.49-.44-.12-.18-.19-.38-.23-.6h.51c.05,.23,.15,.41,.32,.53s.37,.19,.63,.19c.23,0,.43-.07,.61-.21,.17-.14,.31-.34,.42-.62,.11-.28,.17-.62,.19-1.05,0-.03,0-.05,0-.08v-.08c-.06,.14-.15,.27-.27,.38-.12,.12-.27,.21-.44,.28-.17,.07-.36,.11-.58,.11-.25,0-.49-.06-.71-.18-.22-.12-.4-.29-.53-.51-.13-.22-.2-.48-.2-.77,0-.26,.06-.5,.19-.74s.3-.43,.53-.57c.23-.15,.5-.22,.8-.22,.33,0,.6,.06,.83,.18,.22,.12,.4,.29,.53,.49,.13,.21,.23,.44,.29,.7,.06,.26,.09,.53,.09,.8,0,.5-.07,.94-.21,1.32-.14,.38-.33,.68-.59,.9-.26,.21-.58,.32-.95,.32Zm.04-2.2c.2,0,.37-.04,.53-.13,.16-.09,.28-.21,.38-.37,.09-.15,.14-.33,.14-.52s-.05-.38-.14-.54c-.09-.15-.22-.27-.38-.35-.16-.08-.33-.13-.53-.13s-.36,.04-.51,.13c-.15,.09-.27,.21-.36,.36s-.13,.33-.13,.54,.04,.38,.13,.53,.21,.27,.36,.36c.15,.08,.32,.13,.51,.13Z"/>
    <path class="cls-38" d="M464.41,358.35c-.3,0-.57-.08-.81-.23s-.42-.37-.55-.64c-.13-.27-.2-.58-.2-.92s.07-.66,.2-.92c.13-.27,.31-.48,.55-.63s.51-.23,.82-.23c.27,0,.5,.05,.69,.16,.19,.11,.35,.26,.46,.46v-1.81h.55v4.69h-.5l-.05-.55c-.07,.11-.15,.21-.26,.31s-.23,.17-.38,.23c-.15,.06-.32,.09-.52,.09Zm.07-.48c.22,0,.41-.05,.57-.16s.29-.26,.37-.46c.09-.2,.13-.43,.13-.7s-.04-.5-.13-.7c-.09-.2-.21-.35-.37-.46s-.35-.16-.57-.16c-.2,0-.39,.05-.55,.16-.16,.11-.29,.26-.38,.46-.09,.2-.14,.43-.14,.7s.05,.5,.14,.7c.09,.2,.22,.35,.38,.46,.16,.11,.34,.16,.55,.16Z"/>
    <path class="cls-38" d="M468.47,358.35c-.3,0-.57-.07-.81-.22-.24-.15-.42-.36-.55-.63-.13-.27-.2-.58-.2-.95s.07-.68,.2-.95c.13-.27,.32-.48,.55-.63s.51-.22,.82-.22c.33,0,.61,.07,.83,.22s.39,.35,.5,.59c.11,.25,.17,.52,.17,.81v.13s0,.1,0,.16h-2.65v-.42h2.13c0-.33-.11-.59-.29-.77-.18-.18-.41-.26-.69-.26-.18,0-.35,.04-.51,.13s-.28,.22-.38,.39-.14,.39-.14,.65v.18c0,.29,.05,.53,.14,.72s.22,.34,.38,.43,.32,.14,.51,.14c.24,0,.43-.05,.57-.14,.14-.09,.24-.23,.31-.4h.54c-.05,.19-.14,.36-.27,.51-.13,.15-.29,.27-.48,.36s-.42,.13-.67,.13Z"/>
    <path class="cls-38" d="M473.56,358.35c-.26,0-.48-.05-.65-.15s-.3-.23-.39-.39-.13-.34-.13-.52c0-.23,.06-.42,.17-.58,.12-.16,.28-.28,.49-.36,.21-.08,.45-.12,.73-.12h.85c0-.22-.03-.41-.08-.55-.05-.15-.14-.26-.25-.33-.12-.07-.27-.11-.47-.11s-.36,.05-.5,.15c-.14,.1-.23,.24-.26,.43h-.56c.03-.23,.1-.42,.23-.57s.29-.27,.48-.35c.19-.08,.4-.12,.62-.12,.31,0,.56,.06,.76,.17,.2,.11,.35,.27,.44,.46,.1,.2,.14,.43,.14,.7v2.18h-.49l-.03-.59c-.04,.09-.1,.18-.17,.26s-.15,.15-.24,.21c-.09,.06-.2,.11-.31,.14-.12,.03-.24,.05-.38,.05Zm.08-.46c.14,0,.28-.03,.4-.1,.12-.07,.23-.15,.32-.26,.09-.11,.16-.24,.21-.38,.05-.14,.07-.29,.07-.44v-.06h-.81c-.2,0-.37,.03-.5,.08-.13,.05-.22,.12-.28,.22-.06,.09-.08,.2-.08,.32,0,.13,.03,.24,.08,.33,.05,.09,.13,.17,.23,.22,.1,.05,.22,.08,.37,.08Z"/>
    <path class="cls-38" d="M477.42,359.78c-.31,0-.58-.04-.81-.11s-.41-.19-.54-.35-.19-.35-.19-.58c0-.11,.02-.22,.06-.34,.04-.12,.11-.23,.22-.34,.1-.11,.25-.21,.43-.29l.42,.22c-.25,.1-.41,.21-.48,.33s-.11,.25-.11,.37c0,.14,.04,.26,.13,.36,.08,.09,.2,.17,.36,.21,.15,.05,.33,.07,.53,.07s.36-.02,.51-.08c.14-.05,.25-.12,.33-.21,.08-.09,.11-.2,.11-.33,0-.18-.06-.33-.18-.43-.12-.1-.35-.16-.68-.18-.26-.02-.49-.04-.67-.07-.18-.03-.33-.07-.44-.11-.12-.04-.21-.09-.29-.14s-.14-.11-.21-.16v-.15l.65-.62,.52,.17-.7,.58,.08-.25s.09,.07,.14,.1c.04,.03,.1,.06,.18,.08,.08,.02,.18,.05,.32,.07,.14,.02,.32,.04,.54,.06,.31,.02,.56,.07,.75,.16,.19,.08,.32,.2,.4,.34,.08,.15,.12,.32,.12,.53,0,.18-.05,.36-.15,.52-.1,.17-.26,.3-.48,.41-.22,.11-.5,.16-.85,.16Zm0-2.58c-.28,0-.51-.05-.71-.16-.19-.11-.34-.25-.44-.44-.1-.18-.15-.39-.15-.62s.05-.44,.15-.62,.25-.33,.44-.44,.43-.16,.7-.16,.52,.05,.71,.16c.19,.11,.34,.25,.44,.44,.1,.18,.15,.39,.15,.62s-.05,.44-.15,.62c-.1,.18-.25,.33-.44,.44-.19,.11-.43,.16-.71,.16Zm0-.45c.24,0,.43-.06,.57-.19,.13-.13,.2-.32,.2-.58s-.07-.45-.2-.57c-.13-.13-.32-.19-.57-.19-.23,0-.42,.06-.56,.19s-.22,.32-.22,.57,.07,.45,.21,.58c.14,.13,.33,.19,.57,.19Zm.57-1.45l-.16-.46h1.34v.41l-1.18,.05Z"/>
    <path class="cls-38" d="M481.17,358.35c-.32,0-.6-.07-.84-.22-.24-.15-.43-.36-.57-.63s-.2-.58-.2-.95,.07-.68,.21-.95c.14-.27,.33-.48,.57-.62,.25-.15,.53-.22,.84-.22s.6,.07,.84,.22,.43,.36,.56,.62c.13,.27,.2,.58,.2,.95s-.07,.68-.21,.95-.33,.48-.57,.63-.53,.22-.85,.22Zm0-.47c.2,0,.38-.05,.54-.15s.29-.25,.38-.44c.09-.2,.14-.44,.14-.73s-.05-.54-.14-.74c-.09-.2-.22-.34-.38-.44-.16-.1-.34-.15-.54-.15s-.37,.05-.53,.15c-.16,.1-.29,.24-.38,.44-.1,.2-.14,.44-.14,.74s.05,.54,.14,.73c.09,.2,.22,.35,.38,.44,.16,.1,.34,.15,.53,.15Z"/>
    <path class="cls-38" d="M484.83,358.35c-.31,0-.56-.05-.77-.14-.2-.09-.36-.22-.46-.39-.1-.17-.17-.36-.19-.58h.56c.02,.12,.06,.23,.12,.32,.06,.1,.16,.18,.28,.24,.12,.06,.28,.09,.46,.09,.15,0,.27-.02,.38-.07,.1-.05,.18-.11,.24-.19,.05-.08,.08-.18,.08-.29,0-.14-.03-.25-.09-.34-.06-.08-.15-.14-.27-.18-.12-.04-.27-.07-.45-.09-.19-.03-.36-.06-.51-.11-.15-.05-.27-.11-.38-.19-.1-.08-.18-.18-.23-.29-.05-.12-.08-.26-.08-.42,0-.19,.05-.35,.15-.5,.1-.14,.24-.25,.43-.33,.18-.08,.4-.12,.66-.12,.37,0,.66,.08,.88,.25,.21,.17,.34,.41,.38,.72h-.54c-.02-.16-.1-.29-.22-.38-.13-.09-.29-.14-.5-.14-.22,0-.39,.04-.5,.12-.11,.08-.17,.19-.17,.33,0,.1,.02,.19,.08,.27,.05,.08,.14,.15,.26,.2,.12,.05,.29,.09,.49,.12,.26,.03,.47,.08,.65,.15,.18,.07,.31,.17,.41,.31,.09,.14,.14,.33,.13,.57,0,.23-.05,.42-.16,.57s-.25,.28-.44,.36c-.19,.08-.41,.12-.66,.12Z"/>
    <path class="cls-38" d="M488.1,358.27c-.2,0-.37-.03-.51-.09-.14-.06-.25-.16-.33-.31-.08-.15-.11-.34-.11-.59v-1.98h-.6v-.46h.6l.07-.85h.48v.85h.97v.46h-.97v1.98c0,.2,.04,.34,.12,.41,.08,.07,.23,.11,.44,.11h.4v.47h-.55Z"/>
    <path class="cls-38" d="M490.8,358.35c-.32,0-.6-.07-.84-.22-.24-.15-.43-.36-.57-.63s-.2-.58-.2-.95,.07-.68,.21-.95c.14-.27,.33-.48,.57-.62,.25-.15,.53-.22,.84-.22s.6,.07,.84,.22,.43,.36,.56,.62c.13,.27,.2,.58,.2,.95s-.07,.68-.21,.95-.33,.48-.57,.63-.53,.22-.85,.22Zm0-.47c.2,0,.38-.05,.54-.15s.29-.25,.38-.44c.09-.2,.14-.44,.14-.73s-.05-.54-.14-.74c-.09-.2-.22-.34-.38-.44-.16-.1-.34-.15-.54-.15s-.37,.05-.53,.15c-.16,.1-.29,.24-.38,.44-.1,.2-.14,.44-.14,.74s.05,.54,.14,.73c.09,.2,.22,.35,.38,.44,.16,.1,.34,.15,.53,.15Z"/>
    <path class="cls-38" d="M493.43,358.3c-.1,0-.19-.04-.26-.11-.07-.07-.11-.16-.11-.26s.04-.19,.11-.26c.07-.07,.16-.11,.26-.11,.11,0,.2,.04,.27,.11,.07,.07,.1,.16,.1,.26s-.03,.19-.1,.26c-.07,.07-.16,.11-.27,.11Z"/>
  </g>
</svg>