<?xml version="1.0" encoding="UTF-8"?>
<svg xmlns="http://www.w3.org/2000/svg" viewBox="0 0 520.73 390">
  <defs>
    <style>
      .cls-1 {
        fill: #718196;
        font-size: 6.21px;
      }

      .cls-1, .cls-2, .cls-3, .cls-4, .cls-5, .cls-6, .cls-7, .cls-8, .cls-9, .cls-10, .cls-11, .cls-12, .cls-13 {
        isolation: isolate;
      }

      .cls-1, .cls-6, .cls-14 {
        font-family: DMSans-9ptRegular, 'DM Sans';
        font-variation-settings: 'opsz' 9, 'wght' 400;
      }

      .cls-15 {
        letter-spacing: -.02em;
      }

      .cls-16 {
        letter-spacing: 0em;
      }

      .cls-17 {
        letter-spacing: -.01em;
      }

      .cls-2 {
        stroke: #1db681;
      }

      .cls-2, .cls-3, .cls-4, .cls-8, .cls-9 {
        opacity: .25;
        stroke-width: 1.62px;
      }

      .cls-2, .cls-18, .cls-19 {
        fill: #e1e322;
      }

      .cls-20 {
        letter-spacing: -.04em;
      }

      .cls-3 {
        stroke: #f39e1e;
      }

      .cls-3, .cls-21, .cls-22, .cls-13 {
        fill: #a454a1;
      }

      .cls-23 {
        letter-spacing: 0em;
      }

      .cls-24 {
        letter-spacing: -.02em;
      }

      .cls-25 {
        letter-spacing: -.02em;
      }

      .cls-26 {
        letter-spacing: -.02em;
      }

      .cls-27 {
        letter-spacing: -.02em;
      }

      .cls-28 {
        letter-spacing: -.02em;
      }

      .cls-29 {
        font-size: 9.38px;
      }

      .cls-29, .cls-5 {
        fill: #2d3848;
      }

      .cls-29, .cls-5, .cls-10 {
        font-family: DMSans-Medium, 'DM Sans';
        font-weight: 500;
      }

      .cls-4 {
        stroke: #ef4544;
      }

      .cls-4, .cls-30, .cls-31, .cls-11 {
        fill: #ef4544;
      }

      .cls-32, .cls-6, .cls-14 {
        fill: #676767;
      }

      .cls-33 {
        fill: #171717;
      }

      .cls-34, .cls-35, .cls-8, .cls-12 {
        fill: #59c1dd;
      }

      .cls-36, .cls-37, .cls-9 {
        fill: #517abd;
      }

      .cls-38 {
        letter-spacing: -.02em;
      }

      .cls-39 {
        letter-spacing: -.01em;
      }

      .cls-5 {
        font-size: 7.46px;
      }

      .cls-40 {
        letter-spacing: 0em;
      }

      .cls-41 {
        letter-spacing: -.02em;
      }

      .cls-37, .cls-35, .cls-22, .cls-31, .cls-19 {
        stroke: #fff;
        stroke-width: 1.08px;
      }

      .cls-6, .cls-14 {
        font-size: 6.52px;
      }

      .cls-42 {
        letter-spacing: -.01em;
      }

      .cls-7 {
        fill: #2b2b2b;
        font-family: DMSans-Regular, 'DM Sans';
        font-size: 6.46px;
      }

      .cls-43 {
        letter-spacing: -.06em;
      }

      .cls-8 {
        stroke: #7563ab;
      }

      .cls-44 {
        letter-spacing: -.01em;
      }

      .cls-45 {
        letter-spacing: -.01em;
      }

      .cls-46 {
        letter-spacing: -.02em;
      }

      .cls-9 {
        stroke: #517abd;
      }

      .cls-47 {
        letter-spacing: -.01em;
      }

      .cls-48 {
        letter-spacing: -.01em;
      }

      .cls-49 {
        letter-spacing: -.09em;
      }

      .cls-50 {
        letter-spacing: 0em;
      }

      .cls-51 {
        stroke: #e2e8f0;
      }

      .cls-51, .cls-52 {
        fill: none;
        stroke-width: .54px;
      }

      .cls-52 {
        stroke: #f1f5f9;
      }

      .cls-53 {
        letter-spacing: -.02em;
      }

      .cls-10 {
        fill: #4b5668;
        font-size: 5.92px;
      }

      .cls-54 {
        letter-spacing: -.02em;
      }

      .cls-55 {
        letter-spacing: -.02em;
      }

      .cls-56 {
        letter-spacing: 0em;
      }

      .cls-11, .cls-12, .cls-13 {
        font-family: DMSans-SemiBold, 'DM Sans';
        font-size: 4.85px;
        font-weight: 600;
      }

      .cls-57 {
        letter-spacing: -.03em;
      }
    </style>
  </defs>
  <g id="Layer_1" data-name="Layer 1">
    <text class="cls-6" transform="translate(31.63 246.73)"><tspan class="cls-49" x="0" y="0">T</tspan><tspan class="cls-26" x="3.09" y="0">o</tspan><tspan x="6.85" y="0">tal: 1.</tspan><tspan class="cls-54" x="21.27" y="0">3</tspan><tspan x="25.06" y="0">19 usuarios</tspan></text>
    <g>
      <path class="cls-32" d="M369.86,351.31v-4.11h-1.36v-.45h3.27v.45h-1.36v4.11h-.55Z"/>
      <path class="cls-32" d="M373.33,351.39c-.32,0-.6-.07-.84-.22-.24-.15-.43-.36-.57-.63s-.2-.58-.2-.95,.07-.68,.21-.95c.14-.27,.33-.48,.57-.62,.25-.15,.53-.22,.84-.22s.6,.07,.84,.22,.43,.36,.56,.62c.13,.27,.2,.58,.2,.95s-.07,.68-.21,.95-.33,.48-.57,.63-.53,.22-.85,.22Zm0-.47c.2,0,.38-.05,.54-.15s.29-.25,.38-.44c.09-.2,.14-.44,.14-.73s-.05-.54-.14-.74c-.09-.2-.22-.34-.38-.44-.16-.1-.34-.15-.54-.15s-.37,.05-.53,.15c-.16,.1-.29,.24-.38,.44-.1,.2-.14,.44-.14,.74s.05,.54,.14,.73c.09,.2,.22,.35,.38,.44,.16,.1,.34,.15,.53,.15Z"/>
      <path class="cls-32" d="M377.16,351.39c-.3,0-.57-.08-.81-.23s-.42-.37-.55-.64c-.13-.27-.2-.58-.2-.92s.07-.66,.2-.92c.13-.27,.31-.48,.55-.63s.51-.23,.82-.23c.27,0,.5,.05,.69,.16,.19,.11,.35,.26,.46,.46v-1.81h.55v4.69h-.5l-.05-.55c-.07,.11-.15,.21-.26,.31s-.23,.17-.38,.23c-.15,.06-.32,.09-.52,.09Zm.07-.48c.22,0,.41-.05,.57-.16s.29-.26,.37-.46c.09-.2,.13-.43,.13-.7s-.04-.5-.13-.7c-.09-.2-.21-.35-.37-.46s-.35-.16-.57-.16c-.2,0-.39,.05-.55,.16-.16,.11-.29,.26-.38,.46-.09,.2-.14,.43-.14,.7s.05,.5,.14,.7c.09,.2,.22,.35,.38,.46,.16,.11,.34,.16,.55,.16Z"/>
      <path class="cls-32" d="M381.27,351.39c-.32,0-.6-.07-.84-.22-.24-.15-.43-.36-.57-.63s-.2-.58-.2-.95,.07-.68,.21-.95c.14-.27,.33-.48,.57-.62,.25-.15,.53-.22,.84-.22s.6,.07,.84,.22,.43,.36,.56,.62c.13,.27,.2,.58,.2,.95s-.07,.68-.21,.95-.33,.48-.57,.63-.53,.22-.85,.22Zm0-.47c.2,0,.38-.05,.54-.15s.29-.25,.38-.44c.09-.2,.14-.44,.14-.73s-.05-.54-.14-.74c-.09-.2-.22-.34-.38-.44-.16-.1-.34-.15-.54-.15s-.37,.05-.53,.15c-.16,.1-.29,.24-.38,.44-.1,.2-.14,.44-.14,.74s.05,.54,.14,.73c.09,.2,.22,.35,.38,.44,.16,.1,.34,.15,.53,.15Z"/>
      <path class="cls-32" d="M384.93,351.39c-.31,0-.56-.05-.77-.14-.2-.09-.36-.22-.46-.39-.1-.17-.17-.36-.19-.58h.56c.02,.12,.06,.23,.12,.32,.06,.1,.16,.18,.28,.24,.12,.06,.28,.09,.46,.09,.15,0,.27-.02,.38-.07,.1-.05,.18-.11,.24-.19,.05-.08,.08-.18,.08-.29,0-.14-.03-.25-.09-.34-.06-.08-.15-.14-.27-.18-.12-.04-.27-.07-.45-.09-.19-.03-.36-.06-.51-.11-.15-.05-.27-.11-.38-.19-.1-.08-.18-.18-.23-.29-.05-.12-.08-.26-.08-.42,0-.19,.05-.35,.15-.5,.1-.14,.24-.25,.43-.33,.18-.08,.4-.12,.66-.12,.37,0,.66,.08,.88,.25,.21,.17,.34,.41,.38,.72h-.54c-.02-.16-.1-.29-.22-.38-.13-.09-.29-.14-.5-.14-.22,0-.39,.04-.5,.12-.11,.08-.17,.19-.17,.33,0,.1,.02,.19,.08,.27,.05,.08,.14,.15,.26,.2,.12,.05,.29,.09,.49,.12,.26,.03,.47,.08,.65,.15,.18,.07,.31,.17,.41,.31,.09,.14,.14,.33,.13,.57,0,.23-.05,.42-.16,.57s-.25,.28-.44,.36c-.19,.08-.41,.12-.66,.12Z"/>
      <path class="cls-32" d="M388.76,351.31v-4.69h.55v4.69h-.55Z"/>
      <path class="cls-32" d="M391.71,351.39c-.32,0-.6-.07-.84-.22-.24-.15-.43-.36-.57-.63s-.2-.58-.2-.95,.07-.68,.21-.95c.14-.27,.33-.48,.57-.62,.25-.15,.53-.22,.84-.22s.6,.07,.84,.22,.43,.36,.56,.62c.13,.27,.2,.58,.2,.95s-.07,.68-.21,.95-.33,.48-.57,.63-.53,.22-.85,.22Zm0-.47c.2,0,.38-.05,.54-.15s.29-.25,.38-.44c.09-.2,.14-.44,.14-.73s-.05-.54-.14-.74c-.09-.2-.22-.34-.38-.44-.16-.1-.34-.15-.54-.15s-.37,.05-.53,.15c-.16,.1-.29,.24-.38,.44-.1,.2-.14,.44-.14,.74s.05,.54,.14,.73c.09,.2,.22,.35,.38,.44,.16,.1,.34,.15,.53,.15Z"/>
      <path class="cls-32" d="M395.36,351.39c-.31,0-.56-.05-.77-.14-.2-.09-.36-.22-.46-.39-.1-.17-.17-.36-.19-.58h.56c.02,.12,.06,.23,.12,.32,.06,.1,.16,.18,.28,.24,.12,.06,.28,.09,.46,.09,.15,0,.27-.02,.38-.07,.1-.05,.18-.11,.24-.19,.05-.08,.08-.18,.08-.29,0-.14-.03-.25-.09-.34-.06-.08-.15-.14-.27-.18-.12-.04-.27-.07-.45-.09-.19-.03-.36-.06-.51-.11-.15-.05-.27-.11-.38-.19-.1-.08-.18-.18-.23-.29-.05-.12-.08-.26-.08-.42,0-.19,.05-.35,.15-.5,.1-.14,.24-.25,.43-.33,.18-.08,.4-.12,.66-.12,.37,0,.66,.08,.88,.25,.21,.17,.34,.41,.38,.72h-.54c-.02-.16-.1-.29-.22-.38-.13-.09-.29-.14-.5-.14-.22,0-.39,.04-.5,.12-.11,.08-.17,.19-.17,.33,0,.1,.02,.19,.08,.27,.05,.08,.14,.15,.26,.2,.12,.05,.29,.09,.49,.12,.26,.03,.47,.08,.65,.15,.18,.07,.31,.17,.41,.31,.09,.14,.14,.33,.13,.57,0,.23-.05,.42-.16,.57s-.25,.28-.44,.36c-.19,.08-.41,.12-.66,.12Z"/>
      <path class="cls-32" d="M400.61,351.39c-.3,0-.57-.08-.81-.23s-.42-.37-.55-.64c-.13-.27-.2-.58-.2-.92s.07-.66,.2-.92c.13-.27,.31-.48,.55-.63s.51-.23,.82-.23c.27,0,.5,.05,.69,.16,.19,.11,.35,.26,.46,.46v-1.81h.55v4.69h-.5l-.05-.55c-.07,.11-.15,.21-.26,.31s-.23,.17-.38,.23c-.15,.06-.32,.09-.52,.09Zm.07-.48c.22,0,.41-.05,.57-.16s.29-.26,.37-.46c.09-.2,.13-.43,.13-.7s-.04-.5-.13-.7c-.09-.2-.21-.35-.37-.46s-.35-.16-.57-.16c-.2,0-.39,.05-.55,.16-.16,.11-.29,.26-.38,.46-.09,.2-.14,.43-.14,.7s.05,.5,.14,.7c.09,.2,.22,.35,.38,.46,.16,.11,.34,.16,.55,.16Z"/>
      <path class="cls-32" d="M404.32,351.39c-.26,0-.48-.05-.65-.15s-.3-.23-.39-.39-.13-.34-.13-.52c0-.23,.06-.42,.17-.58,.12-.16,.28-.28,.49-.36,.21-.08,.45-.12,.73-.12h.85c0-.22-.03-.41-.08-.55-.05-.15-.14-.26-.25-.33-.12-.07-.27-.11-.47-.11s-.36,.05-.5,.15c-.14,.1-.23,.24-.26,.43h-.56c.03-.23,.1-.42,.23-.57s.29-.27,.48-.35c.19-.08,.4-.12,.62-.12,.31,0,.56,.06,.76,.17,.2,.11,.35,.27,.44,.46,.1,.2,.14,.43,.14,.7v2.18h-.49l-.03-.59c-.04,.09-.1,.18-.17,.26s-.15,.15-.24,.21c-.09,.06-.2,.11-.31,.14-.12,.03-.24,.05-.38,.05Zm.08-.46c.14,0,.28-.03,.4-.1,.12-.07,.23-.15,.32-.26,.09-.11,.16-.24,.21-.38,.05-.14,.07-.29,.07-.44v-.06h-.81c-.2,0-.37,.03-.5,.08-.13,.05-.22,.12-.28,.22-.06,.09-.08,.2-.08,.32,0,.13,.03,.24,.08,.33,.05,.09,.13,.17,.23,.22,.1,.05,.22,.08,.37,.08Z"/>
      <path class="cls-32" d="M408.08,351.31c-.2,0-.37-.03-.51-.09-.14-.06-.25-.16-.33-.31-.08-.15-.11-.34-.11-.59v-1.98h-.6v-.46h.6l.07-.85h.48v.85h.97v.46h-.97v1.98c0,.2,.04,.34,.12,.41,.08,.07,.23,.11,.44,.11h.4v.47h-.55Z"/>
      <path class="cls-32" d="M410.78,351.39c-.32,0-.6-.07-.84-.22-.24-.15-.43-.36-.57-.63s-.2-.58-.2-.95,.07-.68,.21-.95c.14-.27,.33-.48,.57-.62,.25-.15,.53-.22,.84-.22s.6,.07,.84,.22,.43,.36,.56,.62c.13,.27,.2,.58,.2,.95s-.07,.68-.21,.95-.33,.48-.57,.63-.53,.22-.85,.22Zm0-.47c.2,0,.38-.05,.54-.15s.29-.25,.38-.44c.09-.2,.14-.44,.14-.73s-.05-.54-.14-.74c-.09-.2-.22-.34-.38-.44-.16-.1-.34-.15-.54-.15s-.37,.05-.53,.15c-.16,.1-.29,.24-.38,.44-.1,.2-.14,.44-.14,.74s.05,.54,.14,.73c.09,.2,.22,.35,.38,.44,.16,.1,.34,.15,.53,.15Z"/>
      <path class="cls-32" d="M414.44,351.39c-.31,0-.56-.05-.77-.14-.2-.09-.36-.22-.46-.39-.1-.17-.17-.36-.19-.58h.56c.02,.12,.06,.23,.12,.32,.06,.1,.16,.18,.28,.24,.12,.06,.28,.09,.46,.09,.15,0,.27-.02,.38-.07,.1-.05,.18-.11,.24-.19,.05-.08,.08-.18,.08-.29,0-.14-.03-.25-.09-.34-.06-.08-.15-.14-.27-.18-.12-.04-.27-.07-.45-.09-.19-.03-.36-.06-.51-.11-.15-.05-.27-.11-.38-.19-.1-.08-.18-.18-.23-.29-.05-.12-.08-.26-.08-.42,0-.19,.05-.35,.15-.5,.1-.14,.24-.25,.43-.33,.18-.08,.4-.12,.66-.12,.37,0,.66,.08,.88,.25,.21,.17,.34,.41,.38,.72h-.54c-.02-.16-.1-.29-.22-.38-.13-.09-.29-.14-.5-.14-.22,0-.39,.04-.5,.12-.11,.08-.17,.19-.17,.33,0,.1,.02,.19,.08,.27,.05,.08,.14,.15,.26,.2,.12,.05,.29,.09,.49,.12,.26,.03,.47,.08,.65,.15,.18,.07,.31,.17,.41,.31,.09,.14,.14,.33,.13,.57,0,.23-.05,.42-.16,.57s-.25,.28-.44,.36c-.19,.08-.41,.12-.66,.12Z"/>
      <path class="cls-32" d="M417.95,348.35v-.46h2v.46h-2Zm.53,2.97v-3.79c0-.21,.04-.38,.1-.51s.17-.23,.31-.29c.14-.06,.31-.09,.51-.09h.5v.47h-.41c-.17,0-.28,.03-.36,.1-.07,.07-.11,.18-.11,.35v3.78h-.55Z"/>
      <path class="cls-32" d="M421.85,351.39c-.25,0-.47-.05-.66-.14-.19-.1-.33-.24-.44-.44-.1-.2-.16-.44-.16-.74v-2.18h.55v2.13c0,.3,.08,.53,.22,.68,.15,.15,.35,.23,.6,.23,.17,0,.33-.04,.47-.12,.14-.08,.25-.2,.34-.36,.08-.16,.13-.35,.13-.57v-1.99h.55v3.43h-.5l-.03-.55c-.09,.2-.23,.35-.42,.46s-.41,.16-.66,.16Z"/>
      <path class="cls-32" d="M425.81,351.39c-.3,0-.57-.07-.81-.22-.24-.15-.42-.36-.55-.63-.13-.27-.2-.58-.2-.95s.07-.68,.2-.95c.13-.27,.32-.48,.55-.63s.51-.22,.82-.22c.33,0,.61,.07,.83,.22s.39,.35,.5,.59c.11,.25,.17,.52,.17,.81v.13s0,.1,0,.16h-2.65v-.42h2.13c0-.33-.11-.59-.29-.77-.18-.18-.41-.26-.69-.26-.18,0-.35,.04-.51,.13s-.28,.22-.38,.39-.14,.39-.14,.65v.18c0,.29,.05,.53,.14,.72s.22,.34,.38,.43,.32,.14,.51,.14c.24,0,.43-.05,.57-.14,.14-.09,.24-.23,.31-.4h.54c-.05,.19-.14,.36-.27,.51-.13,.15-.29,.27-.48,.36s-.42,.13-.67,.13Z"/>
      <path class="cls-32" d="M428.07,351.31v-3.43h.5l.04,.63c.08-.16,.18-.29,.31-.39,.13-.1,.28-.18,.46-.24,.18-.05,.38-.08,.61-.08v.57h-.34c-.13,0-.26,.02-.38,.05-.12,.04-.23,.09-.33,.17-.1,.08-.18,.18-.23,.32-.06,.13-.08,.3-.08,.51v1.88h-.55Z"/>
      <path class="cls-32" d="M431.97,351.39c-.32,0-.6-.07-.84-.22-.24-.15-.43-.36-.57-.63s-.2-.58-.2-.95,.07-.68,.21-.95c.14-.27,.33-.48,.57-.62,.25-.15,.53-.22,.84-.22s.6,.07,.84,.22,.43,.36,.56,.62c.13,.27,.2,.58,.2,.95s-.07,.68-.21,.95-.33,.48-.57,.63-.53,.22-.85,.22Zm0-.47c.2,0,.38-.05,.54-.15s.29-.25,.38-.44c.09-.2,.14-.44,.14-.73s-.05-.54-.14-.74c-.09-.2-.22-.34-.38-.44-.16-.1-.34-.15-.54-.15s-.37,.05-.53,.15c-.16,.1-.29,.24-.38,.44-.1,.2-.14,.44-.14,.74s.05,.54,.14,.73c.09,.2,.22,.35,.38,.44,.16,.1,.34,.15,.53,.15Z"/>
      <path class="cls-32" d="M434.39,351.31v-3.43h.5l.03,.54c.1-.2,.25-.35,.43-.46,.19-.11,.41-.16,.66-.16s.47,.05,.66,.14c.19,.1,.33,.24,.44,.44,.1,.2,.16,.44,.16,.74v2.18h-.55v-2.13c0-.3-.08-.53-.22-.68-.15-.15-.35-.23-.6-.23-.17,0-.33,.04-.47,.12-.14,.08-.26,.2-.34,.36s-.13,.35-.13,.57v1.99h-.55Z"/>
      <path class="cls-32" d="M439.91,351.31v-3.43h.5l.04,.63c.08-.16,.18-.29,.31-.39,.13-.1,.28-.18,.46-.24,.18-.05,.38-.08,.61-.08v.57h-.34c-.13,0-.26,.02-.38,.05-.12,.04-.23,.09-.33,.17-.1,.08-.18,.18-.23,.32-.06,.13-.08,.3-.08,.51v1.88h-.55Z"/>
      <path class="cls-32" d="M443.75,351.39c-.3,0-.57-.07-.81-.22-.24-.15-.42-.36-.55-.63-.13-.27-.2-.58-.2-.95s.07-.68,.2-.95c.13-.27,.32-.48,.55-.63s.51-.22,.82-.22c.33,0,.61,.07,.83,.22s.39,.35,.5,.59c.11,.25,.17,.52,.17,.81v.13s0,.1,0,.16h-2.65v-.42h2.13c0-.33-.11-.59-.29-.77-.18-.18-.41-.26-.69-.26-.18,0-.35,.04-.51,.13s-.28,.22-.38,.39-.14,.39-.14,.65v.18c0,.29,.05,.53,.14,.72s.22,.34,.38,.43,.32,.14,.51,.14c.24,0,.43-.05,.57-.14,.14-.09,.24-.23,.31-.4h.54c-.05,.19-.14,.36-.27,.51-.13,.15-.29,.27-.48,.36s-.42,.13-.67,.13Z"/>
      <path class="cls-32" d="M447.5,351.39c-.31,0-.59-.08-.83-.22-.24-.15-.43-.36-.57-.63-.14-.27-.21-.58-.21-.94s.07-.67,.21-.94c.14-.27,.33-.48,.57-.63,.24-.15,.52-.22,.83-.22,.39,0,.72,.1,.98,.31,.26,.21,.43,.49,.51,.84h-.56c-.05-.22-.16-.39-.33-.51-.17-.12-.37-.18-.6-.18-.2,0-.38,.05-.54,.15-.16,.1-.28,.25-.38,.44-.09,.2-.14,.44-.14,.73,0,.22,.03,.41,.08,.58,.05,.17,.12,.31,.22,.42,.09,.11,.2,.19,.33,.25,.13,.06,.27,.08,.42,.08s.3-.03,.43-.08c.13-.05,.24-.13,.33-.24s.15-.23,.18-.37h.56c-.07,.34-.24,.62-.51,.83-.27,.21-.59,.32-.98,.32Z"/>
      <path class="cls-32" d="M451.25,351.39c-.32,0-.6-.07-.84-.22-.24-.15-.43-.36-.57-.63s-.2-.58-.2-.95,.07-.68,.21-.95c.14-.27,.33-.48,.57-.62,.25-.15,.53-.22,.84-.22s.6,.07,.84,.22,.43,.36,.56,.62c.13,.27,.2,.58,.2,.95s-.07,.68-.21,.95-.33,.48-.57,.63-.53,.22-.85,.22Zm0-.47c.2,0,.38-.05,.54-.15s.29-.25,.38-.44c.09-.2,.14-.44,.14-.73s-.05-.54-.14-.74c-.09-.2-.22-.34-.38-.44-.16-.1-.34-.15-.54-.15s-.37,.05-.53,.15c-.16,.1-.29,.24-.38,.44-.1,.2-.14,.44-.14,.74s.05,.54,.14,.73c.09,.2,.22,.35,.38,.44,.16,.1,.34,.15,.53,.15Z"/>
      <path class="cls-32" d="M453.67,352.75v-4.86h.5l.05,.54c.07-.11,.16-.22,.26-.31,.11-.09,.23-.17,.38-.22,.15-.06,.32-.08,.52-.08,.31,0,.58,.08,.81,.23,.23,.16,.41,.37,.54,.64s.2,.58,.2,.93-.06,.65-.2,.92-.31,.48-.55,.64c-.23,.15-.51,.23-.81,.23-.27,0-.5-.05-.7-.16s-.35-.26-.46-.46v1.98h-.55Zm1.64-1.83c.2,0,.39-.05,.54-.16,.16-.11,.29-.26,.38-.46,.09-.2,.14-.43,.14-.7s-.05-.5-.14-.7c-.09-.2-.22-.35-.38-.46-.16-.11-.34-.16-.54-.16-.22,0-.41,.05-.57,.16s-.29,.26-.37,.46c-.09,.2-.13,.43-.13,.7s.04,.5,.13,.7c.09,.2,.21,.35,.37,.46s.35,.16,.57,.16Z"/>
      <path class="cls-32" d="M458.05,347.23c-.11,0-.2-.04-.27-.11-.07-.07-.11-.16-.11-.27s.04-.2,.11-.26c.07-.07,.16-.1,.27-.1s.19,.03,.27,.1c.07,.07,.11,.16,.11,.26s-.04,.2-.11,.27c-.07,.07-.16,.11-.27,.11Zm-.27,4.08v-3.43h.55v3.43h-.55Z"/>
      <path class="cls-32" d="M459.3,351.31v-4.69h.55v4.69h-.55Z"/>
      <path class="cls-32" d="M461.84,351.39c-.26,0-.48-.05-.65-.15s-.3-.23-.39-.39-.13-.34-.13-.52c0-.23,.06-.42,.17-.58,.12-.16,.28-.28,.49-.36,.21-.08,.45-.12,.73-.12h.85c0-.22-.03-.41-.08-.55-.05-.15-.14-.26-.25-.33-.12-.07-.27-.11-.47-.11s-.36,.05-.5,.15c-.14,.1-.23,.24-.26,.43h-.56c.03-.23,.1-.42,.23-.57s.29-.27,.48-.35c.19-.08,.4-.12,.62-.12,.31,0,.56,.06,.76,.17,.2,.11,.35,.27,.44,.46,.1,.2,.14,.43,.14,.7v2.18h-.49l-.03-.59c-.04,.09-.1,.18-.17,.26s-.15,.15-.24,.21c-.09,.06-.2,.11-.31,.14-.12,.03-.24,.05-.38,.05Zm.08-.46c.14,0,.28-.03,.4-.1,.12-.07,.23-.15,.32-.26,.09-.11,.16-.24,.21-.38,.05-.14,.07-.29,.07-.44v-.06h-.81c-.2,0-.37,.03-.5,.08-.13,.05-.22,.12-.28,.22-.06,.09-.08,.2-.08,.32,0,.13,.03,.24,.08,.33,.05,.09,.13,.17,.23,.22,.1,.05,.22,.08,.37,.08Z"/>
      <path class="cls-32" d="M465.78,351.39c-.3,0-.57-.08-.81-.23s-.42-.37-.55-.64c-.13-.27-.2-.58-.2-.92s.07-.66,.2-.92c.13-.27,.31-.48,.55-.63s.51-.23,.82-.23c.27,0,.5,.05,.69,.16,.19,.11,.35,.26,.46,.46v-1.81h.55v4.69h-.5l-.05-.55c-.07,.11-.15,.21-.26,.31s-.23,.17-.38,.23c-.15,.06-.32,.09-.52,.09Zm.07-.48c.22,0,.41-.05,.57-.16s.29-.26,.37-.46c.09-.2,.13-.43,.13-.7s-.04-.5-.13-.7c-.09-.2-.21-.35-.37-.46s-.35-.16-.57-.16c-.2,0-.39,.05-.55,.16-.16,.11-.29,.26-.38,.46-.09,.2-.14,.43-.14,.7s.05,.5,.14,.7c.09,.2,.22,.35,.38,.46,.16,.11,.34,.16,.55,.16Z"/>
      <path class="cls-32" d="M469.89,351.39c-.32,0-.6-.07-.84-.22-.24-.15-.43-.36-.57-.63s-.2-.58-.2-.95,.07-.68,.21-.95c.14-.27,.33-.48,.57-.62,.25-.15,.53-.22,.84-.22s.6,.07,.84,.22,.43,.36,.56,.62c.13,.27,.2,.58,.2,.95s-.07,.68-.21,.95-.33,.48-.57,.63-.53,.22-.85,.22Zm0-.47c.2,0,.38-.05,.54-.15s.29-.25,.38-.44c.09-.2,.14-.44,.14-.73s-.05-.54-.14-.74c-.09-.2-.22-.34-.38-.44-.16-.1-.34-.15-.54-.15s-.37,.05-.53,.15c-.16,.1-.29,.24-.38,.44-.1,.2-.14,.44-.14,.74s.05,.54,.14,.73c.09,.2,.22,.35,.38,.44,.16,.1,.34,.15,.53,.15Z"/>
      <path class="cls-32" d="M473.54,351.39c-.31,0-.56-.05-.77-.14-.2-.09-.36-.22-.46-.39-.1-.17-.17-.36-.19-.58h.56c.02,.12,.06,.23,.12,.32,.06,.1,.16,.18,.28,.24,.12,.06,.28,.09,.46,.09,.15,0,.27-.02,.38-.07,.1-.05,.18-.11,.24-.19,.05-.08,.08-.18,.08-.29,0-.14-.03-.25-.09-.34-.06-.08-.15-.14-.27-.18-.12-.04-.27-.07-.45-.09-.19-.03-.36-.06-.51-.11-.15-.05-.27-.11-.38-.19-.1-.08-.18-.18-.23-.29-.05-.12-.08-.26-.08-.42,0-.19,.05-.35,.15-.5,.1-.14,.24-.25,.43-.33,.18-.08,.4-.12,.66-.12,.37,0,.66,.08,.88,.25,.21,.17,.34,.41,.38,.72h-.54c-.02-.16-.1-.29-.22-.38-.13-.09-.29-.14-.5-.14-.22,0-.39,.04-.5,.12-.11,.08-.17,.19-.17,.33,0,.1,.02,.19,.08,.27,.05,.08,.14,.15,.26,.2,.12,.05,.29,.09,.49,.12,.26,.03,.47,.08,.65,.15,.18,.07,.31,.17,.41,.31,.09,.14,.14,.33,.13,.57,0,.23-.05,.42-.16,.57s-.25,.28-.44,.36c-.19,.08-.41,.12-.66,.12Z"/>
      <path class="cls-32" d="M478.8,351.39c-.3,0-.57-.07-.81-.22-.24-.15-.42-.36-.55-.63-.13-.27-.2-.58-.2-.95s.07-.68,.2-.95c.13-.27,.32-.48,.55-.63s.51-.22,.82-.22c.33,0,.61,.07,.83,.22s.39,.35,.5,.59c.11,.25,.17,.52,.17,.81v.13s0,.1,0,.16h-2.65v-.42h2.13c0-.33-.11-.59-.29-.77-.18-.18-.41-.26-.69-.26-.18,0-.35,.04-.51,.13s-.28,.22-.38,.39-.14,.39-.14,.65v.18c0,.29,.05,.53,.14,.72s.22,.34,.38,.43,.32,.14,.51,.14c.24,0,.43-.05,.57-.14,.14-.09,.24-.23,.31-.4h.54c-.05,.19-.14,.36-.27,.51-.13,.15-.29,.27-.48,.36s-.42,.13-.67,.13Z"/>
      <path class="cls-32" d="M481.07,351.31v-3.43h.5l.03,.54c.1-.2,.25-.35,.43-.46,.19-.11,.41-.16,.66-.16s.47,.05,.66,.14c.19,.1,.33,.24,.44,.44,.1,.2,.16,.44,.16,.74v2.18h-.55v-2.13c0-.3-.08-.53-.22-.68-.15-.15-.35-.23-.6-.23-.17,0-.33,.04-.47,.12-.14,.08-.26,.2-.34,.36s-.13,.35-.13,.57v1.99h-.55Z"/>
      <path class="cls-32" d="M486.17,351.31c-.2,0-.37-.03-.51-.09-.14-.06-.25-.16-.33-.31-.08-.15-.11-.34-.11-.59v-1.98h-.6v-.46h.6l.07-.85h.48v.85h.97v.46h-.97v1.98c0,.2,.04,.34,.12,.41,.08,.07,.23,.11,.44,.11h.4v.47h-.55Z"/>
      <path class="cls-32" d="M487.48,351.31v-3.43h.5l.04,.63c.08-.16,.18-.29,.31-.39,.13-.1,.28-.18,.46-.24,.18-.05,.38-.08,.61-.08v.57h-.34c-.13,0-.26,.02-.38,.05-.12,.04-.23,.09-.33,.17-.1,.08-.18,.18-.23,.32-.06,.13-.08,.3-.08,.51v1.88h-.55Z"/>
      <path class="cls-32" d="M491.32,351.39c-.3,0-.57-.07-.81-.22-.24-.15-.42-.36-.55-.63-.13-.27-.2-.58-.2-.95s.07-.68,.2-.95c.13-.27,.32-.48,.55-.63s.51-.22,.82-.22c.33,0,.61,.07,.83,.22s.39,.35,.5,.59c.11,.25,.17,.52,.17,.81v.13s0,.1,0,.16h-2.65v-.42h2.13c0-.33-.11-.59-.29-.77-.18-.18-.41-.26-.69-.26-.18,0-.35,.04-.51,.13s-.28,.22-.38,.39-.14,.39-.14,.65v.18c0,.29,.05,.53,.14,.72s.22,.34,.38,.43,.32,.14,.51,.14c.24,0,.43-.05,.57-.14,.14-.09,.24-.23,.31-.4h.54c-.05,.19-.14,.36-.27,.51-.13,.15-.29,.27-.48,.36s-.42,.13-.67,.13Z"/>
      <path class="cls-32" d="M387.82,359.22c-.3,0-.57-.07-.81-.22-.24-.15-.42-.36-.55-.63-.13-.27-.2-.58-.2-.95s.07-.68,.2-.95c.13-.27,.32-.48,.55-.63s.51-.22,.82-.22c.33,0,.61,.07,.83,.22s.39,.35,.5,.59c.11,.25,.17,.52,.17,.81v.13s0,.1,0,.16h-2.65v-.42h2.13c0-.33-.11-.59-.29-.77-.18-.18-.41-.26-.69-.26-.18,0-.35,.04-.51,.13s-.28,.22-.38,.39-.14,.39-.14,.65v.18c0,.29,.05,.53,.14,.72s.22,.34,.38,.43,.32,.14,.51,.14c.24,0,.43-.05,.57-.14,.14-.09,.24-.23,.31-.4h.54c-.05,.19-.14,.36-.27,.51-.13,.15-.29,.27-.48,.36s-.42,.13-.67,.13Z"/>
      <path class="cls-32" d="M390.09,359.14v-4.69h.55v4.69h-.55Z"/>
      <path class="cls-32" d="M392.68,360.57v-.47h.25c.17,0,.28-.03,.35-.1s.1-.18,.1-.34v-3.95h.55v3.96c0,.21-.04,.38-.1,.51-.07,.13-.17,.23-.31,.29-.14,.06-.31,.09-.5,.09h-.34Zm.99-5.52c-.11,0-.2-.04-.27-.11s-.11-.16-.11-.27,.04-.2,.11-.26c.07-.07,.16-.1,.27-.1s.19,.03,.26,.1c.07,.07,.11,.16,.11,.26s-.04,.2-.11,.27-.16,.11-.26,.11Z"/>
      <path class="cls-32" d="M396.14,359.22c-.25,0-.47-.05-.66-.14-.19-.1-.33-.24-.44-.44-.1-.2-.16-.44-.16-.74v-2.18h.55v2.13c0,.3,.08,.53,.22,.68,.15,.15,.35,.23,.6,.23,.17,0,.33-.04,.47-.12,.14-.08,.25-.2,.34-.36,.08-.16,.13-.35,.13-.57v-1.99h.55v3.43h-.5l-.03-.55c-.09,.2-.23,.35-.42,.46s-.41,.16-.66,.16Z"/>
      <path class="cls-32" d="M400.09,359.22c-.3,0-.57-.07-.81-.22-.24-.15-.42-.36-.55-.63-.13-.27-.2-.58-.2-.95s.07-.68,.2-.95c.13-.27,.32-.48,.55-.63s.51-.22,.82-.22c.33,0,.61,.07,.83,.22s.39,.35,.5,.59c.11,.25,.17,.52,.17,.81v.13s0,.1,0,.16h-2.65v-.42h2.13c0-.33-.11-.59-.29-.77-.18-.18-.41-.26-.69-.26-.18,0-.35,.04-.51,.13s-.28,.22-.38,.39-.14,.39-.14,.65v.18c0,.29,.05,.53,.14,.72s.22,.34,.38,.43,.32,.14,.51,.14c.24,0,.43-.05,.57-.14,.14-.09,.24-.23,.31-.4h.54c-.05,.19-.14,.36-.27,.51-.13,.15-.29,.27-.48,.36s-.42,.13-.67,.13Z"/>
      <path class="cls-32" d="M403.23,359.14l-1.3-3.43h.58l1.04,2.9,1.05-2.9h.56l-1.3,3.43h-.63Z"/>
      <path class="cls-32" d="M407.03,359.22c-.3,0-.57-.07-.81-.22-.24-.15-.42-.36-.55-.63-.13-.27-.2-.58-.2-.95s.07-.68,.2-.95c.13-.27,.32-.48,.55-.63s.51-.22,.82-.22c.33,0,.61,.07,.83,.22s.39,.35,.5,.59c.11,.25,.17,.52,.17,.81v.13s0,.1,0,.16h-2.65v-.42h2.13c0-.33-.11-.59-.29-.77-.18-.18-.41-.26-.69-.26-.18,0-.35,.04-.51,.13s-.28,.22-.38,.39-.14,.39-.14,.65v.18c0,.29,.05,.53,.14,.72s.22,.34,.38,.43,.32,.14,.51,.14c.24,0,.43-.05,.57-.14,.14-.09,.24-.23,.31-.4h.54c-.05,.19-.14,.36-.27,.51-.13,.15-.29,.27-.48,.36s-.42,.13-.67,.13Z"/>
      <path class="cls-32" d="M410.54,359.22c-.31,0-.56-.05-.77-.14-.2-.09-.36-.22-.46-.39-.1-.17-.17-.36-.19-.58h.56c.02,.12,.06,.23,.12,.32,.06,.1,.16,.18,.28,.24,.12,.06,.28,.09,.46,.09,.15,0,.27-.02,.38-.07,.1-.05,.18-.11,.24-.19,.05-.08,.08-.18,.08-.29,0-.14-.03-.25-.09-.34-.06-.08-.15-.14-.27-.18-.12-.04-.27-.07-.45-.09-.19-.03-.36-.06-.51-.11-.15-.05-.27-.11-.38-.19-.1-.08-.18-.18-.23-.29-.05-.12-.08-.26-.08-.42,0-.19,.05-.35,.15-.5,.1-.14,.24-.25,.43-.33,.18-.08,.4-.12,.66-.12,.37,0,.66,.08,.88,.25,.21,.17,.34,.41,.38,.72h-.54c-.02-.16-.1-.29-.22-.38-.13-.09-.29-.14-.5-.14-.22,0-.39,.04-.5,.12-.11,.08-.17,.19-.17,.33,0,.1,.02,.19,.08,.27,.05,.08,.14,.15,.26,.2,.12,.05,.29,.09,.49,.12,.26,.03,.47,.08,.65,.15,.18,.07,.31,.17,.41,.31,.09,.14,.14,.33,.13,.57,0,.23-.05,.42-.16,.57s-.25,.28-.44,.36c-.19,.08-.41,.12-.66,.12Z"/>
      <path class="cls-32" d="M414.93,359.14l1.67-4.09h-2.5v-.47h3.06v.41l-1.66,4.15h-.58Z"/>
      <path class="cls-32" d="M420.02,360.57l.78-1.8h-.19l-1.28-3.06h.59l1.06,2.64,1.11-2.64h.57l-2.07,4.86h-.57Z"/>
      <path class="cls-32" d="M426.44,359.22c-.3,0-.57-.07-.81-.22-.24-.15-.42-.36-.55-.63-.13-.27-.2-.58-.2-.95s.07-.68,.2-.95c.13-.27,.32-.48,.55-.63s.51-.22,.82-.22c.33,0,.61,.07,.83,.22s.39,.35,.5,.59c.11,.25,.17,.52,.17,.81v.13s0,.1,0,.16h-2.65v-.42h2.13c0-.33-.11-.59-.29-.77-.18-.18-.41-.26-.69-.26-.18,0-.35,.04-.51,.13s-.28,.22-.38,.39-.14,.39-.14,.65v.18c0,.29,.05,.53,.14,.72s.22,.34,.38,.43,.32,.14,.51,.14c.24,0,.43-.05,.57-.14,.14-.09,.24-.23,.31-.4h.54c-.05,.19-.14,.36-.27,.51-.13,.15-.29,.27-.48,.36s-.42,.13-.67,.13Z"/>
      <path class="cls-32" d="M428.71,359.14v-4.69h.55v4.69h-.55Z"/>
      <path class="cls-32" d="M433.18,359.22c-.31,0-.56-.05-.77-.14-.2-.09-.36-.22-.46-.39-.1-.17-.17-.36-.19-.58h.56c.02,.12,.06,.23,.12,.32,.06,.1,.16,.18,.28,.24,.12,.06,.28,.09,.46,.09,.15,0,.27-.02,.38-.07,.1-.05,.18-.11,.24-.19,.05-.08,.08-.18,.08-.29,0-.14-.03-.25-.09-.34-.06-.08-.15-.14-.27-.18-.12-.04-.27-.07-.45-.09-.19-.03-.36-.06-.51-.11-.15-.05-.27-.11-.38-.19-.1-.08-.18-.18-.23-.29-.05-.12-.08-.26-.08-.42,0-.19,.05-.35,.15-.5,.1-.14,.24-.25,.43-.33,.18-.08,.4-.12,.66-.12,.37,0,.66,.08,.88,.25,.21,.17,.34,.41,.38,.72h-.54c-.02-.16-.1-.29-.22-.38-.13-.09-.29-.14-.5-.14-.22,0-.39,.04-.5,.12-.11,.08-.17,.19-.17,.33,0,.1,.02,.19,.08,.27,.05,.08,.14,.15,.26,.2,.12,.05,.29,.09,.49,.12,.26,.03,.47,.08,.65,.15,.18,.07,.31,.17,.41,.31,.09,.14,.14,.33,.13,.57,0,.23-.05,.42-.16,.57s-.25,.28-.44,.36c-.19,.08-.41,.12-.66,.12Z"/>
      <path class="cls-32" d="M436.33,359.22c-.26,0-.48-.05-.65-.15s-.3-.23-.39-.39-.13-.34-.13-.52c0-.23,.06-.42,.17-.58,.12-.16,.28-.28,.49-.36,.21-.08,.45-.12,.73-.12h.85c0-.22-.03-.41-.08-.55-.05-.15-.14-.26-.25-.33-.12-.07-.27-.11-.47-.11s-.36,.05-.5,.15c-.14,.1-.23,.24-.26,.43h-.56c.03-.23,.1-.42,.23-.57s.29-.27,.48-.35c.19-.08,.4-.12,.62-.12,.31,0,.56,.06,.76,.17,.2,.11,.35,.27,.44,.46,.1,.2,.14,.43,.14,.7v2.18h-.49l-.03-.59c-.04,.09-.1,.18-.17,.26s-.15,.15-.24,.21c-.09,.06-.2,.11-.31,.14-.12,.03-.24,.05-.38,.05Zm.08-.46c.14,0,.28-.03,.4-.1,.12-.07,.23-.15,.32-.26,.09-.11,.16-.24,.21-.38,.05-.14,.07-.29,.07-.44v-.06h-.81c-.2,0-.37,.03-.5,.08-.13,.05-.22,.12-.28,.22-.06,.09-.08,.2-.08,.32,0,.13,.03,.24,.08,.33,.05,.09,.13,.17,.23,.22,.1,.05,.22,.08,.37,.08Zm-.35-3.33l-.23-.35,1.14-.83,.31,.44-1.22,.74Z"/>
      <path class="cls-32" d="M440.56,359.22c-.21,0-.39-.03-.54-.09-.15-.06-.28-.14-.38-.24-.1-.1-.19-.19-.25-.28l-.05,.53h-.5v-4.69h.55v1.81c.1-.2,.26-.36,.46-.46s.43-.16,.68-.16c.31,0,.59,.08,.82,.23,.24,.15,.42,.36,.55,.63s.2,.58,.2,.92-.06,.65-.2,.93c-.13,.27-.31,.49-.54,.65-.23,.16-.5,.23-.81,.23Zm-.07-.48c.2,0,.39-.05,.54-.16,.16-.11,.29-.26,.38-.46,.09-.2,.14-.43,.14-.7s-.05-.5-.14-.7c-.09-.2-.22-.35-.38-.46-.16-.11-.34-.16-.54-.16-.22,0-.41,.05-.57,.16s-.29,.26-.37,.46c-.09,.2-.13,.43-.13,.7s.04,.5,.13,.7c.09,.2,.21,.35,.37,.46s.35,.16,.57,.16Z"/>
      <path class="cls-32" d="M443.98,359.22c-.26,0-.48-.05-.65-.15s-.3-.23-.39-.39-.13-.34-.13-.52c0-.23,.06-.42,.17-.58,.12-.16,.28-.28,.49-.36,.21-.08,.45-.12,.73-.12h.85c0-.22-.03-.41-.08-.55-.05-.15-.14-.26-.25-.33-.12-.07-.27-.11-.47-.11s-.36,.05-.5,.15c-.14,.1-.23,.24-.26,.43h-.56c.03-.23,.1-.42,.23-.57s.29-.27,.48-.35c.19-.08,.4-.12,.62-.12,.31,0,.56,.06,.76,.17,.2,.11,.35,.27,.44,.46,.1,.2,.14,.43,.14,.7v2.18h-.49l-.03-.59c-.04,.09-.1,.18-.17,.26s-.15,.15-.24,.21c-.09,.06-.2,.11-.31,.14-.12,.03-.24,.05-.38,.05Zm.08-.46c.14,0,.28-.03,.4-.1,.12-.07,.23-.15,.32-.26,.09-.11,.16-.24,.21-.38,.05-.14,.07-.29,.07-.44v-.06h-.81c-.2,0-.37,.03-.5,.08-.13,.05-.22,.12-.28,.22-.06,.09-.08,.2-.08,.32,0,.13,.03,.24,.08,.33,.05,.09,.13,.17,.23,.22,.1,.05,.22,.08,.37,.08Z"/>
      <path class="cls-32" d="M447.91,359.22c-.3,0-.57-.08-.81-.23s-.42-.37-.55-.64c-.13-.27-.2-.58-.2-.92s.07-.66,.2-.92c.13-.27,.31-.48,.55-.63s.51-.23,.82-.23c.27,0,.5,.05,.69,.16,.19,.11,.35,.26,.46,.46v-1.81h.55v4.69h-.5l-.05-.55c-.07,.11-.15,.21-.26,.31s-.23,.17-.38,.23c-.15,.06-.32,.09-.52,.09Zm.07-.48c.22,0,.41-.05,.57-.16s.29-.26,.37-.46c.09-.2,.13-.43,.13-.7s-.04-.5-.13-.7c-.09-.2-.21-.35-.37-.46s-.35-.16-.57-.16c-.2,0-.39,.05-.55,.16-.16,.11-.29,.26-.38,.46-.09,.2-.14,.43-.14,.7s.05,.5,.14,.7c.09,.2,.22,.35,.38,.46,.16,.11,.34,.16,.55,.16Z"/>
      <path class="cls-32" d="M452.02,359.22c-.32,0-.6-.07-.84-.22-.24-.15-.43-.36-.57-.63s-.2-.58-.2-.95,.07-.68,.21-.95c.14-.27,.33-.48,.57-.62,.25-.15,.53-.22,.84-.22s.6,.07,.84,.22,.43,.36,.56,.62c.13,.27,.2,.58,.2,.95s-.07,.68-.21,.95-.33,.48-.57,.63-.53,.22-.85,.22Zm0-.47c.2,0,.38-.05,.54-.15s.29-.25,.38-.44c.09-.2,.14-.44,.14-.73s-.05-.54-.14-.74c-.09-.2-.22-.34-.38-.44-.16-.1-.34-.15-.54-.15s-.37,.05-.53,.15c-.16,.1-.29,.24-.38,.44-.1,.2-.14,.44-.14,.74s.05,.54,.14,.73c.09,.2,.22,.35,.38,.44,.16,.1,.34,.15,.53,.15Z"/>
      <path class="cls-32" d="M457.67,359.22c-.28,0-.53-.05-.73-.16-.21-.11-.37-.25-.49-.44-.12-.18-.19-.38-.23-.6h.51c.05,.23,.15,.41,.32,.53s.37,.19,.63,.19c.23,0,.43-.07,.61-.21,.17-.14,.31-.34,.42-.62,.11-.28,.17-.62,.19-1.05,0-.03,0-.05,0-.08v-.08c-.06,.14-.15,.27-.27,.38-.12,.12-.27,.21-.44,.28-.17,.07-.36,.11-.58,.11-.25,0-.49-.06-.71-.18-.22-.12-.4-.29-.53-.51-.13-.22-.2-.48-.2-.77,0-.26,.06-.5,.19-.74s.3-.43,.53-.57c.23-.15,.5-.22,.8-.22,.33,0,.6,.06,.83,.18,.22,.12,.4,.29,.53,.49,.13,.21,.23,.44,.29,.7,.06,.26,.09,.53,.09,.8,0,.5-.07,.94-.21,1.32-.14,.38-.33,.68-.59,.9-.26,.21-.58,.32-.95,.32Zm.04-2.2c.2,0,.37-.04,.53-.13,.16-.09,.28-.21,.38-.37,.09-.15,.14-.33,.14-.52s-.05-.38-.14-.54c-.09-.15-.22-.27-.38-.35-.16-.08-.33-.13-.53-.13s-.36,.04-.51,.13c-.15,.09-.27,.21-.36,.36s-.13,.33-.13,.54,.04,.38,.13,.53,.21,.27,.36,.36c.15,.08,.32,.13,.51,.13Z"/>
      <path class="cls-32" d="M463.43,359.22c-.3,0-.57-.08-.81-.23s-.42-.37-.55-.64c-.13-.27-.2-.58-.2-.92s.07-.66,.2-.92c.13-.27,.31-.48,.55-.63s.51-.23,.82-.23c.27,0,.5,.05,.69,.16,.19,.11,.35,.26,.46,.46v-1.81h.55v4.69h-.5l-.05-.55c-.07,.11-.15,.21-.26,.31s-.23,.17-.38,.23c-.15,.06-.32,.09-.52,.09Zm.07-.48c.22,0,.41-.05,.57-.16s.29-.26,.37-.46c.09-.2,.13-.43,.13-.7s-.04-.5-.13-.7c-.09-.2-.21-.35-.37-.46s-.35-.16-.57-.16c-.2,0-.39,.05-.55,.16-.16,.11-.29,.26-.38,.46-.09,.2-.14,.43-.14,.7s.05,.5,.14,.7c.09,.2,.22,.35,.38,.46,.16,.11,.34,.16,.55,.16Z"/>
      <path class="cls-32" d="M467.49,359.22c-.3,0-.57-.07-.81-.22-.24-.15-.42-.36-.55-.63-.13-.27-.2-.58-.2-.95s.07-.68,.2-.95c.13-.27,.32-.48,.55-.63s.51-.22,.82-.22c.33,0,.61,.07,.83,.22s.39,.35,.5,.59c.11,.25,.17,.52,.17,.81v.13s0,.1,0,.16h-2.65v-.42h2.13c0-.33-.11-.59-.29-.77-.18-.18-.41-.26-.69-.26-.18,0-.35,.04-.51,.13s-.28,.22-.38,.39-.14,.39-.14,.65v.18c0,.29,.05,.53,.14,.72s.22,.34,.38,.43,.32,.14,.51,.14c.24,0,.43-.05,.57-.14,.14-.09,.24-.23,.31-.4h.54c-.05,.19-.14,.36-.27,.51-.13,.15-.29,.27-.48,.36s-.42,.13-.67,.13Z"/>
      <path class="cls-32" d="M472.58,359.22c-.26,0-.48-.05-.65-.15s-.3-.23-.39-.39-.13-.34-.13-.52c0-.23,.06-.42,.17-.58,.12-.16,.28-.28,.49-.36,.21-.08,.45-.12,.73-.12h.85c0-.22-.03-.41-.08-.55-.05-.15-.14-.26-.25-.33-.12-.07-.27-.11-.47-.11s-.36,.05-.5,.15c-.14,.1-.23,.24-.26,.43h-.56c.03-.23,.1-.42,.23-.57s.29-.27,.48-.35c.19-.08,.4-.12,.62-.12,.31,0,.56,.06,.76,.17,.2,.11,.35,.27,.44,.46,.1,.2,.14,.43,.14,.7v2.18h-.49l-.03-.59c-.04,.09-.1,.18-.17,.26s-.15,.15-.24,.21c-.09,.06-.2,.11-.31,.14-.12,.03-.24,.05-.38,.05Zm.08-.46c.14,0,.28-.03,.4-.1,.12-.07,.23-.15,.32-.26,.09-.11,.16-.24,.21-.38,.05-.14,.07-.29,.07-.44v-.06h-.81c-.2,0-.37,.03-.5,.08-.13,.05-.22,.12-.28,.22-.06,.09-.08,.2-.08,.32,0,.13,.03,.24,.08,.33,.05,.09,.13,.17,.23,.22,.1,.05,.22,.08,.37,.08Z"/>
      <path class="cls-32" d="M476.45,360.65c-.31,0-.58-.04-.81-.11s-.41-.19-.54-.35-.19-.35-.19-.58c0-.11,.02-.22,.06-.34,.04-.12,.11-.23,.22-.34,.1-.11,.25-.21,.43-.29l.42,.22c-.25,.1-.41,.21-.48,.33s-.11,.25-.11,.37c0,.14,.04,.26,.13,.36,.08,.09,.2,.17,.36,.21,.15,.05,.33,.07,.53,.07s.36-.02,.51-.08c.14-.05,.25-.12,.33-.21,.08-.09,.11-.2,.11-.33,0-.18-.06-.33-.18-.43-.12-.1-.35-.16-.68-.18-.26-.02-.49-.04-.67-.07-.18-.03-.33-.07-.44-.11-.12-.04-.21-.09-.29-.14s-.14-.11-.21-.16v-.15l.65-.62,.52,.17-.7,.58,.08-.25s.09,.07,.14,.1c.04,.03,.1,.06,.18,.08,.08,.02,.18,.05,.32,.07,.14,.02,.32,.04,.54,.06,.31,.02,.56,.07,.75,.16,.19,.08,.32,.2,.4,.34,.08,.15,.12,.32,.12,.53,0,.18-.05,.36-.15,.52-.1,.17-.26,.3-.48,.41-.22,.11-.5,.16-.85,.16Zm0-2.58c-.28,0-.51-.05-.71-.16-.19-.11-.34-.25-.44-.44-.1-.18-.15-.39-.15-.62s.05-.44,.15-.62,.25-.33,.44-.44,.43-.16,.7-.16,.52,.05,.71,.16c.19,.11,.34,.25,.44,.44,.1,.18,.15,.39,.15,.62s-.05,.44-.15,.62c-.1,.18-.25,.33-.44,.44-.19,.11-.43,.16-.71,.16Zm0-.45c.24,0,.43-.06,.57-.19,.13-.13,.2-.32,.2-.58s-.07-.45-.2-.57c-.13-.13-.32-.19-.57-.19-.23,0-.42,.06-.56,.19s-.22,.32-.22,.57,.07,.45,.21,.58c.14,.13,.33,.19,.57,.19Zm.57-1.45l-.16-.46h1.34v.41l-1.18,.05Z"/>
      <path class="cls-32" d="M480.19,359.22c-.32,0-.6-.07-.84-.22-.24-.15-.43-.36-.57-.63s-.2-.58-.2-.95,.07-.68,.21-.95c.14-.27,.33-.48,.57-.62,.25-.15,.53-.22,.84-.22s.6,.07,.84,.22,.43,.36,.56,.62c.13,.27,.2,.58,.2,.95s-.07,.68-.21,.95-.33,.48-.57,.63-.53,.22-.85,.22Zm0-.47c.2,0,.38-.05,.54-.15s.29-.25,.38-.44c.09-.2,.14-.44,.14-.73s-.05-.54-.14-.74c-.09-.2-.22-.34-.38-.44-.16-.1-.34-.15-.54-.15s-.37,.05-.53,.15c-.16,.1-.29,.24-.38,.44-.1,.2-.14,.44-.14,.74s.05,.54,.14,.73c.09,.2,.22,.35,.38,.44,.16,.1,.34,.15,.53,.15Z"/>
      <path class="cls-32" d="M483.85,359.22c-.31,0-.56-.05-.77-.14-.2-.09-.36-.22-.46-.39-.1-.17-.17-.36-.19-.58h.56c.02,.12,.06,.23,.12,.32,.06,.1,.16,.18,.28,.24,.12,.06,.28,.09,.46,.09,.15,0,.27-.02,.38-.07,.1-.05,.18-.11,.24-.19,.05-.08,.08-.18,.08-.29,0-.14-.03-.25-.09-.34-.06-.08-.15-.14-.27-.18-.12-.04-.27-.07-.45-.09-.19-.03-.36-.06-.51-.11-.15-.05-.27-.11-.38-.19-.1-.08-.18-.18-.23-.29-.05-.12-.08-.26-.08-.42,0-.19,.05-.35,.15-.5,.1-.14,.24-.25,.43-.33,.18-.08,.4-.12,.66-.12,.37,0,.66,.08,.88,.25,.21,.17,.34,.41,.38,.72h-.54c-.02-.16-.1-.29-.22-.38-.13-.09-.29-.14-.5-.14-.22,0-.39,.04-.5,.12-.11,.08-.17,.19-.17,.33,0,.1,.02,.19,.08,.27,.05,.08,.14,.15,.26,.2,.12,.05,.29,.09,.49,.12,.26,.03,.47,.08,.65,.15,.18,.07,.31,.17,.41,.31,.09,.14,.14,.33,.13,.57,0,.23-.05,.42-.16,.57s-.25,.28-.44,.36c-.19,.08-.41,.12-.66,.12Z"/>
      <path class="cls-32" d="M487.12,359.14c-.2,0-.37-.03-.51-.09-.14-.06-.25-.16-.33-.31-.08-.15-.11-.34-.11-.59v-1.98h-.6v-.46h.6l.07-.85h.48v.85h.97v.46h-.97v1.98c0,.2,.04,.34,.12,.41,.08,.07,.23,.11,.44,.11h.4v.47h-.55Z"/>
      <path class="cls-32" d="M489.82,359.22c-.32,0-.6-.07-.84-.22-.24-.15-.43-.36-.57-.63s-.2-.58-.2-.95,.07-.68,.21-.95c.14-.27,.33-.48,.57-.62,.25-.15,.53-.22,.84-.22s.6,.07,.84,.22,.43,.36,.56,.62c.13,.27,.2,.58,.2,.95s-.07,.68-.21,.95-.33,.48-.57,.63-.53,.22-.85,.22Zm0-.47c.2,0,.38-.05,.54-.15s.29-.25,.38-.44c.09-.2,.14-.44,.14-.73s-.05-.54-.14-.74c-.09-.2-.22-.34-.38-.44-.16-.1-.34-.15-.54-.15s-.37,.05-.53,.15c-.16,.1-.29,.24-.38,.44-.1,.2-.14,.44-.14,.74s.05,.54,.14,.73c.09,.2,.22,.35,.38,.44,.16,.1,.34,.15,.53,.15Z"/>
      <path class="cls-32" d="M492.45,359.17c-.1,0-.19-.04-.26-.11-.07-.07-.11-.16-.11-.26s.04-.19,.11-.26c.07-.07,.16-.11,.26-.11,.11,0,.2,.04,.27,.11,.07,.07,.1,.16,.1,.26s-.03,.19-.1,.26c-.07,.07-.16,.11-.27,.11Z"/>
    </g>
    <g>
      <path class="cls-33" d="M34,44.22v-11.2h3.3c1.31,0,2.39,.23,3.25,.68,.85,.45,1.49,1.1,1.9,1.94,.41,.84,.62,1.84,.62,3.02s-.21,2.14-.62,2.98c-.41,.83-1.04,1.47-1.9,1.92s-1.94,.67-3.25,.67h-3.3Zm1.34-1.12h1.92c1.09,0,1.96-.18,2.6-.54,.64-.36,1.11-.87,1.38-1.54,.28-.67,.42-1.46,.42-2.38s-.14-1.74-.42-2.42c-.28-.67-.74-1.19-1.38-1.55-.65-.36-1.51-.54-2.6-.54h-1.92v8.96Z"/>
      <path class="cls-33" d="M45.73,34.44c-.27,0-.49-.09-.66-.26s-.26-.4-.26-.66,.09-.48,.26-.65c.18-.17,.4-.25,.66-.25s.47,.08,.66,.25c.18,.17,.27,.38,.27,.65s-.09,.49-.27,.66c-.18,.18-.4,.26-.66,.26Zm-.67,9.78v-8.06h1.34v8.06h-1.34Z"/>
      <path class="cls-33" d="M51.81,44.41c-.66,0-1.24-.11-1.74-.34-.5-.22-.9-.54-1.19-.94-.29-.4-.47-.87-.54-1.42h1.38c.05,.28,.17,.53,.34,.77,.17,.23,.4,.42,.7,.57,.29,.14,.65,.22,1.08,.22,.37,0,.68-.06,.93-.17,.25-.11,.43-.26,.55-.46,.12-.19,.18-.4,.18-.62,0-.33-.08-.58-.23-.75-.16-.17-.38-.31-.68-.41-.3-.1-.66-.19-1.09-.26-.35-.06-.7-.15-1.04-.26-.34-.11-.65-.25-.91-.42s-.48-.39-.63-.65-.23-.57-.23-.94c0-.46,.12-.87,.36-1.22s.58-.64,1.02-.84c.44-.2,.95-.3,1.54-.3,.86,0,1.56,.21,2.1,.62,.53,.42,.85,1.02,.94,1.81h-1.33c-.05-.41-.23-.72-.52-.95-.29-.23-.7-.34-1.21-.34s-.88,.1-1.14,.3c-.26,.2-.39,.47-.39,.8,0,.21,.07,.4,.22,.57,.14,.17,.36,.31,.65,.42,.29,.12,.63,.21,1.04,.29,.53,.1,1.02,.22,1.46,.38,.44,.16,.79,.4,1.06,.71,.27,.31,.41,.76,.41,1.34,0,.5-.12,.94-.38,1.31-.25,.37-.61,.66-1.06,.87-.46,.21-1,.31-1.62,.31Z"/>
      <path class="cls-33" d="M59.62,44.22c-.48,0-.9-.07-1.25-.22s-.62-.4-.81-.76c-.19-.36-.28-.84-.28-1.45v-4.5h-1.41v-1.14h1.41l.18-1.95h1.17v1.95h2.34v1.14h-2.34v4.5c0,.5,.1,.84,.3,1.02,.2,.18,.56,.26,1.07,.26h.86v1.15h-1.25Z"/>
      <path class="cls-33" d="M62.72,44.22v-8.06h1.22l.1,1.54c.18-.36,.41-.67,.7-.93s.62-.45,1.02-.59c.4-.14,.86-.21,1.37-.21v1.41h-.5c-.34,0-.67,.04-.98,.14s-.58,.24-.82,.44c-.24,.2-.43,.48-.56,.82-.13,.35-.2,.78-.2,1.29v4.16h-1.34Z"/>
      <path class="cls-33" d="M69.44,34.44c-.27,0-.49-.09-.66-.26s-.26-.4-.26-.66,.09-.48,.26-.65c.18-.17,.4-.25,.66-.25s.47,.08,.66,.25c.18,.17,.27,.38,.27,.65s-.09,.49-.27,.66c-.18,.18-.4,.26-.66,.26Zm-.67,9.78v-8.06h1.34v8.06h-1.34Z"/>
      <path class="cls-33" d="M76.7,44.41c-.46,0-.87-.07-1.24-.2-.37-.13-.69-.31-.97-.54s-.51-.49-.69-.78l-.11,1.33h-1.22v-11.52h1.34v4.78c.26-.42,.62-.77,1.1-1.07,.48-.3,1.07-.45,1.78-.45,.79,0,1.47,.18,2.06,.55,.58,.37,1.03,.87,1.36,1.5s.49,1.36,.49,2.17-.16,1.54-.49,2.18c-.33,.64-.78,1.14-1.37,1.5-.59,.36-1.27,.54-2.05,.54Zm-.16-1.17c.53,0,1-.13,1.41-.38,.41-.26,.72-.61,.95-1.06s.34-.99,.34-1.61-.11-1.14-.34-1.6-.55-.82-.95-1.07-.88-.38-1.41-.38-1,.13-1.41,.38c-.41,.26-.72,.61-.94,1.07s-.34,.99-.34,1.6,.11,1.16,.34,1.61,.54,.81,.94,1.06c.41,.26,.87,.38,1.41,.38Z"/>
      <path class="cls-33" d="M85.44,44.41c-.62,0-1.16-.12-1.62-.37s-.82-.62-1.07-1.14c-.25-.51-.38-1.15-.38-1.92v-4.83h1.34v4.69c0,.8,.18,1.4,.53,1.81,.35,.41,.85,.61,1.49,.61,.45,0,.85-.11,1.22-.33s.65-.53,.86-.94c.21-.41,.31-.92,.31-1.53v-4.3h1.34v8.06h-1.22l-.08-1.41c-.25,.5-.61,.89-1.09,1.18-.48,.28-1.02,.42-1.63,.42Z"/>
      <path class="cls-33" d="M95.31,44.41c-.76,0-1.44-.18-2.04-.53-.6-.35-1.07-.85-1.42-1.48-.34-.63-.51-1.37-.51-2.2s.17-1.59,.51-2.22c.34-.63,.81-1.12,1.42-1.48s1.28-.54,2.04-.54c.96,0,1.76,.25,2.4,.74,.64,.5,1.04,1.16,1.22,1.99h-1.38c-.11-.5-.37-.89-.78-1.17-.42-.28-.91-.42-1.47-.42-.46,0-.88,.11-1.27,.34s-.7,.57-.94,1.03c-.24,.46-.36,1.02-.36,1.7,0,.5,.07,.95,.21,1.34,.14,.39,.33,.71,.56,.97,.23,.26,.51,.45,.82,.58,.31,.13,.64,.2,.98,.2,.38,0,.73-.06,1.04-.18,.31-.12,.57-.31,.78-.55,.21-.25,.36-.53,.43-.86h1.38c-.17,.81-.58,1.47-1.22,1.98-.65,.51-1.44,.76-2.39,.76Z"/>
      <path class="cls-33" d="M101.63,34.44c-.27,0-.49-.09-.66-.26s-.26-.4-.26-.66,.09-.48,.26-.65c.18-.17,.4-.25,.66-.25s.47,.08,.66,.25c.18,.17,.27,.38,.27,.65s-.09,.49-.27,.66c-.18,.18-.4,.26-.66,.26Zm-.67,9.78v-8.06h1.34v8.06h-1.34Z"/>
      <path class="cls-33" d="M108.27,44.41c-.75,0-1.42-.17-2.02-.52-.6-.35-1.07-.84-1.41-1.47s-.51-1.37-.51-2.22,.17-1.61,.52-2.25,.82-1.13,1.42-1.47c.6-.35,1.28-.52,2.02-.52s1.45,.17,2.04,.52c.59,.35,1.06,.84,1.41,1.47s.52,1.38,.52,2.23-.18,1.6-.53,2.23c-.35,.63-.83,1.12-1.42,1.47-.6,.35-1.28,.52-2.05,.52Zm.02-1.15c.46,0,.88-.11,1.28-.34s.71-.57,.96-1.03c.25-.46,.37-1.02,.37-1.7s-.12-1.25-.36-1.7c-.24-.45-.55-.79-.94-1.02s-.82-.34-1.29-.34-.87,.11-1.27,.34c-.4,.23-.72,.57-.96,1.02-.24,.45-.36,1.02-.36,1.7s.12,1.24,.36,1.7c.24,.46,.55,.8,.94,1.03s.81,.34,1.27,.34Zm-1.54-7.79l-.14-.96,3.22-2.05,.19,1.15-3.26,1.86Z"/>
      <path class="cls-33" d="M114.16,44.22v-8.06h1.22l.06,1.41c.26-.5,.62-.89,1.1-1.18,.47-.28,1.02-.42,1.62-.42s1.17,.12,1.63,.38,.82,.63,1.07,1.14,.38,1.15,.38,1.93v4.82h-1.34v-4.67c0-.81-.18-1.42-.54-1.82s-.86-.61-1.51-.61c-.45,0-.85,.11-1.2,.33-.35,.22-.63,.53-.84,.94-.21,.41-.31,.92-.31,1.53v4.3h-1.34Z"/>
      <path class="cls-33" d="M127.6,44.22v-8.06h1.22l.1,1.54c.18-.36,.41-.67,.7-.93s.62-.45,1.02-.59c.4-.14,.86-.21,1.37-.21v1.41h-.5c-.34,0-.67,.04-.98,.14s-.58,.24-.82,.44c-.24,.2-.43,.48-.56,.82-.13,.35-.2,.78-.2,1.29v4.16h-1.34Z"/>
      <path class="cls-33" d="M136.14,44.41c-.65,0-1.2-.12-1.63-.34-.44-.23-.76-.53-.98-.91-.21-.38-.32-.79-.32-1.24,0-.54,.14-1.01,.42-1.38,.28-.38,.68-.67,1.2-.86,.52-.2,1.13-.3,1.83-.3h2.13c0-.5-.08-.92-.23-1.26-.15-.34-.38-.59-.67-.76-.29-.17-.66-.26-1.1-.26-.51,0-.96,.13-1.33,.38-.37,.26-.6,.63-.69,1.14h-1.38c.06-.58,.26-1.06,.58-1.45s.74-.69,1.24-.9c.5-.21,1.02-.31,1.57-.31,.75,0,1.37,.14,1.86,.41,.5,.27,.87,.65,1.11,1.14s.37,1.06,.37,1.72v4.99h-1.2l-.08-1.42c-.11,.22-.24,.43-.41,.63-.17,.2-.36,.37-.58,.51-.22,.14-.47,.26-.76,.34-.29,.08-.61,.13-.98,.13Zm.21-1.14c.37,0,.71-.08,1.02-.23,.3-.15,.56-.37,.78-.64,.21-.27,.38-.57,.49-.9,.11-.33,.17-.68,.17-1.04v-.05h-2.02c-.52,0-.94,.06-1.26,.18-.32,.12-.55,.29-.69,.51-.14,.22-.21,.47-.21,.74s.07,.54,.2,.75c.13,.21,.33,.38,.59,.5,.26,.12,.57,.18,.94,.18Z"/>
      <path class="cls-33" d="M145.79,44.41c-.78,0-1.46-.18-2.06-.55-.59-.37-1.05-.87-1.37-1.51-.32-.64-.48-1.37-.48-2.18s.16-1.53,.48-2.17c.32-.63,.78-1.13,1.37-1.5s1.28-.54,2.07-.54c.65,0,1.22,.13,1.72,.4,.5,.27,.88,.64,1.16,1.12v-4.78h1.34v11.52h-1.22l-.13-1.33c-.17,.27-.39,.51-.66,.74s-.58,.42-.95,.56c-.37,.14-.8,.22-1.29,.22Zm.14-1.17c.53,0,1-.13,1.41-.38,.41-.26,.72-.61,.95-1.06,.23-.45,.34-.99,.34-1.61s-.12-1.14-.34-1.6c-.23-.46-.55-.82-.95-1.07s-.88-.38-1.41-.38-.97,.13-1.38,.38c-.41,.26-.73,.61-.95,1.07s-.34,.99-.34,1.6,.11,1.16,.34,1.61,.54,.81,.95,1.06c.41,.26,.87,.38,1.38,.38Z"/>
      <path class="cls-33" d="M153.05,34.44c-.27,0-.49-.09-.66-.26s-.26-.4-.26-.66,.09-.48,.26-.65c.18-.17,.4-.25,.66-.25s.47,.08,.66,.25c.18,.17,.27,.38,.27,.65s-.09,.49-.27,.66c-.18,.18-.4,.26-.66,.26Zm-.67,9.78v-8.06h1.34v8.06h-1.34Z"/>
      <path class="cls-33" d="M158.72,44.41c-.65,0-1.2-.12-1.63-.34-.44-.23-.76-.53-.98-.91-.21-.38-.32-.79-.32-1.24,0-.54,.14-1.01,.42-1.38,.28-.38,.68-.67,1.2-.86,.52-.2,1.13-.3,1.83-.3h2.13c0-.5-.08-.92-.23-1.26-.15-.34-.38-.59-.67-.76-.29-.17-.66-.26-1.1-.26-.51,0-.96,.13-1.33,.38-.37,.26-.6,.63-.69,1.14h-1.38c.06-.58,.26-1.06,.58-1.45s.74-.69,1.24-.9c.5-.21,1.02-.31,1.57-.31,.75,0,1.37,.14,1.86,.41,.5,.27,.87,.65,1.11,1.14s.37,1.06,.37,1.72v4.99h-1.2l-.08-1.42c-.11,.22-.24,.43-.41,.63-.17,.2-.36,.37-.58,.51-.22,.14-.47,.26-.76,.34-.29,.08-.61,.13-.98,.13Zm.21-1.14c.37,0,.71-.08,1.02-.23,.3-.15,.56-.37,.78-.64,.21-.27,.38-.57,.49-.9,.11-.33,.17-.68,.17-1.04v-.05h-2.02c-.52,0-.94,.06-1.26,.18-.32,.12-.55,.29-.69,.51-.14,.22-.21,.47-.21,.74s.07,.54,.2,.75c.13,.21,.33,.38,.59,.5,.26,.12,.57,.18,.94,.18Z"/>
      <path class="cls-33" d="M164.8,44.22v-11.52h1.34v11.52h-1.34Z"/>
      <path class="cls-33" d="M176.19,44.41c-.78,0-1.46-.18-2.06-.55-.59-.37-1.05-.87-1.37-1.51-.32-.64-.48-1.37-.48-2.18s.16-1.53,.48-2.17c.32-.63,.78-1.13,1.37-1.5s1.28-.54,2.07-.54c.65,0,1.22,.13,1.72,.4,.5,.27,.88,.64,1.16,1.12v-4.78h1.34v11.52h-1.22l-.13-1.33c-.17,.27-.39,.51-.66,.74s-.58,.42-.95,.56c-.37,.14-.8,.22-1.29,.22Zm.14-1.17c.53,0,1-.13,1.41-.38,.41-.26,.72-.61,.95-1.06,.23-.45,.34-.99,.34-1.61s-.12-1.14-.34-1.6c-.23-.46-.55-.82-.95-1.07s-.88-.38-1.41-.38-.97,.13-1.38,.38c-.41,.26-.73,.61-.95,1.07s-.34,.99-.34,1.6,.11,1.16,.34,1.61,.54,.81,.95,1.06c.41,.26,.87,.38,1.38,.38Z"/>
      <path class="cls-33" d="M186.19,44.41c-.75,0-1.41-.18-2-.53-.59-.35-1.05-.85-1.38-1.48-.33-.63-.5-1.37-.5-2.22s.16-1.59,.49-2.22c.33-.63,.78-1.12,1.38-1.47,.59-.35,1.27-.53,2.04-.53s1.46,.18,2.02,.53c.55,.35,.98,.81,1.27,1.38,.29,.57,.44,1.2,.44,1.88v.34c0,.12,0,.25-.02,.4h-6.61v-1.04h5.3c-.03-.74-.27-1.31-.73-1.73-.45-.42-1.02-.62-1.7-.62-.45,0-.87,.1-1.26,.31s-.71,.51-.94,.91c-.24,.4-.35,.9-.35,1.5v.45c0,.66,.12,1.22,.36,1.66s.55,.78,.94,1.01c.39,.22,.81,.34,1.26,.34,.57,0,1.03-.12,1.4-.38,.37-.25,.64-.59,.81-1.03h1.33c-.14,.49-.37,.92-.69,1.3s-.72,.68-1.19,.9c-.47,.22-1.03,.34-1.66,.34Z"/>
      <path class="cls-33" d="M199.84,44.41c-.81,0-1.53-.18-2.16-.54-.63-.36-1.12-.86-1.47-1.49-.35-.63-.53-1.35-.53-2.16s.18-1.57,.53-2.2c.35-.63,.84-1.14,1.47-1.5,.63-.37,1.35-.55,2.16-.55,1.03,0,1.9,.27,2.61,.82s1.15,1.29,1.34,2.24h-2.29c-.1-.37-.3-.67-.6-.88-.3-.21-.66-.32-1.08-.32-.37,0-.71,.09-1,.28-.29,.19-.52,.46-.69,.82s-.25,.78-.25,1.27c0,.37,.05,.71,.14,1,.1,.29,.23,.54,.4,.75s.38,.37,.62,.47,.5,.16,.78,.16,.53-.05,.76-.14,.42-.23,.58-.41,.27-.39,.34-.65h2.29c-.19,.93-.64,1.67-1.35,2.22-.71,.55-1.58,.82-2.6,.82Z"/>
      <path class="cls-33" d="M206.78,35.05c-.38,0-.7-.11-.95-.34-.25-.23-.38-.52-.38-.87s.12-.64,.38-.87c.25-.23,.57-.34,.95-.34s.72,.11,.97,.34c.25,.23,.38,.52,.38,.87s-.13,.64-.38,.87c-.25,.23-.57,.34-.97,.34Zm-1.09,9.17v-8.06h2.16v8.06h-2.16Z"/>
      <path class="cls-33" d="M210.03,44.22v-8.06h1.92l.21,1.49c.19-.35,.43-.65,.73-.9,.29-.25,.63-.44,1.01-.58s.8-.21,1.26-.21v2.29h-.74c-.32,0-.62,.04-.89,.11-.27,.08-.51,.2-.71,.36-.2,.17-.36,.39-.46,.68-.11,.29-.16,.65-.16,1.09v3.73h-2.16Z"/>
      <path class="cls-33" d="M220.35,44.41c-.81,0-1.53-.18-2.16-.54-.63-.36-1.12-.86-1.47-1.49-.35-.63-.53-1.35-.53-2.16s.18-1.57,.53-2.2c.35-.63,.84-1.14,1.47-1.5,.63-.37,1.35-.55,2.16-.55,1.03,0,1.9,.27,2.61,.82s1.15,1.29,1.34,2.24h-2.29c-.1-.37-.3-.67-.6-.88-.3-.21-.66-.32-1.08-.32-.37,0-.71,.09-1,.28-.29,.19-.52,.46-.69,.82s-.25,.78-.25,1.27c0,.37,.05,.71,.14,1,.1,.29,.23,.54,.4,.75s.38,.37,.62,.47,.5,.16,.78,.16,.53-.05,.76-.14,.42-.23,.58-.41,.27-.39,.34-.65h2.29c-.19,.93-.64,1.67-1.35,2.22-.71,.55-1.58,.82-2.6,.82Z"/>
      <path class="cls-33" d="M229.17,44.41c-.65,0-1.21-.14-1.67-.41-.46-.27-.82-.67-1.06-1.2-.25-.53-.37-1.18-.37-1.96v-4.69h2.16v4.46c0,.65,.14,1.14,.41,1.47,.27,.33,.69,.5,1.26,.5,.36,0,.68-.08,.96-.25s.5-.41,.66-.72c.17-.31,.25-.7,.25-1.16v-4.3h2.14v8.06h-1.89l-.18-1.31c-.24,.46-.58,.82-1.04,1.1-.46,.27-1,.41-1.63,.41Z"/>
      <path class="cls-33" d="M236.01,44.22v-11.52h2.16v11.52h-2.16Z"/>
      <path class="cls-33" d="M243.01,44.41c-.67,0-1.23-.11-1.66-.33-.44-.22-.76-.51-.97-.88-.21-.37-.31-.78-.31-1.22,0-.49,.12-.92,.38-1.3,.25-.37,.63-.67,1.14-.88,.51-.21,1.14-.32,1.91-.32h2c0-.39-.05-.72-.16-.98-.11-.26-.27-.46-.5-.58-.22-.13-.52-.19-.9-.19-.41,0-.75,.09-1.03,.26-.28,.18-.46,.45-.52,.81h-2.1c.05-.58,.24-1.07,.57-1.5,.33-.42,.76-.75,1.3-.98,.54-.23,1.14-.35,1.8-.35,.76,0,1.41,.13,1.97,.38,.55,.26,.98,.62,1.28,1.1,.3,.48,.45,1.07,.45,1.78v4.99h-1.82l-.24-1.23c-.12,.21-.26,.41-.42,.58-.16,.17-.35,.32-.56,.45-.21,.13-.45,.23-.72,.3s-.56,.1-.88,.1Zm.51-1.66c.28,0,.53-.05,.74-.15s.41-.24,.57-.42c.16-.18,.29-.38,.38-.61,.09-.23,.15-.48,.18-.74v-.02h-1.65c-.33,0-.6,.04-.81,.12s-.36,.2-.46,.34c-.1,.15-.14,.32-.14,.51,0,.21,.05,.39,.14,.53s.23,.25,.42,.32c.18,.08,.39,.11,.62,.11Z"/>
      <path class="cls-33" d="M253.57,44.41c-.81,0-1.53-.18-2.16-.54-.63-.36-1.12-.86-1.47-1.49-.35-.63-.53-1.35-.53-2.16s.18-1.57,.53-2.2c.35-.63,.84-1.14,1.47-1.5,.63-.37,1.35-.55,2.16-.55,1.03,0,1.9,.27,2.61,.82s1.15,1.29,1.34,2.24h-2.29c-.1-.37-.3-.67-.6-.88-.3-.21-.66-.32-1.08-.32-.37,0-.71,.09-1,.28-.29,.19-.52,.46-.69,.82s-.25,.78-.25,1.27c0,.37,.05,.71,.14,1,.1,.29,.23,.54,.4,.75s.38,.37,.62,.47,.5,.16,.78,.16,.53-.05,.76-.14,.42-.23,.58-.41,.27-.39,.34-.65h2.29c-.19,.93-.64,1.67-1.35,2.22-.71,.55-1.58,.82-2.6,.82Z"/>
      <path class="cls-33" d="M260.51,35.05c-.38,0-.7-.11-.95-.34-.25-.23-.38-.52-.38-.87s.12-.64,.38-.87c.25-.23,.57-.34,.95-.34s.72,.11,.97,.34c.25,.23,.38,.52,.38,.87s-.13,.64-.38,.87c-.25,.23-.57,.34-.97,.34Zm-1.09,9.17v-8.06h2.16v8.06h-2.16Z"/>
      <path class="cls-33" d="M267.57,44.41c-.77,0-1.46-.18-2.07-.54s-1.1-.85-1.46-1.49-.54-1.36-.54-2.18,.18-1.58,.54-2.22c.36-.63,.85-1.13,1.46-1.49,.62-.36,1.31-.54,2.08-.54s1.47,.18,2.09,.54,1.1,.85,1.46,1.49c.36,.63,.54,1.37,.54,2.2s-.18,1.57-.54,2.2-.85,1.13-1.46,1.49c-.62,.36-1.32,.54-2.1,.54Zm-1.66-8.94l-.19-1.42,3.5-2,.26,1.65-3.57,1.78Zm1.66,7.07c.36,0,.68-.09,.97-.26,.28-.17,.51-.43,.67-.78,.17-.35,.25-.79,.25-1.31s-.08-.96-.25-1.3-.39-.61-.67-.78c-.28-.18-.6-.26-.95-.26s-.66,.09-.94,.26c-.29,.18-.51,.44-.68,.78s-.25,.78-.25,1.3,.08,.96,.25,1.31c.17,.35,.39,.61,.67,.78,.28,.17,.59,.26,.94,.26Z"/>
      <path class="cls-33" d="M273.52,44.22v-8.06h1.9l.16,1.31c.25-.45,.59-.81,1.05-1.09s.99-.42,1.62-.42c.67,0,1.24,.14,1.7,.42,.46,.28,.81,.68,1.05,1.22s.36,1.19,.36,1.97v4.66h-2.14v-4.45c0-.64-.14-1.13-.41-1.47-.27-.34-.69-.51-1.26-.51-.36,0-.69,.08-.97,.26-.28,.17-.5,.41-.66,.73-.16,.32-.24,.7-.24,1.14v4.3h-2.16Z"/>
      <path class="cls-33" d="M287.15,47.74v-11.58h1.92l.24,1.12c.17-.23,.37-.45,.61-.65,.23-.2,.51-.36,.84-.48,.33-.12,.71-.18,1.14-.18,.76,0,1.42,.19,2,.56,.58,.37,1.03,.88,1.37,1.51s.5,1.36,.5,2.17-.17,1.53-.51,2.17c-.34,.63-.8,1.13-1.38,1.5-.58,.36-1.23,.54-1.97,.54-.6,0-1.11-.11-1.54-.33-.43-.22-.79-.52-1.06-.9v4.56h-2.16Zm4.26-5.22c.43,0,.8-.1,1.13-.29,.33-.19,.58-.46,.76-.82,.18-.35,.27-.76,.27-1.22s-.09-.87-.27-1.22c-.18-.36-.43-.63-.76-.83-.33-.2-.7-.3-1.13-.3s-.79,.1-1.11,.3c-.33,.2-.58,.47-.77,.82s-.28,.76-.28,1.22,.09,.87,.28,1.22,.44,.63,.77,.82c.33,.19,.7,.29,1.11,.29Z"/>
      <path class="cls-33" d="M301.44,44.41c-.77,0-1.46-.18-2.07-.54s-1.1-.85-1.46-1.49-.54-1.36-.54-2.18,.18-1.58,.54-2.22c.36-.63,.85-1.13,1.46-1.49,.62-.36,1.31-.54,2.08-.54s1.47,.18,2.09,.54,1.1,.85,1.46,1.49c.36,.63,.54,1.37,.54,2.2s-.18,1.57-.54,2.2-.85,1.13-1.46,1.49c-.62,.36-1.32,.54-2.1,.54Zm0-1.87c.36,0,.68-.09,.97-.26,.28-.17,.51-.43,.67-.78,.17-.35,.25-.79,.25-1.31s-.08-.96-.25-1.3-.39-.61-.67-.78c-.28-.18-.6-.26-.95-.26s-.66,.09-.94,.26c-.29,.18-.51,.44-.68,.78s-.25,.78-.25,1.3,.08,.96,.25,1.31c.17,.35,.39,.61,.67,.78,.28,.17,.59,.26,.94,.26Z"/>
      <path class="cls-33" d="M307.39,44.22v-8.06h1.92l.21,1.49c.19-.35,.43-.65,.73-.9,.29-.25,.63-.44,1.01-.58s.8-.21,1.26-.21v2.29h-.74c-.32,0-.62,.04-.89,.11-.27,.08-.51,.2-.71,.36-.2,.17-.36,.39-.46,.68-.11,.29-.16,.65-.16,1.09v3.73h-2.16Z"/>
      <path class="cls-33" d="M317.69,44.22v-8.06h1.92l.21,1.49c.19-.35,.43-.65,.73-.9,.29-.25,.63-.44,1.01-.58s.8-.21,1.26-.21v2.29h-.74c-.32,0-.62,.04-.89,.11-.27,.08-.51,.2-.71,.36-.2,.17-.36,.39-.46,.68-.11,.29-.16,.65-.16,1.09v3.73h-2.16Z"/>
      <path class="cls-33" d="M326.96,44.41c-.67,0-1.23-.11-1.66-.33-.44-.22-.76-.51-.97-.88-.21-.37-.31-.78-.31-1.22,0-.49,.12-.92,.38-1.3,.25-.37,.63-.67,1.14-.88,.51-.21,1.14-.32,1.91-.32h2c0-.39-.05-.72-.16-.98-.11-.26-.27-.46-.5-.58-.22-.13-.52-.19-.9-.19-.41,0-.75,.09-1.03,.26-.28,.18-.46,.45-.52,.81h-2.1c.05-.58,.24-1.07,.57-1.5,.33-.42,.76-.75,1.3-.98,.54-.23,1.14-.35,1.8-.35,.76,0,1.41,.13,1.97,.38,.55,.26,.98,.62,1.28,1.1,.3,.48,.45,1.07,.45,1.78v4.99h-1.82l-.24-1.23c-.12,.21-.26,.41-.42,.58-.16,.17-.35,.32-.56,.45-.21,.13-.45,.23-.72,.3s-.56,.1-.88,.1Zm.51-1.66c.28,0,.53-.05,.74-.15s.41-.24,.57-.42c.16-.18,.29-.38,.38-.61,.09-.23,.15-.48,.18-.74v-.02h-1.65c-.33,0-.6,.04-.81,.12s-.36,.2-.46,.34c-.1,.15-.14,.32-.14,.51,0,.21,.05,.39,.14,.53s.23,.25,.42,.32c.18,.08,.39,.11,.62,.11Z"/>
      <path class="cls-33" d="M333.61,44.22v-8.06h1.9l.16,1.31c.25-.45,.59-.81,1.05-1.09s.99-.42,1.62-.42c.67,0,1.24,.14,1.7,.42,.46,.28,.81,.68,1.05,1.22s.36,1.19,.36,1.97v4.66h-2.14v-4.45c0-.64-.14-1.13-.41-1.47-.27-.34-.69-.51-1.26-.51-.36,0-.69,.08-.97,.26-.28,.17-.5,.41-.66,.73-.16,.32-.24,.7-.24,1.14v4.3h-2.16Z"/>
      <path class="cls-33" d="M346.96,47.93c-.77,0-1.44-.09-2.02-.28s-1.02-.47-1.34-.85-.47-.85-.47-1.4c0-.37,.1-.72,.29-1.06,.19-.33,.47-.63,.84-.9,.37-.27,.83-.5,1.38-.7l.82,1.06c-.49,.16-.85,.36-1.06,.6-.22,.24-.33,.5-.33,.78,0,.25,.08,.45,.25,.62,.17,.17,.39,.3,.67,.38,.28,.08,.6,.12,.95,.12s.64-.04,.89-.13c.25-.09,.45-.21,.59-.38,.14-.17,.22-.36,.22-.58,0-.29-.1-.52-.3-.7-.2-.18-.61-.29-1.22-.34-.54-.04-1.03-.1-1.45-.18-.42-.08-.79-.18-1.11-.29-.32-.11-.59-.24-.81-.38-.22-.14-.4-.28-.54-.42v-.37l1.71-1.84,1.55,.5-2.02,1.98,.61-1.06c.12,.06,.23,.12,.34,.18,.11,.06,.25,.11,.42,.16,.17,.05,.39,.09,.67,.14,.28,.04,.63,.08,1.06,.11,.7,.06,1.28,.2,1.74,.4,.45,.2,.79,.47,1,.81,.21,.34,.32,.75,.32,1.24s-.13,.93-.39,1.35c-.26,.42-.66,.76-1.21,1.02-.54,.26-1.23,.39-2.06,.39Zm0-6.1c-.67,0-1.25-.13-1.74-.39-.49-.26-.86-.61-1.12-1.06s-.39-.94-.39-1.48,.13-1.04,.39-1.48,.63-.8,1.12-1.06c.49-.27,1.06-.4,1.74-.4s1.27,.13,1.75,.4c.49,.27,.86,.62,1.11,1.06,.26,.44,.38,.94,.38,1.48s-.13,1.04-.38,1.48c-.26,.44-.63,.79-1.11,1.06-.49,.26-1.07,.39-1.75,.39Zm0-1.65c.42,0,.75-.11,1.01-.32,.26-.21,.38-.53,.38-.94s-.13-.73-.38-.95-.59-.33-1.01-.33-.74,.11-1,.33c-.26,.22-.39,.54-.39,.95s.13,.73,.39,.94c.26,.21,.59,.32,1,.32Zm1.34-2.5l-.35-1.54h3.31v1.28l-2.96,.26Z"/>
      <path class="cls-33" d="M356.51,44.41c-.77,0-1.46-.18-2.07-.54s-1.1-.85-1.46-1.49-.54-1.36-.54-2.18,.18-1.58,.54-2.22c.36-.63,.85-1.13,1.46-1.49,.62-.36,1.31-.54,2.08-.54s1.47,.18,2.09,.54,1.1,.85,1.46,1.49c.36,.63,.54,1.37,.54,2.2s-.18,1.57-.54,2.2-.85,1.13-1.46,1.49c-.62,.36-1.32,.54-2.1,.54Zm0-1.87c.36,0,.68-.09,.97-.26,.28-.17,.51-.43,.67-.78,.17-.35,.25-.79,.25-1.31s-.08-.96-.25-1.3-.39-.61-.67-.78c-.28-.18-.6-.26-.95-.26s-.66,.09-.94,.26c-.29,.18-.51,.44-.68,.78s-.25,.78-.25,1.3,.08,.96,.25,1.31c.17,.35,.39,.61,.67,.78,.28,.17,.59,.26,.94,.26Z"/>
      <path class="cls-33" d="M370.09,44.41c-.81,0-1.53-.17-2.15-.52s-1.11-.83-1.46-1.46c-.35-.62-.52-1.35-.52-2.17s.17-1.59,.51-2.23c.34-.65,.82-1.15,1.45-1.52s1.35-.55,2.17-.55,1.5,.18,2.1,.53c.6,.35,1.06,.83,1.39,1.42,.33,.6,.5,1.27,.5,2.03v.36c0,.13-.01,.27-.03,.41h-6.54v-1.31h4.4c-.03-.52-.22-.93-.55-1.23s-.75-.45-1.26-.45c-.36,0-.7,.08-1.01,.25-.31,.17-.55,.42-.73,.76-.18,.34-.26,.77-.26,1.3v.46c0,.44,.08,.82,.25,1.14s.4,.58,.7,.75,.65,.26,1.04,.26,.72-.08,.98-.26c.26-.17,.46-.39,.58-.66h2.21c-.15,.5-.4,.96-.75,1.36-.35,.41-.78,.73-1.3,.96-.51,.23-1.08,.35-1.71,.35Z"/>
      <path class="cls-33" d="M379.37,44.22c-.57,0-1.06-.09-1.48-.26-.42-.18-.75-.47-.98-.88-.23-.41-.35-.97-.35-1.69v-3.42h-1.38v-1.81h1.38l.24-2.19h1.92v2.19h2.13v1.81h-2.13v3.46c0,.36,.08,.61,.24,.75,.16,.14,.43,.21,.82,.21h1.06v1.84h-1.46Z"/>
      <path class="cls-33" d="M385.39,44.41c-.67,0-1.23-.11-1.66-.33-.44-.22-.76-.51-.97-.88-.21-.37-.31-.78-.31-1.22,0-.49,.12-.92,.38-1.3,.25-.37,.63-.67,1.14-.88,.51-.21,1.14-.32,1.91-.32h2c0-.39-.05-.72-.16-.98-.11-.26-.27-.46-.5-.58-.22-.13-.52-.19-.9-.19-.41,0-.75,.09-1.03,.26-.28,.18-.46,.45-.52,.81h-2.1c.05-.58,.24-1.07,.57-1.5,.33-.42,.76-.75,1.3-.98,.54-.23,1.14-.35,1.8-.35,.76,0,1.41,.13,1.97,.38,.55,.26,.98,.62,1.28,1.1,.3,.48,.45,1.07,.45,1.78v4.99h-1.82l-.24-1.23c-.12,.21-.26,.41-.42,.58-.16,.17-.35,.32-.56,.45-.21,.13-.45,.23-.72,.3s-.56,.1-.88,.1Zm.51-1.66c.28,0,.53-.05,.74-.15s.41-.24,.57-.42c.16-.18,.29-.38,.38-.61,.09-.23,.15-.48,.18-.74v-.02h-1.65c-.33,0-.6,.04-.81,.12s-.36,.2-.46,.34c-.1,.15-.14,.32-.14,.51,0,.21,.05,.39,.14,.53s.23,.25,.42,.32c.18,.08,.39,.11,.62,.11Z"/>
      <path class="cls-33" d="M392.04,44.22v-8.06h1.92l.21,1.49c.19-.35,.43-.65,.73-.9,.29-.25,.63-.44,1.01-.58s.8-.21,1.26-.21v2.29h-.74c-.32,0-.62,.04-.89,.11-.27,.08-.51,.2-.71,.36-.2,.17-.36,.39-.46,.68-.11,.29-.16,.65-.16,1.09v3.73h-2.16Z"/>
      <path class="cls-33" d="M399.72,35.05c-.38,0-.7-.11-.95-.34-.25-.23-.38-.52-.38-.87s.12-.64,.38-.87c.25-.23,.57-.34,.95-.34s.72,.11,.97,.34c.25,.23,.38,.52,.38,.87s-.13,.64-.38,.87c-.25,.23-.57,.34-.97,.34Zm-1.09,9.17v-8.06h2.16v8.06h-2.16Z"/>
      <path class="cls-33" d="M406.78,44.41c-.77,0-1.46-.18-2.07-.54s-1.1-.85-1.46-1.49-.54-1.36-.54-2.18,.18-1.58,.54-2.22c.36-.63,.85-1.13,1.46-1.49,.62-.36,1.31-.54,2.08-.54s1.47,.18,2.09,.54,1.1,.85,1.46,1.49c.36,.63,.54,1.37,.54,2.2s-.18,1.57-.54,2.2-.85,1.13-1.46,1.49c-.62,.36-1.32,.54-2.1,.54Zm0-1.87c.36,0,.68-.09,.97-.26,.28-.17,.51-.43,.67-.78,.17-.35,.25-.79,.25-1.31s-.08-.96-.25-1.3-.39-.61-.67-.78c-.28-.18-.6-.26-.95-.26s-.66,.09-.94,.26c-.29,.18-.51,.44-.68,.78s-.25,.78-.25,1.3,.08,.96,.25,1.31c.17,.35,.39,.61,.67,.78,.28,.17,.59,.26,.94,.26Z"/>
      <path class="cls-33" d="M420.59,44.41c-.75,0-1.41-.18-2-.53-.59-.35-1.05-.85-1.38-1.48-.33-.63-.5-1.37-.5-2.22s.16-1.59,.49-2.22c.33-.63,.78-1.12,1.38-1.47,.59-.35,1.27-.53,2.04-.53s1.46,.18,2.02,.53c.55,.35,.98,.81,1.27,1.38,.29,.57,.44,1.2,.44,1.88v.34c0,.12,0,.25-.02,.4h-6.61v-1.04h5.3c-.03-.74-.27-1.31-.73-1.73-.45-.42-1.02-.62-1.7-.62-.45,0-.87,.1-1.26,.31s-.71,.51-.94,.91c-.24,.4-.35,.9-.35,1.5v.45c0,.66,.12,1.22,.36,1.66s.55,.78,.94,1.01c.39,.22,.81,.34,1.26,.34,.57,0,1.03-.12,1.4-.38,.37-.25,.64-.59,.81-1.03h1.33c-.14,.49-.37,.92-.69,1.3s-.72,.68-1.19,.9c-.47,.22-1.03,.34-1.66,.34Z"/>
      <path class="cls-33" d="M426.14,44.22v-8.06h1.22l.06,1.41c.26-.5,.62-.89,1.1-1.18,.47-.28,1.02-.42,1.62-.42s1.17,.12,1.63,.38,.82,.63,1.07,1.14,.38,1.15,.38,1.93v4.82h-1.34v-4.67c0-.81-.18-1.42-.54-1.82s-.86-.61-1.51-.61c-.45,0-.85,.11-1.2,.33-.35,.22-.63,.53-.84,.94-.21,.41-.31,.92-.31,1.53v4.3h-1.34Z"/>
      <path class="cls-33" d="M439.58,47.74v-11.58h1.22l.11,1.31c.17-.26,.39-.5,.66-.73,.27-.23,.59-.42,.96-.56,.37-.14,.8-.22,1.3-.22,.78,0,1.46,.19,2.04,.56,.58,.37,1.03,.88,1.36,1.51s.49,1.36,.49,2.17-.16,1.53-.49,2.17-.78,1.13-1.37,1.5c-.59,.36-1.27,.54-2.05,.54-.65,0-1.23-.13-1.73-.4-.5-.27-.89-.64-1.15-1.12v4.85h-1.34Zm4.06-4.5c.52,0,.99-.13,1.4-.38,.41-.26,.73-.61,.96-1.06s.34-.99,.34-1.61-.11-1.14-.34-1.6-.55-.82-.96-1.07c-.41-.26-.88-.38-1.4-.38s-1,.13-1.41,.38c-.41,.26-.72,.61-.94,1.07s-.34,.99-.34,1.6,.11,1.16,.34,1.61,.54,.81,.94,1.06c.41,.26,.87,.38,1.41,.38Z"/>
      <path class="cls-33" d="M449.61,44.22v-11.52h1.34v11.52h-1.34Z"/>
      <path class="cls-33" d="M455.8,44.41c-.65,0-1.2-.12-1.63-.34-.44-.23-.76-.53-.98-.91-.21-.38-.32-.79-.32-1.24,0-.54,.14-1.01,.42-1.38,.28-.38,.68-.67,1.2-.86,.52-.2,1.13-.3,1.83-.3h2.13c0-.5-.08-.92-.23-1.26-.15-.34-.38-.59-.67-.76-.29-.17-.66-.26-1.1-.26-.51,0-.96,.13-1.33,.38-.37,.26-.6,.63-.69,1.14h-1.38c.06-.58,.26-1.06,.58-1.45s.74-.69,1.24-.9c.5-.21,1.02-.31,1.57-.31,.75,0,1.37,.14,1.86,.41,.5,.27,.87,.65,1.11,1.14s.37,1.06,.37,1.72v4.99h-1.2l-.08-1.42c-.11,.22-.24,.43-.41,.63-.17,.2-.36,.37-.58,.51-.22,.14-.47,.26-.76,.34-.29,.08-.61,.13-.98,.13Zm.21-1.14c.37,0,.71-.08,1.02-.23,.3-.15,.56-.37,.78-.64,.21-.27,.38-.57,.49-.9,.11-.33,.17-.68,.17-1.04v-.05h-2.02c-.52,0-.94,.06-1.26,.18-.32,.12-.55,.29-.69,.51-.14,.22-.21,.47-.21,.74s.07,.54,.2,.75c.13,.21,.33,.38,.59,.5,.26,.12,.57,.18,.94,.18Z"/>
      <path class="cls-33" d="M461.34,44.22v-1.1l4.46-5.84h-4.38v-1.12h5.92v1.1l-4.48,5.84h4.56v1.12h-6.08Z"/>
      <path class="cls-33" d="M471.83,44.41c-.65,0-1.2-.12-1.63-.34-.44-.23-.76-.53-.98-.91-.21-.38-.32-.79-.32-1.24,0-.54,.14-1.01,.42-1.38,.28-.38,.68-.67,1.2-.86,.52-.2,1.13-.3,1.83-.3h2.13c0-.5-.08-.92-.23-1.26-.15-.34-.38-.59-.67-.76-.29-.17-.66-.26-1.1-.26-.51,0-.96,.13-1.33,.38-.37,.26-.6,.63-.69,1.14h-1.38c.06-.58,.26-1.06,.58-1.45s.74-.69,1.24-.9c.5-.21,1.02-.31,1.57-.31,.75,0,1.37,.14,1.86,.41,.5,.27,.87,.65,1.11,1.14s.37,1.06,.37,1.72v4.99h-1.2l-.08-1.42c-.11,.22-.24,.43-.41,.63-.17,.2-.36,.37-.58,.51-.22,.14-.47,.26-.76,.34-.29,.08-.61,.13-.98,.13Zm.21-1.14c.37,0,.71-.08,1.02-.23,.3-.15,.56-.37,.78-.64,.21-.27,.38-.57,.49-.9,.11-.33,.17-.68,.17-1.04v-.05h-2.02c-.52,0-.94,.06-1.26,.18-.32,.12-.55,.29-.69,.51-.14,.22-.21,.47-.21,.74s.07,.54,.2,.75c.13,.21,.33,.38,.59,.5,.26,.12,.57,.18,.94,.18Z"/>
      <path class="cls-33" d="M34,63.42v-11.2h1.34v10.13h5.22v1.07h-6.56Z"/>
      <path class="cls-33" d="M45.62,63.61c-.75,0-1.42-.17-2.02-.52-.6-.35-1.07-.84-1.41-1.47s-.51-1.37-.51-2.22,.17-1.61,.52-2.25,.82-1.13,1.42-1.47c.6-.35,1.28-.52,2.02-.52s1.45,.17,2.04,.52c.59,.35,1.06,.84,1.41,1.47s.52,1.38,.52,2.23-.18,1.6-.53,2.23c-.35,.63-.83,1.12-1.42,1.47-.6,.35-1.28,.52-2.05,.52Zm.02-1.15c.46,0,.88-.11,1.28-.34s.71-.57,.96-1.03c.25-.46,.37-1.02,.37-1.7s-.12-1.25-.36-1.7c-.24-.45-.55-.79-.94-1.02s-.82-.34-1.29-.34-.87,.11-1.27,.34c-.4,.23-.72,.57-.96,1.02-.24,.45-.36,1.02-.36,1.7s.12,1.24,.36,1.7c.24,.46,.55,.8,.94,1.03s.81,.34,1.27,.34Z"/>
      <path class="cls-33" d="M54.54,63.61c-.66,0-1.24-.11-1.74-.34-.5-.22-.9-.54-1.19-.94-.29-.4-.47-.87-.54-1.42h1.38c.05,.28,.17,.53,.34,.77,.17,.23,.4,.42,.7,.57,.29,.14,.65,.22,1.08,.22,.37,0,.68-.06,.93-.17,.25-.11,.43-.26,.55-.46,.12-.19,.18-.4,.18-.62,0-.33-.08-.58-.23-.75-.16-.17-.38-.31-.68-.41-.3-.1-.66-.19-1.09-.26-.35-.06-.7-.15-1.04-.26-.34-.11-.65-.25-.91-.42s-.48-.39-.63-.65-.23-.57-.23-.94c0-.46,.12-.87,.36-1.22s.58-.64,1.02-.84c.44-.2,.95-.3,1.54-.3,.86,0,1.56,.21,2.1,.62,.53,.42,.85,1.02,.94,1.81h-1.33c-.05-.41-.23-.72-.52-.95-.29-.23-.7-.34-1.21-.34s-.88,.1-1.14,.3c-.26,.2-.39,.47-.39,.8,0,.21,.07,.4,.22,.57,.14,.17,.36,.31,.65,.42,.29,.12,.63,.21,1.04,.29,.53,.1,1.02,.22,1.46,.38,.44,.16,.79,.4,1.06,.71,.27,.31,.41,.76,.41,1.34,0,.5-.12,.94-.38,1.31-.25,.37-.61,.66-1.06,.87-.46,.21-1,.31-1.62,.31Z"/>
      <path class="cls-33" d="M63.87,63.42v-11.2h3.3c1.31,0,2.39,.23,3.25,.68,.85,.45,1.49,1.1,1.9,1.94,.41,.84,.62,1.84,.62,3.02s-.21,2.14-.62,2.98c-.41,.83-1.04,1.47-1.9,1.92s-1.94,.67-3.25,.67h-3.3Zm1.34-1.12h1.92c1.09,0,1.96-.18,2.6-.54,.64-.36,1.11-.87,1.38-1.54,.28-.67,.42-1.46,.42-2.38s-.14-1.74-.42-2.42c-.28-.67-.74-1.19-1.38-1.55-.65-.36-1.51-.54-2.6-.54h-1.92v8.96Z"/>
      <path class="cls-33" d="M78.4,63.61c-.75,0-1.42-.17-2.02-.52-.6-.35-1.07-.84-1.41-1.47s-.51-1.37-.51-2.22,.17-1.61,.52-2.25,.82-1.13,1.42-1.47c.6-.35,1.28-.52,2.02-.52s1.45,.17,2.04,.52c.59,.35,1.06,.84,1.41,1.47s.52,1.38,.52,2.23-.18,1.6-.53,2.23c-.35,.63-.83,1.12-1.42,1.47-.6,.35-1.28,.52-2.05,.52Zm.02-1.15c.46,0,.88-.11,1.28-.34s.71-.57,.96-1.03c.25-.46,.37-1.02,.37-1.7s-.12-1.25-.36-1.7c-.24-.45-.55-.79-.94-1.02s-.82-.34-1.29-.34-.87,.11-1.27,.34c-.4,.23-.72,.57-.96,1.02-.24,.45-.36,1.02-.36,1.7s.12,1.24,.36,1.7c.24,.46,.55,.8,.94,1.03s.81,.34,1.27,.34Z"/>
      <path class="cls-33" d="M84.29,63.42v-8.06h1.22l.08,1.15c.26-.42,.6-.74,1.03-.98,.43-.24,.9-.36,1.42-.36,.42,0,.79,.06,1.13,.17s.63,.28,.9,.51c.26,.23,.47,.52,.62,.87,.28-.49,.66-.87,1.15-1.14,.49-.27,1.01-.41,1.55-.41,.63,0,1.17,.12,1.63,.38s.82,.63,1.07,1.14,.38,1.15,.38,1.93v4.82h-1.33v-4.67c0-.81-.17-1.42-.5-1.82-.33-.41-.8-.61-1.41-.61-.42,0-.79,.11-1.12,.33-.33,.22-.59,.54-.78,.95-.19,.42-.29,.93-.29,1.54v4.29h-1.34v-4.67c0-.81-.17-1.42-.5-1.82-.33-.41-.79-.61-1.39-.61-.41,0-.77,.11-1.1,.33-.33,.22-.59,.54-.78,.95s-.29,.93-.29,1.54v4.29h-1.34Z"/>
      <path class="cls-33" d="M99.34,53.64c-.27,0-.49-.09-.66-.26s-.26-.4-.26-.66,.09-.48,.26-.65c.18-.17,.4-.25,.66-.25s.47,.08,.66,.25c.18,.17,.27,.38,.27,.65s-.09,.49-.27,.66c-.18,.18-.4,.26-.66,.26Zm-.67,9.78v-8.06h1.34v8.06h-1.34Z"/>
      <path class="cls-33" d="M102.38,63.42v-8.06h1.22l.06,1.41c.26-.5,.62-.89,1.1-1.18,.47-.28,1.02-.42,1.62-.42s1.17,.12,1.63,.38,.82,.63,1.07,1.14,.38,1.15,.38,1.93v4.82h-1.34v-4.67c0-.81-.18-1.42-.54-1.82s-.86-.61-1.51-.61c-.45,0-.85,.11-1.2,.33-.35,.22-.63,.53-.84,.94-.21,.41-.31,.92-.31,1.53v4.3h-1.34Z"/>
      <path class="cls-33" d="M112.37,53.64c-.27,0-.49-.09-.66-.26s-.26-.4-.26-.66,.09-.48,.26-.65c.18-.17,.4-.25,.66-.25s.47,.08,.66,.25c.18,.17,.27,.38,.27,.65s-.09,.49-.27,.66c-.18,.18-.4,.26-.66,.26Zm-.67,9.78v-8.06h1.34v8.06h-1.34Z"/>
      <path class="cls-33" d="M119.04,63.61c-.76,0-1.44-.18-2.04-.53-.6-.35-1.07-.85-1.42-1.48-.34-.63-.51-1.37-.51-2.2s.17-1.59,.51-2.22c.34-.63,.81-1.12,1.42-1.48s1.28-.54,2.04-.54c.96,0,1.76,.25,2.4,.74,.64,.5,1.04,1.16,1.22,1.99h-1.38c-.11-.5-.37-.89-.78-1.17-.42-.28-.91-.42-1.47-.42-.46,0-.88,.11-1.27,.34s-.7,.57-.94,1.03c-.24,.46-.36,1.02-.36,1.7,0,.5,.07,.95,.21,1.34,.14,.39,.33,.71,.56,.97,.23,.26,.51,.45,.82,.58,.31,.13,.64,.2,.98,.2,.38,0,.73-.06,1.04-.18,.31-.12,.57-.31,.78-.55,.21-.25,.36-.53,.43-.86h1.38c-.17,.81-.58,1.47-1.22,1.98-.65,.51-1.44,.76-2.39,.76Z"/>
      <path class="cls-33" d="M128.16,63.61c-.75,0-1.42-.17-2.02-.52-.6-.35-1.07-.84-1.41-1.47s-.51-1.37-.51-2.22,.17-1.61,.52-2.25,.82-1.13,1.42-1.47c.6-.35,1.28-.52,2.02-.52s1.45,.17,2.04,.52c.59,.35,1.06,.84,1.41,1.47s.52,1.38,.52,2.23-.18,1.6-.53,2.23c-.35,.63-.83,1.12-1.42,1.47-.6,.35-1.28,.52-2.05,.52Zm.02-1.15c.46,0,.88-.11,1.28-.34s.71-.57,.96-1.03c.25-.46,.37-1.02,.37-1.7s-.12-1.25-.36-1.7c-.24-.45-.55-.79-.94-1.02s-.82-.34-1.29-.34-.87,.11-1.27,.34c-.4,.23-.72,.57-.96,1.02-.24,.45-.36,1.02-.36,1.7s.12,1.24,.36,1.7c.24,.46,.55,.8,.94,1.03s.81,.34,1.27,.34Z"/>
      <path class="cls-33" d="M137.09,63.61c-.66,0-1.24-.11-1.74-.34-.5-.22-.9-.54-1.19-.94-.29-.4-.47-.87-.54-1.42h1.38c.05,.28,.17,.53,.34,.77,.17,.23,.4,.42,.7,.57,.29,.14,.65,.22,1.08,.22,.37,0,.68-.06,.93-.17,.25-.11,.43-.26,.55-.46,.12-.19,.18-.4,.18-.62,0-.33-.08-.58-.23-.75-.16-.17-.38-.31-.68-.41-.3-.1-.66-.19-1.09-.26-.35-.06-.7-.15-1.04-.26-.34-.11-.65-.25-.91-.42s-.48-.39-.63-.65-.23-.57-.23-.94c0-.46,.12-.87,.36-1.22s.58-.64,1.02-.84c.44-.2,.95-.3,1.54-.3,.86,0,1.56,.21,2.1,.62,.53,.42,.85,1.02,.94,1.81h-1.33c-.05-.41-.23-.72-.52-.95-.29-.23-.7-.34-1.21-.34s-.88,.1-1.14,.3c-.26,.2-.39,.47-.39,.8,0,.21,.07,.4,.22,.57,.14,.17,.36,.31,.65,.42,.29,.12,.63,.21,1.04,.29,.53,.1,1.02,.22,1.46,.38,.44,.16,.79,.4,1.06,.71,.27,.31,.41,.76,.41,1.34,0,.5-.12,.94-.38,1.31-.25,.37-.61,.66-1.06,.87-.46,.21-1,.31-1.62,.31Z"/>
    </g>
    <text class="cls-29" transform="translate(32.08 107.25)"><tspan class="cls-46" x="0" y="0">R</tspan><tspan class="cls-40" x="5.54" y="0">an</tspan><tspan class="cls-24" x="16.27" y="0">g</tspan><tspan x="21.43" y="0">os Etarios:</tspan></text>
    <rect class="cls-36" x="31.63" y="117.72" width="11.19" height="11.19" rx="1.86" ry="1.86"/>
    <g>
      <text class="cls-5" transform="translate(48.08 122.13)"><tspan x="0" y="0">0-5 aos</tspan></text>
      <text class="cls-1" transform="translate(48.08 129.59)"><tspan x="0" y="0">45 personas </tspan><tspan class="cls-44" x="37.78" y="0">t</tspan><tspan class="cls-25" x="40.22" y="0">o</tspan><tspan x="43.8" y="0">tal</tspan></text>
    </g>
    <rect class="cls-18" x="31.63" y="141.52" width="11.19" height="11.19" rx="1.86" ry="1.86"/>
    <g>
      <text class="cls-5" transform="translate(48.08 146.4)"><tspan x="0" y="0">6-18 aos</tspan></text>
      <text class="cls-1" transform="translate(48.08 153.86)"><tspan x="0" y="0">96 personas </tspan><tspan class="cls-44" x="37.96" y="0">t</tspan><tspan class="cls-25" x="40.39" y="0">o</tspan><tspan x="43.98" y="0">tal</tspan></text>
    </g>
    <rect class="cls-21" x="31.63" y="165.31" width="11.19" height="11.19" rx="1.86" ry="1.86"/>
    <g>
      <text class="cls-5" transform="translate(48.08 170.67)"><tspan x="0" y="0">19-30 aos</tspan></text>
      <text class="cls-1" transform="translate(48.08 178.13)"><tspan x="0" y="0">456 personas </tspan><tspan class="cls-39" x="41.66" y="0">t</tspan><tspan class="cls-28" x="44.1" y="0">o</tspan><tspan class="cls-56" x="47.68" y="0">tal</tspan></text>
    </g>
    <rect class="cls-30" x="31.63" y="189.1" width="11.19" height="11.19" rx="1.86" ry="1.86"/>
    <g>
      <text class="cls-5" transform="translate(48.08 194.94)"><tspan class="cls-45" x="0" y="0">3</tspan><tspan class="cls-50" x="4.33" y="0">1-60 aos</tspan></text>
      <text class="cls-1" transform="translate(48.08 202.4)"><tspan x="0" y="0">4</tspan><tspan class="cls-57" x="3.82" y="0">6</tspan><tspan x="7.53" y="0">2 personas </tspan><tspan class="cls-44" x="41.39" y="0">t</tspan><tspan class="cls-25" x="43.83" y="0">o</tspan><tspan x="47.41" y="0">tal</tspan></text>
    </g>
    <rect class="cls-34" x="31.63" y="212.9" width="11.19" height="11.19" rx="1.86" ry="1.86"/>
    <g>
      <text class="cls-5" transform="translate(48.08 219.22)"><tspan x="0" y="0">61-90 aos</tspan></text>
      <text class="cls-1" transform="translate(48.08 226.67)"><tspan x="0" y="0">260 personas </tspan><tspan class="cls-39" x="41.81" y="0">t</tspan><tspan class="cls-28" x="44.25" y="0">o</tspan><tspan class="cls-56" x="47.84" y="0">tal</tspan></text>
    </g>
    <text class="cls-14" transform="translate(31.63 359.85)"><tspan x="0" y="0">Escala radial: 0 </tspan><tspan class="cls-20" x="47.18" y="0">(</tspan><tspan x="49.35" y="0">cent</tspan><tspan class="cls-53" x="63.22" y="0">r</tspan><tspan class="cls-20" x="65.64" y="0">o</tspan><tspan x="69.26" y="0">) - 2</tspan><tspan class="cls-55" x="82.56" y="0">2</tspan><tspan x="86.29" y="0">7 personas (bo</tspan><tspan class="cls-15" x="131.87" y="0">r</tspan><tspan x="134.28" y="0">de </tspan><tspan class="cls-38" x="143.78" y="0">e</tspan><tspan x="147.32" y="0">x</tspan><tspan class="cls-47" x="150.52" y="0">t</tspan><tspan x="153.08" y="0">erior)</tspan></text>
  </g>
  <g id="Layer_2" data-name="Layer 2">
    <g>
      <circle class="cls-52" cx="319.09" cy="195.78" r="26.92"/>
      <text class="cls-10" transform="translate(350.32 193.09)"><tspan x="0" y="0">56</tspan></text>
      <circle class="cls-52" cx="319.09" cy="195.78" r="53.84"/>
      <text class="cls-10" transform="translate(377.24 193.09)"><tspan x="0" y="0">113</tspan></text>
      <circle class="cls-52" cx="319.09" cy="195.78" r="80.76"/>
      <text class="cls-10" transform="translate(404.15 193.09)"><tspan x="0" y="0">1</tspan><tspan class="cls-42" x="1.94" y="0">7</tspan><tspan x="5.05" y="0">0</tspan></text>
      <circle class="cls-52" cx="319.09" cy="195.78" r="107.68"/>
      <text class="cls-10" transform="translate(431.07 193.09)"><tspan x="0" y="0">2</tspan><tspan class="cls-48" x="3.42" y="0">2</tspan><tspan class="cls-16" x="6.75" y="0">7</tspan></text>
      <line class="cls-51" x1="319.09" y1="195.78" x2="319.09" y2="88.11"/>
      <line class="cls-51" x1="319.09" y1="195.78" x2="412.34" y2="141.95"/>
      <line class="cls-51" x1="319.09" y1="195.78" x2="412.34" y2="249.62"/>
      <line class="cls-51" x1="319.09" y1="195.78" x2="319.09" y2="303.46"/>
      <line class="cls-51" x1="319.09" y1="195.78" x2="225.84" y2="249.62"/>
      <line class="cls-51" x1="319.09" y1="195.78" x2="225.84" y2="141.95"/>
      <g>
        <text class="cls-7" transform="translate(308.54 71.96)"><tspan x="0" y="0">Ju</tspan><tspan class="cls-27" x="6.94" y="0">e</tspan><tspan class="cls-41" x="10.48" y="0">v</tspan><tspan x="13.72" y="0">es</tspan></text>
        <text class="cls-7" transform="translate(310.64 78.42)"><tspan x="0" y="0">10:00</tspan></text>
        <text class="cls-7" transform="translate(415.78 133.87)"><tspan x="0" y="0">Ju</tspan><tspan class="cls-27" x="6.94" y="0">e</tspan><tspan class="cls-41" x="10.48" y="0">v</tspan><tspan x="13.72" y="0">es</tspan></text>
        <text class="cls-7" transform="translate(418.41 140.33)"><tspan x="0" y="0">14:30</tspan></text>
        <text class="cls-7" transform="translate(414.8 257.7)"><tspan x="0" y="0">Viernes</tspan></text>
        <text class="cls-7" transform="translate(417.88 264.16)"><tspan x="0" y="0">10:00</tspan></text>
        <text class="cls-7" transform="translate(307.57 319.61)"><tspan x="0" y="0">Viernes</tspan></text>
        <text class="cls-7" transform="translate(311.17 326.07)"><tspan x="0" y="0">14:30</tspan></text>
        <text class="cls-7" transform="translate(200.32 257.7)"><tspan x="0" y="0">Sbado</tspan></text>
        <text class="cls-7" transform="translate(203.4 264.16)"><tspan x="0" y="0">10:00</tspan></text>
        <text class="cls-7" transform="translate(200.32 133.87)"><tspan x="0" y="0">Sbado</tspan></text>
        <text class="cls-7" transform="translate(203.94 140.33)"><tspan x="0" y="0">14:30</tspan></text>
      </g>
      <polygon class="cls-9" points="319.09 194.84 323.61 193.18 320.73 196.73 319.09 200.05 314.16 198.63 316.21 194.12 319.09 194.84"/>
      <circle class="cls-37" cx="319.09" cy="194.84" r="2.69"/>
      <circle class="cls-37" cx="323.61" cy="193.18" r="2.69"/>
      <circle class="cls-37" cx="320.73" cy="196.73" r="2.69"/>
      <circle class="cls-37" cx="319.09" cy="200.05" r="2.69"/>
      <circle class="cls-37" cx="314.16" cy="198.63" r="2.69"/>
      <circle class="cls-37" cx="316.21" cy="194.12" r="2.69"/>
      <polygon class="cls-2" points="319.09 194.36 328.54 190.33 320.73 196.73 319.09 214.76 310.46 200.76 317.04 194.6 319.09 194.36"/>
      <circle class="cls-19" cx="319.09" cy="194.36" r="2.69"/>
      <circle class="cls-19" cx="328.54" cy="190.33" r="2.69"/>
      <circle class="cls-19" cx="320.73" cy="196.73" r="2.69"/>
      <circle class="cls-19" cx="319.09" cy="214.76" r="2.69"/>
      <circle class="cls-19" cx="310.46" cy="200.76" r="2.69"/>
      <circle class="cls-19" cx="317.04" cy="194.6" r="2.69"/>
      <polygon class="cls-3" points="319.09 174.91 364.28 169.7 334.29 204.56 319.09 303.46 312.11 199.82 310.46 190.8 319.09 174.91"/>
      <circle class="cls-22" cx="319.09" cy="174.91" r="2.69"/>
      <circle class="cls-22" cx="364.28" cy="169.7" r="2.69"/>
      <text class="cls-13" transform="translate(360.9 164.31)"><tspan x="0" y="0">110</tspan></text>
      <circle class="cls-22" cx="334.29" cy="204.56" r="2.69"/>
      <circle class="cls-22" cx="319.09" cy="303.46" r="2.69"/>
      <text class="cls-13" transform="translate(315.02 298.08)"><tspan x="0" y="0">2</tspan><tspan class="cls-17" x="2.8" y="0">2</tspan><tspan class="cls-23" x="5.54" y="0">7</tspan></text>
      <circle class="cls-22" cx="312.11" cy="199.82" r="2.69"/>
      <circle class="cls-22" cx="310.46" cy="190.8" r="2.69"/>
      <polygon class="cls-4" points="319.09 181.08 374.55 163.77 340.86 208.35 319.09 278.32 303.89 204.56 305.94 188.19 319.09 181.08"/>
      <circle class="cls-31" cx="319.09" cy="181.08" r="2.69"/>
      <circle class="cls-31" cx="374.55" cy="163.77" r="2.69"/>
      <text class="cls-11" transform="translate(370.76 158.38)"><tspan x="0" y="0">135</tspan></text>
      <circle class="cls-31" cx="340.86" cy="208.35" r="2.69"/>
      <text class="cls-11" transform="translate(337.91 202.97)"><tspan x="0" y="0">53</tspan></text>
      <circle class="cls-31" cx="319.09" cy="278.32" r="2.69"/>
      <text class="cls-11" transform="translate(315.54 272.94)"><tspan x="0" y="0">1</tspan><tspan class="cls-43" x="1.69" y="0">7</tspan><tspan class="cls-23" x="4.02" y="0">4</tspan></text>
      <circle class="cls-31" cx="303.89" cy="204.56" r="2.69"/>
      <circle class="cls-31" cx="305.94" cy="188.19" r="2.69"/>
      <polygon class="cls-8" points="319.09 181.55 335.52 186.3 331.82 203.14 319.09 235.63 305.94 203.37 301.43 185.59 319.09 181.55"/>
      <circle class="cls-35" cx="319.09" cy="181.55" r="2.69"/>
      <circle class="cls-35" cx="335.52" cy="186.3" r="2.69"/>
      <circle class="cls-35" cx="331.82" cy="203.14" r="2.69"/>
      <circle class="cls-35" cx="319.09" cy="235.63" r="2.69"/>
      <text class="cls-12" transform="translate(316.03 230.24)"><tspan x="0" y="0">84</tspan></text>
      <circle class="cls-35" cx="305.94" cy="203.37" r="2.69"/>
      <circle class="cls-35" cx="301.43" cy="185.59" r="2.69"/>
    </g>
  </g>
</svg>