<?xml version="1.0" encoding="UTF-8"?>
<svg id="Layer_1" data-name="Layer 1" xmlns="http://www.w3.org/2000/svg" viewBox="0 0 520.73 390">
  <defs>
    <style>
      .cls-1 {
        letter-spacing: 0em;
      }

      .cls-2 {
        letter-spacing: -.08em;
      }

      .cls-3, .cls-4, .cls-5, .cls-6 {
        font-family: DMSans-Bold, 'DM Sans';
        font-weight: 700;
      }

      .cls-4 {
        letter-spacing: -.02em;
      }

      .cls-7 {
        letter-spacing: -.02em;
      }

      .cls-8 {
        letter-spacing: -.02em;
      }

      .cls-9 {
        font-size: 5.93px;
      }

      .cls-9, .cls-10, .cls-11 {
        fill: #171717;
      }

      .cls-9, .cls-12, .cls-13, .cls-14 {
        font-family: DMSans-9ptRegular, 'DM Sans';
        font-variation-settings: 'opsz' 9, 'wght' 400;
      }

      .cls-15 {
        fill: #2d3848;
        font-size: 9.38px;
      }

      .cls-15, .cls-11 {
        font-family: DMSans-Medium, 'DM Sans';
        font-weight: 500;
      }

      .cls-16 {
        fill: #f3f3ef;
        opacity: .8;
        stroke: #ccc;
        stroke-width: .38px;
      }

      .cls-16, .cls-14 {
        isolation: isolate;
      }

      .cls-17, .cls-13 {
        fill: #676767;
      }

      .cls-18, .cls-19 {
        fill: #9fcad8;
      }

      .cls-20, .cls-21 {
        fill: #0f2633;
      }

      .cls-5 {
        letter-spacing: -.02em;
      }

      .cls-22 {
        font-family: DMSans-Regular, 'DM Sans';
      }

      .cls-10 {
        font-size: 15.29px;
      }

      .cls-23 {
        fill: none;
        stroke: #ccd5e0;
        stroke-width: .96px;
      }

      .cls-12, .cls-14 {
        fill: #718096;
        font-size: 9.56px;
      }

      .cls-6 {
        letter-spacing: -.03em;
      }

      .cls-21, .cls-19 {
        stroke: #fff;
        stroke-miterlimit: 10;
        stroke-width: 1.33px;
      }

      .cls-24 {
        letter-spacing: -.01em;
      }

      .cls-25 {
        letter-spacing: -.03em;
      }

      .cls-26 {
        letter-spacing: 0em;
      }

      .cls-27 {
        letter-spacing: -.05em;
      }

      .cls-28 {
        letter-spacing: -.09em;
      }

      .cls-11 {
        font-size: 8px;
      }

      .cls-13 {
        font-size: 6.52px;
      }

      .cls-29 {
        letter-spacing: -.02em;
      }

      .cls-30 {
        letter-spacing: -.02em;
      }

      .cls-31 {
        letter-spacing: -.02em;
      }
    </style>
  </defs>
  <line class="cls-23" x1="222.36" y1="288.54" x2="222.36" y2="293.31"/>
  <text class="cls-14" transform="translate(216.59 307.99)"><tspan x="0" y="0">50</tspan></text>
  <line class="cls-23" x1="253.03" y1="288.54" x2="253.03" y2="293.31"/>
  <text class="cls-14" transform="translate(245.52 307.99)"><tspan x="0" y="0">100</tspan></text>
  <line class="cls-23" x1="283.7" y1="288.54" x2="283.7" y2="293.31"/>
  <text class="cls-14" transform="translate(276.41 307.98)"><tspan x="0" y="0">150</tspan></text>
  <line class="cls-23" x1="314.37" y1="288.54" x2="314.37" y2="293.31"/>
  <text class="cls-14" transform="translate(305.74 307.99)"><tspan x="0" y="0">250</tspan></text>
  <line class="cls-23" x1="375.71" y1="288.54" x2="375.71" y2="293.31"/>
  <text class="cls-14" transform="translate(367.04 307.99)"><tspan x="0" y="0">350</tspan></text>
  <line class="cls-23" x1="406.38" y1="288.54" x2="406.38" y2="293.31"/>
  <text class="cls-14" transform="translate(397.44 307.99)"><tspan x="0" y="0">400</tspan></text>
  <line class="cls-23" x1="345.04" y1="288.54" x2="345.04" y2="293.31"/>
  <text class="cls-14" transform="translate(336.15 307.99)"><tspan x="0" y="0">300</tspan></text>
  <line class="cls-23" x1="437.05" y1="288.54" x2="437.05" y2="293.31"/>
  <text class="cls-14" transform="translate(427.47 307.99)"><tspan x="0" y="0">450</tspan></text>
  <line class="cls-23" x1="163.17" y1="288.54" x2="163.17" y2="293.31"/>
  <text class="cls-14" transform="translate(154.92 307.99)"><tspan x="0" y="0">50</tspan></text>
  <line class="cls-23" x1="176.78" y1="288.54" x2="176.78" y2="293.31"/>
  <text class="cls-14" transform="translate(172.71 307.99)"><tspan x="0" y="0">25</tspan></text>
  <line class="cls-23" x1="191.87" y1="288.54" x2="191.87" y2="293.31"/>
  <text class="cls-14" transform="translate(191.48 307.93)"><tspan x="0" y="0">5</tspan></text>
  <text class="cls-11" transform="translate(212.11 363.09)"><tspan x="0" y="0">Vías e</tspan><tspan class="cls-7" x="22.56" y="0">s</tspan><tspan class="cls-26" x="26.49" y="0">tablecidas →</tspan></text>
  <text class="cls-11" transform="translate(104.12 363.12)"><tspan x="0" y="0">← Vías in</tspan><tspan class="cls-7" x="32.91" y="0">f</tspan><tspan x="35.55" y="0">ormales</tspan></text>
  <text class="cls-15" transform="translate(30.2 121.96)"><tspan x="0" y="0">0-5 años</tspan></text>
  <rect class="cls-19" x="201.69" y="98.58" width="21.57" height="19.91" rx="1.35" ry="1.35"/>
  <text class="cls-12" transform="translate(236.19 112.52)"><tspan x="0" y="0">40</tspan></text>
  <rect class="cls-21" x="191.87" y="98.58" width="2.7" height="19.91" rx="1.35" ry="1.35"/>
  <text class="cls-12" transform="translate(169.79 112.46)"><tspan x="0" y="0">5</tspan></text>
  <text class="cls-15" transform="translate(30.14 161.78)"><tspan x="0" y="0">6-18 años</tspan></text>
  <rect class="cls-19" x="201.69" y="138.4" width="46.38" height="19.91" rx="1.35" ry="1.35"/>
  <text class="cls-12" transform="translate(262.55 152.51)"><tspan x="0" y="0">86</tspan></text>
  <rect class="cls-21" x="189.17" y="138.4" width="5.39" height="19.91" rx="1.35" ry="1.35"/>
  <text class="cls-12" transform="translate(166.19 152.51)"><tspan x="0" y="0">10</tspan></text>
  <text class="cls-15" transform="translate(30.39 197.23)"><tspan x="0" y="0">19-30 años</tspan></text>
  <rect class="cls-19" x="201.69" y="178.22" width="238.92" height="19.91" rx="1.35" ry="1.35"/>
  <text class="cls-12" transform="translate(450.97 191.52)"><tspan x="0" y="0">443</tspan></text>
  <rect class="cls-21" x="187.55" y="178.22" width="7.01" height="19.91" rx="1.35" ry="1.35"/>
  <text class="cls-12" transform="translate(165.9 191.52)"><tspan x="0" y="0">13</tspan></text>
  <text class="cls-15" transform="translate(30.17 235.62)"><tspan class="cls-24" x="0" y="0">3</tspan><tspan x="5.44" y="0">1-60 años</tspan></text>
  <rect class="cls-19" x="201.69" y="218.04" width="236.76" height="19.91" rx="1.35" ry="1.35"/>
  <text class="cls-12" transform="translate(448.33 230.75)"><tspan x="0" y="0">4</tspan><tspan class="cls-25" x="5.87" y="0">3</tspan><tspan x="11.31" y="0">9</tspan></text>
  <rect class="cls-21" x="182.16" y="218.04" width="12.4" height="19.91" rx="1.35" ry="1.35"/>
  <text class="cls-12" transform="translate(162 230.75)"><tspan x="0" y="0">23</tspan></text>
  <text class="cls-15" transform="translate(30.14 274.79)"><tspan x="0" y="0">61-90 años</tspan></text>
  <rect class="cls-19" x="201.69" y="257.86" width="135.37" height="19.91" rx="1.35" ry="1.35"/>
  <text class="cls-12" transform="translate(347.59 271.31)"><tspan x="0" y="0">251</tspan></text>
  <rect class="cls-21" x="189.71" y="257.86" width="4.85" height="19.91" rx="1.35" ry="1.35"/>
  <text class="cls-12" transform="translate(168.63 271.61)"><tspan x="0" y="0">9</tspan></text>
  <text class="cls-10" transform="translate(30.49 44.72)"><tspan class="cls-22" x="0" y="0">Uso de </tspan><tspan class="cls-3" x="53.18" y="0">vías e</tspan><tspan class="cls-4" x="95.8" y="0">s</tspan><tspan class="cls-3" x="103.7" y="0">tablecidas v</tspan><tspan class="cls-6" x="195.4" y="0">/</tspan><tspan class="cls-3" x="201.47" y="0">s in</tspan><tspan class="cls-5" x="226.82" y="0">f</tspan><tspan class="cls-3" x="232.19" y="0">ormales</tspan><tspan class="cls-22" x="292.54" y="0"> </tspan><tspan class="cls-22"><tspan x="0" y="18.35">en plaza los Dominicos por grupo </tspan><tspan class="cls-31" x="239.39" y="18.35">e</tspan><tspan x="247.81" y="18.35">tario</tspan></tspan></text>
  <g>
    <path class="cls-16" d="M404.56,60.64h84.63c.95,0,1.42-.57,1.42-1.71v-24.3c0-1.14-.47-1.71-1.42-1.71h-84.63c-.95,0-1.42,.57-1.42,1.71v24.3c0,1.14,.47,1.71,1.42,1.71Z"/>
    <path class="cls-18" d="M408.7,45.12h13.67c.32,0,.58-.34,.58-.75v-5.2c0-.41-.26-.75-.58-.75h-13.67c-.32,0-.58,.34-.58,.75v5.2c0,.41,.26,.75,.58,.75Z"/>
    <text class="cls-9" transform="translate(427.14 44.38)"><tspan x="0" y="0">VÍAS E</tspan><tspan class="cls-30" x="17.78" y="0">S</tspan><tspan class="cls-2" x="21.16" y="0">T</tspan><tspan class="cls-1" x="24.04" y="0">ABLECI</tspan><tspan class="cls-27" x="43.72" y="0">D</tspan><tspan x="47.37" y="0">AS</tspan></text>
    <path class="cls-20" d="M408.7,54.5h13.67c.32,0,.58-.32,.58-.71v-4.96c0-.39-.26-.71-.58-.71h-13.67c-.32,0-.58,.32-.58,.71v4.96c0,.39,.26,.71,.58,.71Z"/>
    <text class="cls-9" transform="translate(427.08 53.4)"><tspan x="0" y="0">VÍAS INFORMALES</tspan></text>
  </g>
  <text class="cls-13" transform="translate(429.47 76.99)"><tspan class="cls-28" x="0" y="0">T</tspan><tspan class="cls-8" x="3.09" y="0">o</tspan><tspan x="6.85" y="0">tal: 1.</tspan><tspan class="cls-29" x="21.27" y="0">3</tspan><tspan x="25.06" y="0">19 usuarios</tspan></text>
  <g>
    <path class="cls-17" d="M367.12,355.26v-4.11h-1.36v-.45h3.27v.45h-1.36v4.11h-.55Z"/>
    <path class="cls-17" d="M370.58,355.34c-.32,0-.6-.07-.84-.22-.24-.15-.43-.36-.57-.63s-.2-.58-.2-.95,.07-.68,.21-.95c.14-.27,.33-.48,.57-.62,.25-.15,.53-.22,.84-.22s.6,.07,.84,.22,.43,.36,.56,.62c.13,.27,.2,.58,.2,.95s-.07,.68-.21,.95-.33,.48-.57,.63-.53,.22-.85,.22Zm0-.47c.2,0,.38-.05,.54-.15s.29-.25,.38-.44c.09-.2,.14-.44,.14-.73s-.05-.54-.14-.74c-.09-.2-.22-.34-.38-.44-.16-.1-.34-.15-.54-.15s-.37,.05-.53,.15c-.16,.1-.29,.24-.38,.44-.1,.2-.14,.44-.14,.74s.05,.54,.14,.73c.09,.2,.22,.35,.38,.44,.16,.1,.34,.15,.53,.15Z"/>
    <path class="cls-17" d="M374.41,355.34c-.3,0-.57-.08-.81-.23s-.42-.37-.55-.64c-.13-.27-.2-.58-.2-.92s.07-.66,.2-.92c.13-.27,.31-.48,.55-.63s.51-.23,.82-.23c.27,0,.5,.05,.69,.16,.19,.11,.35,.26,.46,.46v-1.81h.55v4.69h-.5l-.05-.55c-.07,.11-.15,.21-.26,.31s-.23,.17-.38,.23c-.15,.06-.32,.09-.52,.09Zm.07-.48c.22,0,.41-.05,.57-.16s.29-.26,.37-.46c.09-.2,.13-.43,.13-.7s-.04-.5-.13-.7c-.09-.2-.21-.35-.37-.46s-.35-.16-.57-.16c-.2,0-.39,.05-.55,.16-.16,.11-.29,.26-.38,.46-.09,.2-.14,.43-.14,.7s.05,.5,.14,.7c.09,.2,.22,.35,.38,.46,.16,.11,.34,.16,.55,.16Z"/>
    <path class="cls-17" d="M378.52,355.34c-.32,0-.6-.07-.84-.22-.24-.15-.43-.36-.57-.63s-.2-.58-.2-.95,.07-.68,.21-.95c.14-.27,.33-.48,.57-.62,.25-.15,.53-.22,.84-.22s.6,.07,.84,.22,.43,.36,.56,.62c.13,.27,.2,.58,.2,.95s-.07,.68-.21,.95-.33,.48-.57,.63-.53,.22-.85,.22Zm0-.47c.2,0,.38-.05,.54-.15s.29-.25,.38-.44c.09-.2,.14-.44,.14-.73s-.05-.54-.14-.74c-.09-.2-.22-.34-.38-.44-.16-.1-.34-.15-.54-.15s-.37,.05-.53,.15c-.16,.1-.29,.24-.38,.44-.1,.2-.14,.44-.14,.74s.05,.54,.14,.73c.09,.2,.22,.35,.38,.44,.16,.1,.34,.15,.53,.15Z"/>
    <path class="cls-17" d="M382.18,355.34c-.31,0-.56-.05-.77-.14-.2-.09-.36-.22-.46-.39-.1-.17-.17-.36-.19-.58h.56c.02,.12,.06,.23,.12,.32,.06,.1,.16,.18,.28,.24,.12,.06,.28,.09,.46,.09,.15,0,.27-.02,.38-.07,.1-.05,.18-.11,.24-.19,.05-.08,.08-.18,.08-.29,0-.14-.03-.25-.09-.34-.06-.08-.15-.14-.27-.18-.12-.04-.27-.07-.45-.09-.19-.03-.36-.06-.51-.11-.15-.05-.27-.11-.38-.19-.1-.08-.18-.18-.23-.29-.05-.12-.08-.26-.08-.42,0-.19,.05-.35,.15-.5,.1-.14,.24-.25,.43-.33,.18-.08,.4-.12,.66-.12,.37,0,.66,.08,.88,.25,.21,.17,.34,.41,.38,.72h-.54c-.02-.16-.1-.29-.22-.38-.13-.09-.29-.14-.5-.14-.22,0-.39,.04-.5,.12-.11,.08-.17,.19-.17,.33,0,.1,.02,.19,.08,.27,.05,.08,.14,.15,.26,.2,.12,.05,.29,.09,.49,.12,.26,.03,.47,.08,.65,.15,.18,.07,.31,.17,.41,.31,.09,.14,.14,.33,.13,.57,0,.23-.05,.42-.16,.57s-.25,.28-.44,.36c-.19,.08-.41,.12-.66,.12Z"/>
    <path class="cls-17" d="M386.01,355.26v-4.69h.55v4.69h-.55Z"/>
    <path class="cls-17" d="M388.96,355.34c-.32,0-.6-.07-.84-.22-.24-.15-.43-.36-.57-.63s-.2-.58-.2-.95,.07-.68,.21-.95c.14-.27,.33-.48,.57-.62,.25-.15,.53-.22,.84-.22s.6,.07,.84,.22,.43,.36,.56,.62c.13,.27,.2,.58,.2,.95s-.07,.68-.21,.95-.33,.48-.57,.63-.53,.22-.85,.22Zm0-.47c.2,0,.38-.05,.54-.15s.29-.25,.38-.44c.09-.2,.14-.44,.14-.73s-.05-.54-.14-.74c-.09-.2-.22-.34-.38-.44-.16-.1-.34-.15-.54-.15s-.37,.05-.53,.15c-.16,.1-.29,.24-.38,.44-.1,.2-.14,.44-.14,.74s.05,.54,.14,.73c.09,.2,.22,.35,.38,.44,.16,.1,.34,.15,.53,.15Z"/>
    <path class="cls-17" d="M392.62,355.34c-.31,0-.56-.05-.77-.14-.2-.09-.36-.22-.46-.39-.1-.17-.17-.36-.19-.58h.56c.02,.12,.06,.23,.12,.32,.06,.1,.16,.18,.28,.24,.12,.06,.28,.09,.46,.09,.15,0,.27-.02,.38-.07,.1-.05,.18-.11,.24-.19,.05-.08,.08-.18,.08-.29,0-.14-.03-.25-.09-.34-.06-.08-.15-.14-.27-.18-.12-.04-.27-.07-.45-.09-.19-.03-.36-.06-.51-.11-.15-.05-.27-.11-.38-.19-.1-.08-.18-.18-.23-.29-.05-.12-.08-.26-.08-.42,0-.19,.05-.35,.15-.5,.1-.14,.24-.25,.43-.33,.18-.08,.4-.12,.66-.12,.37,0,.66,.08,.88,.25,.21,.17,.34,.41,.38,.72h-.54c-.02-.16-.1-.29-.22-.38-.13-.09-.29-.14-.5-.14-.22,0-.39,.04-.5,.12-.11,.08-.17,.19-.17,.33,0,.1,.02,.19,.08,.27,.05,.08,.14,.15,.26,.2,.12,.05,.29,.09,.49,.12,.26,.03,.47,.08,.65,.15,.18,.07,.31,.17,.41,.31,.09,.14,.14,.33,.13,.57,0,.23-.05,.42-.16,.57s-.25,.28-.44,.36c-.19,.08-.41,.12-.66,.12Z"/>
    <path class="cls-17" d="M397.86,355.34c-.3,0-.57-.08-.81-.23s-.42-.37-.55-.64c-.13-.27-.2-.58-.2-.92s.07-.66,.2-.92c.13-.27,.31-.48,.55-.63s.51-.23,.82-.23c.27,0,.5,.05,.69,.16,.19,.11,.35,.26,.46,.46v-1.81h.55v4.69h-.5l-.05-.55c-.07,.11-.15,.21-.26,.31s-.23,.17-.38,.23c-.15,.06-.32,.09-.52,.09Zm.07-.48c.22,0,.41-.05,.57-.16s.29-.26,.37-.46c.09-.2,.13-.43,.13-.7s-.04-.5-.13-.7c-.09-.2-.21-.35-.37-.46s-.35-.16-.57-.16c-.2,0-.39,.05-.55,.16-.16,.11-.29,.26-.38,.46-.09,.2-.14,.43-.14,.7s.05,.5,.14,.7c.09,.2,.22,.35,.38,.46,.16,.11,.34,.16,.55,.16Z"/>
    <path class="cls-17" d="M401.57,355.34c-.26,0-.48-.05-.65-.15s-.3-.23-.39-.39-.13-.34-.13-.52c0-.23,.06-.42,.17-.58,.12-.16,.28-.28,.49-.36,.21-.08,.45-.12,.73-.12h.85c0-.22-.03-.41-.08-.55-.05-.15-.14-.26-.25-.33-.12-.07-.27-.11-.47-.11s-.36,.05-.5,.15c-.14,.1-.23,.24-.26,.43h-.56c.03-.23,.1-.42,.23-.57s.29-.27,.48-.35c.19-.08,.4-.12,.62-.12,.31,0,.56,.06,.76,.17,.2,.11,.35,.27,.44,.46,.1,.2,.14,.43,.14,.7v2.18h-.49l-.03-.59c-.04,.09-.1,.18-.17,.26s-.15,.15-.24,.21c-.09,.06-.2,.11-.31,.14-.12,.03-.24,.05-.38,.05Zm.08-.46c.14,0,.28-.03,.4-.1,.12-.07,.23-.15,.32-.26,.09-.11,.16-.24,.21-.38,.05-.14,.07-.29,.07-.44v-.06h-.81c-.2,0-.37,.03-.5,.08-.13,.05-.22,.12-.28,.22-.06,.09-.08,.2-.08,.32,0,.13,.03,.24,.08,.33,.05,.09,.13,.17,.23,.22,.1,.05,.22,.08,.37,.08Z"/>
    <path class="cls-17" d="M405.33,355.26c-.2,0-.37-.03-.51-.09-.14-.06-.25-.16-.33-.31-.08-.15-.11-.34-.11-.59v-1.98h-.6v-.46h.6l.07-.85h.48v.85h.97v.46h-.97v1.98c0,.2,.04,.34,.12,.41,.08,.07,.23,.11,.44,.11h.4v.47h-.55Z"/>
    <path class="cls-17" d="M408.03,355.34c-.32,0-.6-.07-.84-.22-.24-.15-.43-.36-.57-.63s-.2-.58-.2-.95,.07-.68,.21-.95c.14-.27,.33-.48,.57-.62,.25-.15,.53-.22,.84-.22s.6,.07,.84,.22,.43,.36,.56,.62c.13,.27,.2,.58,.2,.95s-.07,.68-.21,.95-.33,.48-.57,.63-.53,.22-.85,.22Zm0-.47c.2,0,.38-.05,.54-.15s.29-.25,.38-.44c.09-.2,.14-.44,.14-.73s-.05-.54-.14-.74c-.09-.2-.22-.34-.38-.44-.16-.1-.34-.15-.54-.15s-.37,.05-.53,.15c-.16,.1-.29,.24-.38,.44-.1,.2-.14,.44-.14,.74s.05,.54,.14,.73c.09,.2,.22,.35,.38,.44,.16,.1,.34,.15,.53,.15Z"/>
    <path class="cls-17" d="M411.69,355.34c-.31,0-.56-.05-.77-.14-.2-.09-.36-.22-.46-.39-.1-.17-.17-.36-.19-.58h.56c.02,.12,.06,.23,.12,.32,.06,.1,.16,.18,.28,.24,.12,.06,.28,.09,.46,.09,.15,0,.27-.02,.38-.07,.1-.05,.18-.11,.24-.19,.05-.08,.08-.18,.08-.29,0-.14-.03-.25-.09-.34-.06-.08-.15-.14-.27-.18-.12-.04-.27-.07-.45-.09-.19-.03-.36-.06-.51-.11-.15-.05-.27-.11-.38-.19-.1-.08-.18-.18-.23-.29-.05-.12-.08-.26-.08-.42,0-.19,.05-.35,.15-.5,.1-.14,.24-.25,.43-.33,.18-.08,.4-.12,.66-.12,.37,0,.66,.08,.88,.25,.21,.17,.34,.41,.38,.72h-.54c-.02-.16-.1-.29-.22-.38-.13-.09-.29-.14-.5-.14-.22,0-.39,.04-.5,.12-.11,.08-.17,.19-.17,.33,0,.1,.02,.19,.08,.27,.05,.08,.14,.15,.26,.2,.12,.05,.29,.09,.49,.12,.26,.03,.47,.08,.65,.15,.18,.07,.31,.17,.41,.31,.09,.14,.14,.33,.13,.57,0,.23-.05,.42-.16,.57s-.25,.28-.44,.36c-.19,.08-.41,.12-.66,.12Z"/>
    <path class="cls-17" d="M415.2,352.29v-.46h2v.46h-2Zm.53,2.97v-3.79c0-.21,.04-.38,.1-.51s.17-.23,.31-.29c.14-.06,.31-.09,.51-.09h.5v.47h-.41c-.17,0-.28,.03-.36,.1-.07,.07-.11,.18-.11,.35v3.78h-.55Z"/>
    <path class="cls-17" d="M419.11,355.34c-.25,0-.47-.05-.66-.14-.19-.1-.33-.24-.44-.44-.1-.2-.16-.44-.16-.74v-2.18h.55v2.13c0,.3,.08,.53,.22,.68,.15,.15,.35,.23,.6,.23,.17,0,.33-.04,.47-.12,.14-.08,.25-.2,.34-.36,.08-.16,.13-.35,.13-.57v-1.99h.55v3.43h-.5l-.03-.55c-.09,.2-.23,.35-.42,.46s-.41,.16-.66,.16Z"/>
    <path class="cls-17" d="M423.06,355.34c-.3,0-.57-.07-.81-.22-.24-.15-.42-.36-.55-.63-.13-.27-.2-.58-.2-.95s.07-.68,.2-.95c.13-.27,.32-.48,.55-.63s.51-.22,.82-.22c.33,0,.61,.07,.83,.22s.39,.35,.5,.59c.11,.25,.17,.52,.17,.81v.13s0,.1,0,.16h-2.65v-.42h2.13c0-.33-.11-.59-.29-.77-.18-.18-.41-.26-.69-.26-.18,0-.35,.04-.51,.13s-.28,.22-.38,.39-.14,.39-.14,.65v.18c0,.29,.05,.53,.14,.72s.22,.34,.38,.43,.32,.14,.51,.14c.24,0,.43-.05,.57-.14,.14-.09,.24-.23,.31-.4h.54c-.05,.19-.14,.36-.27,.51-.13,.15-.29,.27-.48,.36s-.42,.13-.67,.13Z"/>
    <path class="cls-17" d="M425.33,355.26v-3.43h.5l.04,.63c.08-.16,.18-.29,.31-.39,.13-.1,.28-.18,.46-.24,.18-.05,.38-.08,.61-.08v.57h-.34c-.13,0-.26,.02-.38,.05-.12,.04-.23,.09-.33,.17-.1,.08-.18,.18-.23,.32-.06,.13-.08,.3-.08,.51v1.88h-.55Z"/>
    <path class="cls-17" d="M429.22,355.34c-.32,0-.6-.07-.84-.22-.24-.15-.43-.36-.57-.63s-.2-.58-.2-.95,.07-.68,.21-.95c.14-.27,.33-.48,.57-.62,.25-.15,.53-.22,.84-.22s.6,.07,.84,.22,.43,.36,.56,.62c.13,.27,.2,.58,.2,.95s-.07,.68-.21,.95-.33,.48-.57,.63-.53,.22-.85,.22Zm0-.47c.2,0,.38-.05,.54-.15s.29-.25,.38-.44c.09-.2,.14-.44,.14-.73s-.05-.54-.14-.74c-.09-.2-.22-.34-.38-.44-.16-.1-.34-.15-.54-.15s-.37,.05-.53,.15c-.16,.1-.29,.24-.38,.44-.1,.2-.14,.44-.14,.74s.05,.54,.14,.73c.09,.2,.22,.35,.38,.44,.16,.1,.34,.15,.53,.15Z"/>
    <path class="cls-17" d="M431.64,355.26v-3.43h.5l.03,.54c.1-.2,.25-.35,.43-.46,.19-.11,.41-.16,.66-.16s.47,.05,.66,.14c.19,.1,.33,.24,.44,.44,.1,.2,.16,.44,.16,.74v2.18h-.55v-2.13c0-.3-.08-.53-.22-.68-.15-.15-.35-.23-.6-.23-.17,0-.33,.04-.47,.12-.14,.08-.26,.2-.34,.36s-.13,.35-.13,.57v1.99h-.55Z"/>
    <path class="cls-17" d="M437.16,355.26v-3.43h.5l.04,.63c.08-.16,.18-.29,.31-.39,.13-.1,.28-.18,.46-.24,.18-.05,.38-.08,.61-.08v.57h-.34c-.13,0-.26,.02-.38,.05-.12,.04-.23,.09-.33,.17-.1,.08-.18,.18-.23,.32-.06,.13-.08,.3-.08,.51v1.88h-.55Z"/>
    <path class="cls-17" d="M441,355.34c-.3,0-.57-.07-.81-.22-.24-.15-.42-.36-.55-.63-.13-.27-.2-.58-.2-.95s.07-.68,.2-.95c.13-.27,.32-.48,.55-.63s.51-.22,.82-.22c.33,0,.61,.07,.83,.22s.39,.35,.5,.59c.11,.25,.17,.52,.17,.81v.13s0,.1,0,.16h-2.65v-.42h2.13c0-.33-.11-.59-.29-.77-.18-.18-.41-.26-.69-.26-.18,0-.35,.04-.51,.13s-.28,.22-.38,.39-.14,.39-.14,.65v.18c0,.29,.05,.53,.14,.72s.22,.34,.38,.43,.32,.14,.51,.14c.24,0,.43-.05,.57-.14,.14-.09,.24-.23,.31-.4h.54c-.05,.19-.14,.36-.27,.51-.13,.15-.29,.27-.48,.36s-.42,.13-.67,.13Z"/>
    <path class="cls-17" d="M444.75,355.34c-.31,0-.59-.08-.83-.22-.24-.15-.43-.36-.57-.63-.14-.27-.21-.58-.21-.94s.07-.67,.21-.94c.14-.27,.33-.48,.57-.63,.24-.15,.52-.22,.83-.22,.39,0,.72,.1,.98,.31,.26,.21,.43,.49,.51,.84h-.56c-.05-.22-.16-.39-.33-.51-.17-.12-.37-.18-.6-.18-.2,0-.38,.05-.54,.15-.16,.1-.28,.25-.38,.44-.09,.2-.14,.44-.14,.73,0,.22,.03,.41,.08,.58,.05,.17,.12,.31,.22,.42,.09,.11,.2,.19,.33,.25,.13,.06,.27,.08,.42,.08s.3-.03,.43-.08c.13-.05,.24-.13,.33-.24s.15-.23,.18-.37h.56c-.07,.34-.24,.62-.51,.83-.27,.21-.59,.32-.98,.32Z"/>
    <path class="cls-17" d="M448.51,355.34c-.32,0-.6-.07-.84-.22-.24-.15-.43-.36-.57-.63s-.2-.58-.2-.95,.07-.68,.21-.95c.14-.27,.33-.48,.57-.62,.25-.15,.53-.22,.84-.22s.6,.07,.84,.22,.43,.36,.56,.62c.13,.27,.2,.58,.2,.95s-.07,.68-.21,.95-.33,.48-.57,.63-.53,.22-.85,.22Zm0-.47c.2,0,.38-.05,.54-.15s.29-.25,.38-.44c.09-.2,.14-.44,.14-.73s-.05-.54-.14-.74c-.09-.2-.22-.34-.38-.44-.16-.1-.34-.15-.54-.15s-.37,.05-.53,.15c-.16,.1-.29,.24-.38,.44-.1,.2-.14,.44-.14,.74s.05,.54,.14,.73c.09,.2,.22,.35,.38,.44,.16,.1,.34,.15,.53,.15Z"/>
    <path class="cls-17" d="M450.92,356.7v-4.86h.5l.05,.54c.07-.11,.16-.22,.26-.31,.11-.09,.23-.17,.38-.22,.15-.06,.32-.08,.52-.08,.31,0,.58,.08,.81,.23,.23,.16,.41,.37,.54,.64s.2,.58,.2,.93-.06,.65-.2,.92-.31,.48-.55,.64c-.23,.15-.51,.23-.81,.23-.27,0-.5-.05-.7-.16s-.35-.26-.46-.46v1.98h-.55Zm1.64-1.83c.2,0,.39-.05,.54-.16,.16-.11,.29-.26,.38-.46,.09-.2,.14-.43,.14-.7s-.05-.5-.14-.7c-.09-.2-.22-.35-.38-.46-.16-.11-.34-.16-.54-.16-.22,0-.41,.05-.57,.16s-.29,.26-.37,.46c-.09,.2-.13,.43-.13,.7s.04,.5,.13,.7c.09,.2,.21,.35,.37,.46s.35,.16,.57,.16Z"/>
    <path class="cls-17" d="M455.31,351.18c-.11,0-.2-.04-.27-.11-.07-.07-.11-.16-.11-.27s.04-.2,.11-.26c.07-.07,.16-.1,.27-.1s.19,.03,.27,.1c.07,.07,.11,.16,.11,.26s-.04,.2-.11,.27c-.07,.07-.16,.11-.27,.11Zm-.27,4.08v-3.43h.55v3.43h-.55Z"/>
    <path class="cls-17" d="M456.55,355.26v-4.69h.55v4.69h-.55Z"/>
    <path class="cls-17" d="M459.09,355.34c-.26,0-.48-.05-.65-.15s-.3-.23-.39-.39-.13-.34-.13-.52c0-.23,.06-.42,.17-.58,.12-.16,.28-.28,.49-.36,.21-.08,.45-.12,.73-.12h.85c0-.22-.03-.41-.08-.55-.05-.15-.14-.26-.25-.33-.12-.07-.27-.11-.47-.11s-.36,.05-.5,.15c-.14,.1-.23,.24-.26,.43h-.56c.03-.23,.1-.42,.23-.57s.29-.27,.48-.35c.19-.08,.4-.12,.62-.12,.31,0,.56,.06,.76,.17,.2,.11,.35,.27,.44,.46,.1,.2,.14,.43,.14,.7v2.18h-.49l-.03-.59c-.04,.09-.1,.18-.17,.26s-.15,.15-.24,.21c-.09,.06-.2,.11-.31,.14-.12,.03-.24,.05-.38,.05Zm.08-.46c.14,0,.28-.03,.4-.1,.12-.07,.23-.15,.32-.26,.09-.11,.16-.24,.21-.38,.05-.14,.07-.29,.07-.44v-.06h-.81c-.2,0-.37,.03-.5,.08-.13,.05-.22,.12-.28,.22-.06,.09-.08,.2-.08,.32,0,.13,.03,.24,.08,.33,.05,.09,.13,.17,.23,.22,.1,.05,.22,.08,.37,.08Z"/>
    <path class="cls-17" d="M463.03,355.34c-.3,0-.57-.08-.81-.23s-.42-.37-.55-.64c-.13-.27-.2-.58-.2-.92s.07-.66,.2-.92c.13-.27,.31-.48,.55-.63s.51-.23,.82-.23c.27,0,.5,.05,.69,.16,.19,.11,.35,.26,.46,.46v-1.81h.55v4.69h-.5l-.05-.55c-.07,.11-.15,.21-.26,.31s-.23,.17-.38,.23c-.15,.06-.32,.09-.52,.09Zm.07-.48c.22,0,.41-.05,.57-.16s.29-.26,.37-.46c.09-.2,.13-.43,.13-.7s-.04-.5-.13-.7c-.09-.2-.21-.35-.37-.46s-.35-.16-.57-.16c-.2,0-.39,.05-.55,.16-.16,.11-.29,.26-.38,.46-.09,.2-.14,.43-.14,.7s.05,.5,.14,.7c.09,.2,.22,.35,.38,.46,.16,.11,.34,.16,.55,.16Z"/>
    <path class="cls-17" d="M467.14,355.34c-.32,0-.6-.07-.84-.22-.24-.15-.43-.36-.57-.63s-.2-.58-.2-.95,.07-.68,.21-.95c.14-.27,.33-.48,.57-.62,.25-.15,.53-.22,.84-.22s.6,.07,.84,.22,.43,.36,.56,.62c.13,.27,.2,.58,.2,.95s-.07,.68-.21,.95-.33,.48-.57,.63-.53,.22-.85,.22Zm0-.47c.2,0,.38-.05,.54-.15s.29-.25,.38-.44c.09-.2,.14-.44,.14-.73s-.05-.54-.14-.74c-.09-.2-.22-.34-.38-.44-.16-.1-.34-.15-.54-.15s-.37,.05-.53,.15c-.16,.1-.29,.24-.38,.44-.1,.2-.14,.44-.14,.74s.05,.54,.14,.73c.09,.2,.22,.35,.38,.44,.16,.1,.34,.15,.53,.15Z"/>
    <path class="cls-17" d="M470.8,355.34c-.31,0-.56-.05-.77-.14-.2-.09-.36-.22-.46-.39-.1-.17-.17-.36-.19-.58h.56c.02,.12,.06,.23,.12,.32,.06,.1,.16,.18,.28,.24,.12,.06,.28,.09,.46,.09,.15,0,.27-.02,.38-.07,.1-.05,.18-.11,.24-.19,.05-.08,.08-.18,.08-.29,0-.14-.03-.25-.09-.34-.06-.08-.15-.14-.27-.18-.12-.04-.27-.07-.45-.09-.19-.03-.36-.06-.51-.11-.15-.05-.27-.11-.38-.19-.1-.08-.18-.18-.23-.29-.05-.12-.08-.26-.08-.42,0-.19,.05-.35,.15-.5,.1-.14,.24-.25,.43-.33,.18-.08,.4-.12,.66-.12,.37,0,.66,.08,.88,.25,.21,.17,.34,.41,.38,.72h-.54c-.02-.16-.1-.29-.22-.38-.13-.09-.29-.14-.5-.14-.22,0-.39,.04-.5,.12-.11,.08-.17,.19-.17,.33,0,.1,.02,.19,.08,.27,.05,.08,.14,.15,.26,.2,.12,.05,.29,.09,.49,.12,.26,.03,.47,.08,.65,.15,.18,.07,.31,.17,.41,.31,.09,.14,.14,.33,.13,.57,0,.23-.05,.42-.16,.57s-.25,.28-.44,.36c-.19,.08-.41,.12-.66,.12Z"/>
    <path class="cls-17" d="M476.05,355.34c-.3,0-.57-.07-.81-.22-.24-.15-.42-.36-.55-.63-.13-.27-.2-.58-.2-.95s.07-.68,.2-.95c.13-.27,.32-.48,.55-.63s.51-.22,.82-.22c.33,0,.61,.07,.83,.22s.39,.35,.5,.59c.11,.25,.17,.52,.17,.81v.13s0,.1,0,.16h-2.65v-.42h2.13c0-.33-.11-.59-.29-.77-.18-.18-.41-.26-.69-.26-.18,0-.35,.04-.51,.13s-.28,.22-.38,.39-.14,.39-.14,.65v.18c0,.29,.05,.53,.14,.72s.22,.34,.38,.43,.32,.14,.51,.14c.24,0,.43-.05,.57-.14,.14-.09,.24-.23,.31-.4h.54c-.05,.19-.14,.36-.27,.51-.13,.15-.29,.27-.48,.36s-.42,.13-.67,.13Z"/>
    <path class="cls-17" d="M478.32,355.26v-3.43h.5l.03,.54c.1-.2,.25-.35,.43-.46,.19-.11,.41-.16,.66-.16s.47,.05,.66,.14c.19,.1,.33,.24,.44,.44,.1,.2,.16,.44,.16,.74v2.18h-.55v-2.13c0-.3-.08-.53-.22-.68-.15-.15-.35-.23-.6-.23-.17,0-.33,.04-.47,.12-.14,.08-.26,.2-.34,.36s-.13,.35-.13,.57v1.99h-.55Z"/>
    <path class="cls-17" d="M483.42,355.26c-.2,0-.37-.03-.51-.09-.14-.06-.25-.16-.33-.31-.08-.15-.11-.34-.11-.59v-1.98h-.6v-.46h.6l.07-.85h.48v.85h.97v.46h-.97v1.98c0,.2,.04,.34,.12,.41,.08,.07,.23,.11,.44,.11h.4v.47h-.55Z"/>
    <path class="cls-17" d="M484.74,355.26v-3.43h.5l.04,.63c.08-.16,.18-.29,.31-.39,.13-.1,.28-.18,.46-.24,.18-.05,.38-.08,.61-.08v.57h-.34c-.13,0-.26,.02-.38,.05-.12,.04-.23,.09-.33,.17-.1,.08-.18,.18-.23,.32-.06,.13-.08,.3-.08,.51v1.88h-.55Z"/>
    <path class="cls-17" d="M488.58,355.34c-.3,0-.57-.07-.81-.22-.24-.15-.42-.36-.55-.63-.13-.27-.2-.58-.2-.95s.07-.68,.2-.95c.13-.27,.32-.48,.55-.63s.51-.22,.82-.22c.33,0,.61,.07,.83,.22s.39,.35,.5,.59c.11,.25,.17,.52,.17,.81v.13s0,.1,0,.16h-2.65v-.42h2.13c0-.33-.11-.59-.29-.77-.18-.18-.41-.26-.69-.26-.18,0-.35,.04-.51,.13s-.28,.22-.38,.39-.14,.39-.14,.65v.18c0,.29,.05,.53,.14,.72s.22,.34,.38,.43,.32,.14,.51,.14c.24,0,.43-.05,.57-.14,.14-.09,.24-.23,.31-.4h.54c-.05,.19-.14,.36-.27,.51-.13,.15-.29,.27-.48,.36s-.42,.13-.67,.13Z"/>
    <path class="cls-17" d="M385.07,363.16c-.3,0-.57-.07-.81-.22-.24-.15-.42-.36-.55-.63-.13-.27-.2-.58-.2-.95s.07-.68,.2-.95c.13-.27,.32-.48,.55-.63s.51-.22,.82-.22c.33,0,.61,.07,.83,.22s.39,.35,.5,.59c.11,.25,.17,.52,.17,.81v.13s0,.1,0,.16h-2.65v-.42h2.13c0-.33-.11-.59-.29-.77-.18-.18-.41-.26-.69-.26-.18,0-.35,.04-.51,.13s-.28,.22-.38,.39-.14,.39-.14,.65v.18c0,.29,.05,.53,.14,.72s.22,.34,.38,.43,.32,.14,.51,.14c.24,0,.43-.05,.57-.14,.14-.09,.24-.23,.31-.4h.54c-.05,.19-.14,.36-.27,.51-.13,.15-.29,.27-.48,.36s-.42,.13-.67,.13Z"/>
    <path class="cls-17" d="M387.34,363.09v-4.69h.55v4.69h-.55Z"/>
    <path class="cls-17" d="M389.94,364.52v-.47h.25c.17,0,.28-.03,.35-.1s.1-.18,.1-.34v-3.95h.55v3.96c0,.21-.04,.38-.1,.51-.07,.13-.17,.23-.31,.29-.14,.06-.31,.09-.5,.09h-.34Zm.99-5.52c-.11,0-.2-.04-.27-.11s-.11-.16-.11-.27,.04-.2,.11-.26c.07-.07,.16-.1,.27-.1s.19,.03,.26,.1c.07,.07,.11,.16,.11,.26s-.04,.2-.11,.27-.16,.11-.26,.11Z"/>
    <path class="cls-17" d="M393.39,363.16c-.25,0-.47-.05-.66-.14-.19-.1-.33-.24-.44-.44-.1-.2-.16-.44-.16-.74v-2.18h.55v2.13c0,.3,.08,.53,.22,.68,.15,.15,.35,.23,.6,.23,.17,0,.33-.04,.47-.12,.14-.08,.25-.2,.34-.36,.08-.16,.13-.35,.13-.57v-1.99h.55v3.43h-.5l-.03-.55c-.09,.2-.23,.35-.42,.46s-.41,.16-.66,.16Z"/>
    <path class="cls-17" d="M397.34,363.16c-.3,0-.57-.07-.81-.22-.24-.15-.42-.36-.55-.63-.13-.27-.2-.58-.2-.95s.07-.68,.2-.95c.13-.27,.32-.48,.55-.63s.51-.22,.82-.22c.33,0,.61,.07,.83,.22s.39,.35,.5,.59c.11,.25,.17,.52,.17,.81v.13s0,.1,0,.16h-2.65v-.42h2.13c0-.33-.11-.59-.29-.77-.18-.18-.41-.26-.69-.26-.18,0-.35,.04-.51,.13s-.28,.22-.38,.39-.14,.39-.14,.65v.18c0,.29,.05,.53,.14,.72s.22,.34,.38,.43,.32,.14,.51,.14c.24,0,.43-.05,.57-.14,.14-.09,.24-.23,.31-.4h.54c-.05,.19-.14,.36-.27,.51-.13,.15-.29,.27-.48,.36s-.42,.13-.67,.13Z"/>
    <path class="cls-17" d="M400.48,363.09l-1.3-3.43h.58l1.04,2.9,1.05-2.9h.56l-1.3,3.43h-.63Z"/>
    <path class="cls-17" d="M404.29,363.16c-.3,0-.57-.07-.81-.22-.24-.15-.42-.36-.55-.63-.13-.27-.2-.58-.2-.95s.07-.68,.2-.95c.13-.27,.32-.48,.55-.63s.51-.22,.82-.22c.33,0,.61,.07,.83,.22s.39,.35,.5,.59c.11,.25,.17,.52,.17,.81v.13s0,.1,0,.16h-2.65v-.42h2.13c0-.33-.11-.59-.29-.77-.18-.18-.41-.26-.69-.26-.18,0-.35,.04-.51,.13s-.28,.22-.38,.39-.14,.39-.14,.65v.18c0,.29,.05,.53,.14,.72s.22,.34,.38,.43,.32,.14,.51,.14c.24,0,.43-.05,.57-.14,.14-.09,.24-.23,.31-.4h.54c-.05,.19-.14,.36-.27,.51-.13,.15-.29,.27-.48,.36s-.42,.13-.67,.13Z"/>
    <path class="cls-17" d="M407.79,363.16c-.31,0-.56-.05-.77-.14-.2-.09-.36-.22-.46-.39-.1-.17-.17-.36-.19-.58h.56c.02,.12,.06,.23,.12,.32,.06,.1,.16,.18,.28,.24,.12,.06,.28,.09,.46,.09,.15,0,.27-.02,.38-.07,.1-.05,.18-.11,.24-.19,.05-.08,.08-.18,.08-.29,0-.14-.03-.25-.09-.34-.06-.08-.15-.14-.27-.18-.12-.04-.27-.07-.45-.09-.19-.03-.36-.06-.51-.11-.15-.05-.27-.11-.38-.19-.1-.08-.18-.18-.23-.29-.05-.12-.08-.26-.08-.42,0-.19,.05-.35,.15-.5,.1-.14,.24-.25,.43-.33,.18-.08,.4-.12,.66-.12,.37,0,.66,.08,.88,.25,.21,.17,.34,.41,.38,.72h-.54c-.02-.16-.1-.29-.22-.38-.13-.09-.29-.14-.5-.14-.22,0-.39,.04-.5,.12-.11,.08-.17,.19-.17,.33,0,.1,.02,.19,.08,.27,.05,.08,.14,.15,.26,.2,.12,.05,.29,.09,.49,.12,.26,.03,.47,.08,.65,.15,.18,.07,.31,.17,.41,.31,.09,.14,.14,.33,.13,.57,0,.23-.05,.42-.16,.57s-.25,.28-.44,.36c-.19,.08-.41,.12-.66,.12Z"/>
    <path class="cls-17" d="M412.18,363.09l1.67-4.09h-2.5v-.47h3.06v.41l-1.66,4.15h-.58Z"/>
    <path class="cls-17" d="M417.27,364.52l.78-1.8h-.19l-1.28-3.06h.59l1.06,2.64,1.11-2.64h.57l-2.07,4.86h-.57Z"/>
    <path class="cls-17" d="M423.7,363.16c-.3,0-.57-.07-.81-.22-.24-.15-.42-.36-.55-.63-.13-.27-.2-.58-.2-.95s.07-.68,.2-.95c.13-.27,.32-.48,.55-.63s.51-.22,.82-.22c.33,0,.61,.07,.83,.22s.39,.35,.5,.59c.11,.25,.17,.52,.17,.81v.13s0,.1,0,.16h-2.65v-.42h2.13c0-.33-.11-.59-.29-.77-.18-.18-.41-.26-.69-.26-.18,0-.35,.04-.51,.13s-.28,.22-.38,.39-.14,.39-.14,.65v.18c0,.29,.05,.53,.14,.72s.22,.34,.38,.43,.32,.14,.51,.14c.24,0,.43-.05,.57-.14,.14-.09,.24-.23,.31-.4h.54c-.05,.19-.14,.36-.27,.51-.13,.15-.29,.27-.48,.36s-.42,.13-.67,.13Z"/>
    <path class="cls-17" d="M425.97,363.09v-4.69h.55v4.69h-.55Z"/>
    <path class="cls-17" d="M430.43,363.16c-.31,0-.56-.05-.77-.14-.2-.09-.36-.22-.46-.39-.1-.17-.17-.36-.19-.58h.56c.02,.12,.06,.23,.12,.32,.06,.1,.16,.18,.28,.24,.12,.06,.28,.09,.46,.09,.15,0,.27-.02,.38-.07,.1-.05,.18-.11,.24-.19,.05-.08,.08-.18,.08-.29,0-.14-.03-.25-.09-.34-.06-.08-.15-.14-.27-.18-.12-.04-.27-.07-.45-.09-.19-.03-.36-.06-.51-.11-.15-.05-.27-.11-.38-.19-.1-.08-.18-.18-.23-.29-.05-.12-.08-.26-.08-.42,0-.19,.05-.35,.15-.5,.1-.14,.24-.25,.43-.33,.18-.08,.4-.12,.66-.12,.37,0,.66,.08,.88,.25,.21,.17,.34,.41,.38,.72h-.54c-.02-.16-.1-.29-.22-.38-.13-.09-.29-.14-.5-.14-.22,0-.39,.04-.5,.12-.11,.08-.17,.19-.17,.33,0,.1,.02,.19,.08,.27,.05,.08,.14,.15,.26,.2,.12,.05,.29,.09,.49,.12,.26,.03,.47,.08,.65,.15,.18,.07,.31,.17,.41,.31,.09,.14,.14,.33,.13,.57,0,.23-.05,.42-.16,.57s-.25,.28-.44,.36c-.19,.08-.41,.12-.66,.12Z"/>
    <path class="cls-17" d="M433.58,363.16c-.26,0-.48-.05-.65-.15s-.3-.23-.39-.39-.13-.34-.13-.52c0-.23,.06-.42,.17-.58,.12-.16,.28-.28,.49-.36,.21-.08,.45-.12,.73-.12h.85c0-.22-.03-.41-.08-.55-.05-.15-.14-.26-.25-.33-.12-.07-.27-.11-.47-.11s-.36,.05-.5,.15c-.14,.1-.23,.24-.26,.43h-.56c.03-.23,.1-.42,.23-.57s.29-.27,.48-.35c.19-.08,.4-.12,.62-.12,.31,0,.56,.06,.76,.17,.2,.11,.35,.27,.44,.46,.1,.2,.14,.43,.14,.7v2.18h-.49l-.03-.59c-.04,.09-.1,.18-.17,.26s-.15,.15-.24,.21c-.09,.06-.2,.11-.31,.14-.12,.03-.24,.05-.38,.05Zm.08-.46c.14,0,.28-.03,.4-.1,.12-.07,.23-.15,.32-.26,.09-.11,.16-.24,.21-.38,.05-.14,.07-.29,.07-.44v-.06h-.81c-.2,0-.37,.03-.5,.08-.13,.05-.22,.12-.28,.22-.06,.09-.08,.2-.08,.32,0,.13,.03,.24,.08,.33,.05,.09,.13,.17,.23,.22,.1,.05,.22,.08,.37,.08Zm-.35-3.33l-.23-.35,1.14-.83,.31,.44-1.22,.74Z"/>
    <path class="cls-17" d="M437.81,363.16c-.21,0-.39-.03-.54-.09-.15-.06-.28-.14-.38-.24-.1-.1-.19-.19-.25-.28l-.05,.53h-.5v-4.69h.55v1.81c.1-.2,.26-.36,.46-.46s.43-.16,.68-.16c.31,0,.59,.08,.82,.23,.24,.15,.42,.36,.55,.63s.2,.58,.2,.92-.06,.65-.2,.93c-.13,.27-.31,.49-.54,.65-.23,.16-.5,.23-.81,.23Zm-.07-.48c.2,0,.39-.05,.54-.16,.16-.11,.29-.26,.38-.46,.09-.2,.14-.43,.14-.7s-.05-.5-.14-.7c-.09-.2-.22-.35-.38-.46-.16-.11-.34-.16-.54-.16-.22,0-.41,.05-.57,.16s-.29,.26-.37,.46c-.09,.2-.13,.43-.13,.7s.04,.5,.13,.7c.09,.2,.21,.35,.37,.46s.35,.16,.57,.16Z"/>
    <path class="cls-17" d="M441.23,363.16c-.26,0-.48-.05-.65-.15s-.3-.23-.39-.39-.13-.34-.13-.52c0-.23,.06-.42,.17-.58,.12-.16,.28-.28,.49-.36,.21-.08,.45-.12,.73-.12h.85c0-.22-.03-.41-.08-.55-.05-.15-.14-.26-.25-.33-.12-.07-.27-.11-.47-.11s-.36,.05-.5,.15c-.14,.1-.23,.24-.26,.43h-.56c.03-.23,.1-.42,.23-.57s.29-.27,.48-.35c.19-.08,.4-.12,.62-.12,.31,0,.56,.06,.76,.17,.2,.11,.35,.27,.44,.46,.1,.2,.14,.43,.14,.7v2.18h-.49l-.03-.59c-.04,.09-.1,.18-.17,.26s-.15,.15-.24,.21c-.09,.06-.2,.11-.31,.14-.12,.03-.24,.05-.38,.05Zm.08-.46c.14,0,.28-.03,.4-.1,.12-.07,.23-.15,.32-.26,.09-.11,.16-.24,.21-.38,.05-.14,.07-.29,.07-.44v-.06h-.81c-.2,0-.37,.03-.5,.08-.13,.05-.22,.12-.28,.22-.06,.09-.08,.2-.08,.32,0,.13,.03,.24,.08,.33,.05,.09,.13,.17,.23,.22,.1,.05,.22,.08,.37,.08Z"/>
    <path class="cls-17" d="M445.17,363.16c-.3,0-.57-.08-.81-.23s-.42-.37-.55-.64c-.13-.27-.2-.58-.2-.92s.07-.66,.2-.92c.13-.27,.31-.48,.55-.63s.51-.23,.82-.23c.27,0,.5,.05,.69,.16,.19,.11,.35,.26,.46,.46v-1.81h.55v4.69h-.5l-.05-.55c-.07,.11-.15,.21-.26,.31s-.23,.17-.38,.23c-.15,.06-.32,.09-.52,.09Zm.07-.48c.22,0,.41-.05,.57-.16s.29-.26,.37-.46c.09-.2,.13-.43,.13-.7s-.04-.5-.13-.7c-.09-.2-.21-.35-.37-.46s-.35-.16-.57-.16c-.2,0-.39,.05-.55,.16-.16,.11-.29,.26-.38,.46-.09,.2-.14,.43-.14,.7s.05,.5,.14,.7c.09,.2,.22,.35,.38,.46,.16,.11,.34,.16,.55,.16Z"/>
    <path class="cls-17" d="M449.27,363.16c-.32,0-.6-.07-.84-.22-.24-.15-.43-.36-.57-.63s-.2-.58-.2-.95,.07-.68,.21-.95c.14-.27,.33-.48,.57-.62,.25-.15,.53-.22,.84-.22s.6,.07,.84,.22,.43,.36,.56,.62c.13,.27,.2,.58,.2,.95s-.07,.68-.21,.95-.33,.48-.57,.63-.53,.22-.85,.22Zm0-.47c.2,0,.38-.05,.54-.15s.29-.25,.38-.44c.09-.2,.14-.44,.14-.73s-.05-.54-.14-.74c-.09-.2-.22-.34-.38-.44-.16-.1-.34-.15-.54-.15s-.37,.05-.53,.15c-.16,.1-.29,.24-.38,.44-.1,.2-.14,.44-.14,.74s.05,.54,.14,.73c.09,.2,.22,.35,.38,.44,.16,.1,.34,.15,.53,.15Z"/>
    <path class="cls-17" d="M454.93,363.16c-.28,0-.53-.05-.73-.16-.21-.11-.37-.25-.49-.44-.12-.18-.19-.38-.23-.6h.51c.05,.23,.15,.41,.32,.53s.37,.19,.63,.19c.23,0,.43-.07,.61-.21,.17-.14,.31-.34,.42-.62,.11-.28,.17-.62,.19-1.05,0-.03,0-.05,0-.08v-.08c-.06,.14-.15,.27-.27,.38-.12,.12-.27,.21-.44,.28-.17,.07-.36,.11-.58,.11-.25,0-.49-.06-.71-.18-.22-.12-.4-.29-.53-.51-.13-.22-.2-.48-.2-.77,0-.26,.06-.5,.19-.74s.3-.43,.53-.57c.23-.15,.5-.22,.8-.22,.33,0,.6,.06,.83,.18,.22,.12,.4,.29,.53,.49,.13,.21,.23,.44,.29,.7,.06,.26,.09,.53,.09,.8,0,.5-.07,.94-.21,1.32-.14,.38-.33,.68-.59,.9-.26,.21-.58,.32-.95,.32Zm.04-2.2c.2,0,.37-.04,.53-.13,.16-.09,.28-.21,.38-.37,.09-.15,.14-.33,.14-.52s-.05-.38-.14-.54c-.09-.15-.22-.27-.38-.35-.16-.08-.33-.13-.53-.13s-.36,.04-.51,.13c-.15,.09-.27,.21-.36,.36s-.13,.33-.13,.54,.04,.38,.13,.53,.21,.27,.36,.36c.15,.08,.32,.13,.51,.13Z"/>
    <path class="cls-17" d="M460.68,363.16c-.3,0-.57-.08-.81-.23s-.42-.37-.55-.64c-.13-.27-.2-.58-.2-.92s.07-.66,.2-.92c.13-.27,.31-.48,.55-.63s.51-.23,.82-.23c.27,0,.5,.05,.69,.16,.19,.11,.35,.26,.46,.46v-1.81h.55v4.69h-.5l-.05-.55c-.07,.11-.15,.21-.26,.31s-.23,.17-.38,.23c-.15,.06-.32,.09-.52,.09Zm.07-.48c.22,0,.41-.05,.57-.16s.29-.26,.37-.46c.09-.2,.13-.43,.13-.7s-.04-.5-.13-.7c-.09-.2-.21-.35-.37-.46s-.35-.16-.57-.16c-.2,0-.39,.05-.55,.16-.16,.11-.29,.26-.38,.46-.09,.2-.14,.43-.14,.7s.05,.5,.14,.7c.09,.2,.22,.35,.38,.46,.16,.11,.34,.16,.55,.16Z"/>
    <path class="cls-17" d="M464.74,363.16c-.3,0-.57-.07-.81-.22-.24-.15-.42-.36-.55-.63-.13-.27-.2-.58-.2-.95s.07-.68,.2-.95c.13-.27,.32-.48,.55-.63s.51-.22,.82-.22c.33,0,.61,.07,.83,.22s.39,.35,.5,.59c.11,.25,.17,.52,.17,.81v.13s0,.1,0,.16h-2.65v-.42h2.13c0-.33-.11-.59-.29-.77-.18-.18-.41-.26-.69-.26-.18,0-.35,.04-.51,.13s-.28,.22-.38,.39-.14,.39-.14,.65v.18c0,.29,.05,.53,.14,.72s.22,.34,.38,.43,.32,.14,.51,.14c.24,0,.43-.05,.57-.14,.14-.09,.24-.23,.31-.4h.54c-.05,.19-.14,.36-.27,.51-.13,.15-.29,.27-.48,.36s-.42,.13-.67,.13Z"/>
    <path class="cls-17" d="M469.83,363.16c-.26,0-.48-.05-.65-.15s-.3-.23-.39-.39-.13-.34-.13-.52c0-.23,.06-.42,.17-.58,.12-.16,.28-.28,.49-.36,.21-.08,.45-.12,.73-.12h.85c0-.22-.03-.41-.08-.55-.05-.15-.14-.26-.25-.33-.12-.07-.27-.11-.47-.11s-.36,.05-.5,.15c-.14,.1-.23,.24-.26,.43h-.56c.03-.23,.1-.42,.23-.57s.29-.27,.48-.35c.19-.08,.4-.12,.62-.12,.31,0,.56,.06,.76,.17,.2,.11,.35,.27,.44,.46,.1,.2,.14,.43,.14,.7v2.18h-.49l-.03-.59c-.04,.09-.1,.18-.17,.26s-.15,.15-.24,.21c-.09,.06-.2,.11-.31,.14-.12,.03-.24,.05-.38,.05Zm.08-.46c.14,0,.28-.03,.4-.1,.12-.07,.23-.15,.32-.26,.09-.11,.16-.24,.21-.38,.05-.14,.07-.29,.07-.44v-.06h-.81c-.2,0-.37,.03-.5,.08-.13,.05-.22,.12-.28,.22-.06,.09-.08,.2-.08,.32,0,.13,.03,.24,.08,.33,.05,.09,.13,.17,.23,.22,.1,.05,.22,.08,.37,.08Z"/>
    <path class="cls-17" d="M473.7,364.6c-.31,0-.58-.04-.81-.11s-.41-.19-.54-.35-.19-.35-.19-.58c0-.11,.02-.22,.06-.34,.04-.12,.11-.23,.22-.34,.1-.11,.25-.21,.43-.29l.42,.22c-.25,.1-.41,.21-.48,.33s-.11,.25-.11,.37c0,.14,.04,.26,.13,.36,.08,.09,.2,.17,.36,.21,.15,.05,.33,.07,.53,.07s.36-.02,.51-.08c.14-.05,.25-.12,.33-.21,.08-.09,.11-.2,.11-.33,0-.18-.06-.33-.18-.43-.12-.1-.35-.16-.68-.18-.26-.02-.49-.04-.67-.07-.18-.03-.33-.07-.44-.11-.12-.04-.21-.09-.29-.14s-.14-.11-.21-.16v-.15l.65-.62,.52,.17-.7,.58,.08-.25s.09,.07,.14,.1c.04,.03,.1,.06,.18,.08,.08,.02,.18,.05,.32,.07,.14,.02,.32,.04,.54,.06,.31,.02,.56,.07,.75,.16,.19,.08,.32,.2,.4,.34,.08,.15,.12,.32,.12,.53,0,.18-.05,.36-.15,.52-.1,.17-.26,.3-.48,.41-.22,.11-.5,.16-.85,.16Zm0-2.58c-.28,0-.51-.05-.71-.16-.19-.11-.34-.25-.44-.44-.1-.18-.15-.39-.15-.62s.05-.44,.15-.62,.25-.33,.44-.44,.43-.16,.7-.16,.52,.05,.71,.16c.19,.11,.34,.25,.44,.44,.1,.18,.15,.39,.15,.62s-.05,.44-.15,.62c-.1,.18-.25,.33-.44,.44-.19,.11-.43,.16-.71,.16Zm0-.45c.24,0,.43-.06,.57-.19,.13-.13,.2-.32,.2-.58s-.07-.45-.2-.57c-.13-.13-.32-.19-.57-.19-.23,0-.42,.06-.56,.19s-.22,.32-.22,.57,.07,.45,.21,.58c.14,.13,.33,.19,.57,.19Zm.57-1.45l-.16-.46h1.34v.41l-1.18,.05Z"/>
    <path class="cls-17" d="M477.45,363.16c-.32,0-.6-.07-.84-.22-.24-.15-.43-.36-.57-.63s-.2-.58-.2-.95,.07-.68,.21-.95c.14-.27,.33-.48,.57-.62,.25-.15,.53-.22,.84-.22s.6,.07,.84,.22,.43,.36,.56,.62c.13,.27,.2,.58,.2,.95s-.07,.68-.21,.95-.33,.48-.57,.63-.53,.22-.85,.22Zm0-.47c.2,0,.38-.05,.54-.15s.29-.25,.38-.44c.09-.2,.14-.44,.14-.73s-.05-.54-.14-.74c-.09-.2-.22-.34-.38-.44-.16-.1-.34-.15-.54-.15s-.37,.05-.53,.15c-.16,.1-.29,.24-.38,.44-.1,.2-.14,.44-.14,.74s.05,.54,.14,.73c.09,.2,.22,.35,.38,.44,.16,.1,.34,.15,.53,.15Z"/>
    <path class="cls-17" d="M481.1,363.16c-.31,0-.56-.05-.77-.14-.2-.09-.36-.22-.46-.39-.1-.17-.17-.36-.19-.58h.56c.02,.12,.06,.23,.12,.32,.06,.1,.16,.18,.28,.24,.12,.06,.28,.09,.46,.09,.15,0,.27-.02,.38-.07,.1-.05,.18-.11,.24-.19,.05-.08,.08-.18,.08-.29,0-.14-.03-.25-.09-.34-.06-.08-.15-.14-.27-.18-.12-.04-.27-.07-.45-.09-.19-.03-.36-.06-.51-.11-.15-.05-.27-.11-.38-.19-.1-.08-.18-.18-.23-.29-.05-.12-.08-.26-.08-.42,0-.19,.05-.35,.15-.5,.1-.14,.24-.25,.43-.33,.18-.08,.4-.12,.66-.12,.37,0,.66,.08,.88,.25,.21,.17,.34,.41,.38,.72h-.54c-.02-.16-.1-.29-.22-.38-.13-.09-.29-.14-.5-.14-.22,0-.39,.04-.5,.12-.11,.08-.17,.19-.17,.33,0,.1,.02,.19,.08,.27,.05,.08,.14,.15,.26,.2,.12,.05,.29,.09,.49,.12,.26,.03,.47,.08,.65,.15,.18,.07,.31,.17,.41,.31,.09,.14,.14,.33,.13,.57,0,.23-.05,.42-.16,.57s-.25,.28-.44,.36c-.19,.08-.41,.12-.66,.12Z"/>
    <path class="cls-17" d="M484.37,363.09c-.2,0-.37-.03-.51-.09-.14-.06-.25-.16-.33-.31-.08-.15-.11-.34-.11-.59v-1.98h-.6v-.46h.6l.07-.85h.48v.85h.97v.46h-.97v1.98c0,.2,.04,.34,.12,.41,.08,.07,.23,.11,.44,.11h.4v.47h-.55Z"/>
    <path class="cls-17" d="M487.07,363.16c-.32,0-.6-.07-.84-.22-.24-.15-.43-.36-.57-.63s-.2-.58-.2-.95,.07-.68,.21-.95c.14-.27,.33-.48,.57-.62,.25-.15,.53-.22,.84-.22s.6,.07,.84,.22,.43,.36,.56,.62c.13,.27,.2,.58,.2,.95s-.07,.68-.21,.95-.33,.48-.57,.63-.53,.22-.85,.22Zm0-.47c.2,0,.38-.05,.54-.15s.29-.25,.38-.44c.09-.2,.14-.44,.14-.73s-.05-.54-.14-.74c-.09-.2-.22-.34-.38-.44-.16-.1-.34-.15-.54-.15s-.37,.05-.53,.15c-.16,.1-.29,.24-.38,.44-.1,.2-.14,.44-.14,.74s.05,.54,.14,.73c.09,.2,.22,.35,.38,.44,.16,.1,.34,.15,.53,.15Z"/>
    <path class="cls-17" d="M489.7,363.12c-.1,0-.19-.04-.26-.11-.07-.07-.11-.16-.11-.26s.04-.19,.11-.26c.07-.07,.16-.11,.26-.11,.11,0,.2,.04,.27,.11,.07,.07,.1,.16,.1,.26s-.03,.19-.1,.26c-.07,.07-.16,.11-.27,.11Z"/>
  </g>
</svg>