<?xml version="1.0" encoding="UTF-8"?>
<svg id="Layer_1" data-name="Layer 1" xmlns="http://www.w3.org/2000/svg" viewBox="0 0 520.73 390">
  <defs>
    <style>
      .cls-1 {
        letter-spacing: 0em;
      }

      .cls-2, .cls-3 {
        font-family: DMSans-Bold, 'DM Sans';
        font-weight: 700;
      }

      .cls-4, .cls-5, .cls-6, .cls-7, .cls-8, .cls-9, .cls-10, .cls-11, .cls-12, .cls-13, .cls-14 {
        stroke-width: 1.16px;
      }

      .cls-4, .cls-5, .cls-6, .cls-7, .cls-8, .cls-9, .cls-10, .cls-11, .cls-12, .cls-13, .cls-14, .cls-15, .cls-16, .cls-17, .cls-18, .cls-19, .cls-20, .cls-21, .cls-22, .cls-23, .cls-24, .cls-25, .cls-26, .cls-27, .cls-28, .cls-29, .cls-30, .cls-31 {
        stroke: #fff;
      }

      .cls-4, .cls-5, .cls-6, .cls-7, .cls-8, .cls-9, .cls-10, .cls-11, .cls-12, .cls-13, .cls-14, .cls-17, .cls-18, .cls-19, .cls-20, .cls-21, .cls-22, .cls-23, .cls-24, .cls-25, .cls-26, .cls-27, .cls-28, .cls-29, .cls-30, .cls-31 {
        stroke-miterlimit: 10;
      }

      .cls-4, .cls-16, .cls-19 {
        fill: #f1f9fe;
      }

      .cls-5, .cls-18 {
        fill: #e2f4fd;
      }

      .cls-6 {
        fill: #224c59;
      }

      .cls-7, .cls-22 {
        fill: #0f2633;
      }

      .cls-8, .cls-23 {
        fill: #4197a0;
      }

      .cls-9 {
        fill: #62afbb;
      }

      .cls-10, .cls-26 {
        fill: #81c2d6;
      }

      .cls-11, .cls-24 {
        fill: #112f47;
      }

      .cls-12, .cls-30 {
        fill: #cae5ed;
      }

      .cls-13, .cls-29 {
        fill: #add9ea;
      }

      .cls-32 {
        fill: #171717;
        font-size: 16px;
      }

      .cls-14 {
        fill: #26596d;
      }

      .cls-33 {
        letter-spacing: -.02em;
      }

      .cls-34 {
        letter-spacing: -.02em;
      }

      .cls-35 {
        letter-spacing: -.02em;
      }

      .cls-36, .cls-37 {
        fill: #4b5668;
      }

      .cls-38 {
        letter-spacing: 0em;
      }

      .cls-15 {
        fill: #e4eef3;
      }

      .cls-15, .cls-16 {
        stroke-width: 1.44px;
      }

      .cls-3, .cls-37, .cls-39, .cls-40, .cls-41, .cls-42, .cls-43, .cls-44, .cls-45, .cls-46 {
        isolation: isolate;
      }

      .cls-3, .cls-41, .cls-43, .cls-44 {
        fill: #fff;
      }

      .cls-3, .cls-44, .cls-45 {
        font-size: 8.66px;
      }

      .cls-47 {
        letter-spacing: -.05em;
      }

      .cls-37 {
        font-size: 6.8px;
      }

      .cls-37, .cls-46 {
        font-family: DMSans-Medium, 'DM Sans';
        font-weight: 500;
      }

      .cls-48 {
        letter-spacing: -.02em;
      }

      .cls-49 {
        letter-spacing: 0em;
      }

      .cls-50 {
        letter-spacing: -.03em;
      }

      .cls-39, .cls-41, .cls-51, .cls-44, .cls-45 {
        font-family: DMSans-Regular, 'DM Sans';
      }

      .cls-39, .cls-41, .cls-43 {
        font-size: 5.22px;
      }

      .cls-39, .cls-45 {
        fill: #1a212d;
      }

      .cls-40 {
        font-size: 5.8px;
      }

      .cls-40, .cls-42 {
        fill: #676767;
        font-family: DMSans-9ptRegular, 'DM Sans';
        font-variation-settings: 'opsz' 9, 'wght' 400;
      }

      .cls-42 {
        font-size: 6.52px;
      }

      .cls-52 {
        letter-spacing: -.01em;
      }

      .cls-43 {
        font-family: DMSans-SemiBold, 'DM Sans';
        font-weight: 600;
      }

      .cls-53 {
        letter-spacing: -.03em;
      }

      .cls-54 {
        letter-spacing: 0em;
      }

      .cls-55 {
        letter-spacing: -.01em;
      }

      .cls-56 {
        letter-spacing: 0em;
      }

      .cls-57 {
        letter-spacing: -.09em;
      }

      .cls-46 {
        fill: #2d3848;
        font-size: 9.38px;
      }

      .cls-58 {
        letter-spacing: 0em;
      }

      .cls-59 {
        letter-spacing: -.02em;
      }

      .cls-60 {
        letter-spacing: -.02em;
      }

      .cls-61 {
        letter-spacing: 0em;
      }

      .cls-17 {
        fill: #9fcad8;
      }

      .cls-17, .cls-18, .cls-19, .cls-20, .cls-21, .cls-22, .cls-23, .cls-24, .cls-25, .cls-26, .cls-27, .cls-28, .cls-29, .cls-30, .cls-31 {
        stroke-width: 1.44px;
      }

      .cls-20 {
        fill: #fafcfd;
      }

      .cls-62 {
        letter-spacing: -.02em;
      }

      .cls-63 {
        letter-spacing: -.02em;
      }

      .cls-21 {
        fill: #a2cdda;
      }

      .cls-25 {
        fill: #2f5d67;
      }

      .cls-27 {
        fill: #5ba3aa;
      }

      .cls-28 {
        fill: #a6d0dc;
      }

      .cls-31 {
        fill: #f2f3f4;
      }
    </style>
  </defs>
  <text class="cls-46" transform="translate(120.14 91.17)"><tspan x="0" y="0">Ju</tspan><tspan class="cls-33" x="10.33" y="0">e</tspan><tspan class="cls-48" x="15.57" y="0">v</tspan><tspan x="20.4" y="0">es</tspan></text>
  <text class="cls-46" transform="translate(123.19 104.16)"><tspan x="0" y="0">10:00</tspan></text>
  <text class="cls-46" transform="translate(185.09 91.17)"><tspan x="0" y="0">Ju</tspan><tspan class="cls-33" x="10.33" y="0">e</tspan><tspan class="cls-48" x="15.57" y="0">v</tspan><tspan x="20.4" y="0">es</tspan></text>
  <text class="cls-46" transform="translate(188.9 104.16)"><tspan x="0" y="0">14:30</tspan></text>
  <text class="cls-46" transform="translate(248.61 91.17)"><tspan x="0" y="0">Viernes</tspan></text>
  <text class="cls-46" transform="translate(253.08 104.16)"><tspan x="0" y="0">10:00</tspan></text>
  <text class="cls-46" transform="translate(313.56 91.17)"><tspan x="0" y="0">Viernes</tspan></text>
  <text class="cls-46" transform="translate(318.8 104.16)"><tspan x="0" y="0">14:30</tspan></text>
  <text class="cls-46" transform="translate(378.49 91.17)"><tspan x="0" y="0">Sábado</tspan></text>
  <text class="cls-46" transform="translate(382.97 104.16)"><tspan x="0" y="0">10:00</tspan></text>
  <text class="cls-46" transform="translate(443.44 91.17)"><tspan x="0" y="0">Sábado</tspan></text>
  <text class="cls-46" transform="translate(448.69 104.16)"><tspan x="0" y="0">14:30</tspan></text>
  <text class="cls-46" transform="translate(33.03 143.61)"><tspan x="0" y="0">0-5 años</tspan></text>
  <rect class="cls-20" x="102.98" y="120.04" width="64.95" height="39.69" rx="2.16" ry="2.16"/>
  <text class="cls-45" transform="translate(132.96 143.49)"><tspan x="0" y="0">2</tspan></text>
  <rect class="cls-18" x="167.93" y="120.04" width="64.95" height="39.69" rx="2.16" ry="2.16"/>
  <text class="cls-45" transform="translate(197.25 143.49)"><tspan x="0" y="0">11</tspan></text>
  <rect class="cls-16" x="232.87" y="120.04" width="64.95" height="39.69" rx="2.16" ry="2.16"/>
  <text class="cls-45" transform="translate(262.53 143.49)"><tspan x="0" y="0">4</tspan></text>
  <rect class="cls-16" x="297.82" y="120.04" width="64.95" height="39.69" rx="2.16" ry="2.16"/>
  <text class="cls-45" transform="translate(327.54 143.49)"><tspan x="0" y="0">9</tspan></text>
  <rect class="cls-18" x="362.77" y="120.04" width="64.95" height="39.69" rx="2.16" ry="2.16"/>
  <text class="cls-45" transform="translate(391.17 143.49)"><tspan x="0" y="0">12</tspan></text>
  <rect class="cls-19" x="427.71" y="120.04" width="64.95" height="39.69" rx="2.16" ry="2.16"/>
  <text class="cls-45" transform="translate(457.86 143.49)"><tspan x="0" y="0">7</tspan></text>
  <text class="cls-46" transform="translate(32.97 183.29)"><tspan x="0" y="0">6-18 años</tspan></text>
  <rect class="cls-31" x="102.98" y="159.73" width="64.95" height="39.69" rx="2.16" ry="2.16"/>
  <text class="cls-45" transform="translate(132.84 183.18)"><tspan x="0" y="0">3</tspan></text>
  <rect class="cls-30" x="167.93" y="159.73" width="64.95" height="39.69" rx="2.16" ry="2.16"/>
  <text class="cls-45" transform="translate(195.29 183.18)"><tspan x="0" y="0">23</tspan></text>
  <rect class="cls-16" x="232.87" y="159.73" width="64.95" height="39.69" rx="2.16" ry="2.16"/>
  <text class="cls-45" transform="translate(262.53 183.18)"><tspan x="0" y="0">4</tspan></text>
  <rect class="cls-28" x="297.82" y="159.73" width="64.95" height="39.69" rx="2.16" ry="2.16"/>
  <text class="cls-45" transform="translate(324.43 183.18)"><tspan x="0" y="0">40</tspan></text>
  <rect class="cls-30" x="362.77" y="159.73" width="64.95" height="39.69" rx="2.16" ry="2.16"/>
  <text class="cls-45" transform="translate(391.17 183.18)"><tspan x="0" y="0">21</tspan></text>
  <rect class="cls-19" x="427.71" y="159.73" width="64.95" height="39.69" rx="2.16" ry="2.16"/>
  <text class="cls-45" transform="translate(457.49 183.18)"><tspan x="0" y="0">5</tspan></text>
  <text class="cls-46" transform="translate(33.18 222.98)"><tspan x="0" y="0">19-30 años</tspan></text>
  <rect class="cls-17" x="102.98" y="199.42" width="64.95" height="39.69" rx="2.16" ry="2.16"/>
  <text class="cls-44" transform="translate(129.83 222.87)"><tspan x="0" y="0">44</tspan></text>
  <rect class="cls-23" x="167.93" y="199.42" width="64.95" height="39.69" rx="2.16" ry="2.16"/>
  <text class="cls-44" transform="translate(194.2 222.87)"><tspan x="0" y="0">110</tspan></text>
  <rect class="cls-29" x="232.87" y="199.42" width="64.95" height="39.69" rx="2.16" ry="2.16"/>
  <text class="cls-45" transform="translate(260.44 222.87)"><tspan class="cls-60" x="0" y="0">3</tspan><tspan x="4.97" y="0">7</tspan></text>
  <rect class="cls-22" x="297.82" y="199.42" width="64.95" height="39.69" rx="2.16" ry="2.16"/>
  <text class="cls-3" transform="translate(323 222.87)"><tspan x="0" y="0">2</tspan><tspan class="cls-38" x="5" y="0">2</tspan><tspan x="9.93" y="0">7</tspan></text>
  <rect class="cls-15" x="362.77" y="199.42" width="64.95" height="39.69" rx="2.16" ry="2.16"/>
  <text class="cls-45" transform="translate(391.34 222.87)"><tspan x="0" y="0">17</tspan></text>
  <rect class="cls-30" x="427.71" y="199.42" width="64.95" height="39.69" rx="2.16" ry="2.16"/>
  <text class="cls-45" transform="translate(456.11 222.87)"><tspan x="0" y="0">21</tspan></text>
  <text class="cls-46" transform="translate(33 262.67)"><tspan class="cls-52" x="0" y="0">3</tspan><tspan class="cls-49" x="5.44" y="0">1-60 años</tspan></text>
  <rect class="cls-29" x="102.98" y="239.11" width="64.95" height="39.69" rx="2.16" ry="2.16"/>
  <text class="cls-45" transform="translate(131.3 262.56)"><tspan class="cls-60" x="0" y="0">3</tspan><tspan class="cls-1" x="4.97" y="0">1</tspan></text>
  <rect class="cls-25" x="167.93" y="239.11" width="64.95" height="39.69" rx="2.16" ry="2.16"/>
  <text class="cls-3" transform="translate(193.52 262.56)"><tspan x="0" y="0">135</tspan></text>
  <rect class="cls-26" x="232.87" y="239.11" width="64.95" height="39.69" rx="2.16" ry="2.16"/>
  <text class="cls-44" transform="translate(260.04 262.56)"><tspan x="0" y="0">53</tspan></text>
  <rect class="cls-24" x="297.82" y="239.11" width="64.95" height="39.69" rx="2.16" ry="2.16"/>
  <text class="cls-3" transform="translate(323.81 262.56)"><tspan x="0" y="0">1</tspan><tspan class="cls-47" x="3.15" y="0">7</tspan><tspan class="cls-1" x="7.33" y="0">4</tspan></text>
  <rect class="cls-29" x="362.77" y="239.11" width="64.95" height="39.69" rx="2.16" ry="2.16"/>
  <text class="cls-45" transform="translate(390.34 262.56)"><tspan class="cls-60" x="0" y="0">3</tspan><tspan x="4.97" y="0">7</tspan></text>
  <rect class="cls-29" x="427.71" y="239.11" width="64.95" height="39.69" rx="2.16" ry="2.16"/>
  <text class="cls-45" transform="translate(455.08 262.56)"><tspan x="0" y="0">32</tspan></text>
  <text class="cls-46" transform="translate(32.97 302.36)"><tspan x="0" y="0">61-90 años</tspan></text>
  <rect class="cls-29" x="102.98" y="278.8" width="64.95" height="39.69" rx="2.16" ry="2.16"/>
  <text class="cls-45" transform="translate(129.8 302.25)"><tspan x="0" y="0">30</tspan></text>
  <rect class="cls-26" x="167.93" y="278.8" width="64.95" height="39.69" rx="2.16" ry="2.16"/>
  <text class="cls-44" transform="translate(194.54 302.25)"><tspan x="0" y="0">40</tspan></text>
  <rect class="cls-29" x="232.87" y="278.8" width="64.95" height="39.69" rx="2.16" ry="2.16"/>
  <text class="cls-45" transform="translate(261.19 302.25)"><tspan class="cls-63" x="0" y="0">3</tspan><tspan class="cls-1" x="4.97" y="0">1</tspan></text>
  <rect class="cls-27" x="297.82" y="278.8" width="64.95" height="39.69" rx="2.16" ry="2.16"/>
  <text class="cls-44" transform="translate(324.74 302.25)"><tspan x="0" y="0">84</tspan></text>
  <rect class="cls-29" x="362.77" y="278.8" width="64.95" height="39.69" rx="2.16" ry="2.16"/>
  <text class="cls-45" transform="translate(390.13 302.25)"><tspan x="0" y="0">32</tspan></text>
  <rect class="cls-21" x="427.71" y="278.8" width="64.95" height="39.69" rx="2.16" ry="2.16"/>
  <text class="cls-45" transform="translate(454.76 302.25)"><tspan x="0" y="0">43</tspan></text>
  <text class="cls-37" transform="translate(32.3 341.27)"><tspan x="0" y="0">Escala </tspan><tspan class="cls-55" x="22.26" y="0">t</tspan><tspan x="24.92" y="0">érmica de in</tspan><tspan class="cls-55" x="64.53" y="0">t</tspan><tspan class="cls-61" x="67.19" y="0">ensidad:</tspan></text>
  <rect class="cls-4" x="46.23" y="347.12" width="17.41" height="14.51" rx="1.16" ry="1.16"/>
  <text class="cls-39" transform="translate(53.43 356.98)"><tspan x="0" y="0">5</tspan></text>
  <rect class="cls-5" x="66.74" y="347.12" width="17.41" height="14.51" rx="1.16" ry="1.16"/>
  <text class="cls-39" transform="translate(73.73 356.98)"><tspan x="0" y="0">10</tspan></text>
  <rect class="cls-12" x="87.25" y="347.12" width="17.41" height="14.51" rx="1.16" ry="1.16"/>
  <text class="cls-39" transform="translate(92.72 356.88)"><tspan class="cls-58" x="0" y="0">2</tspan><tspan x="2.96" y="0">0</tspan></text>
  <rect class="cls-13" x="107.76" y="347.12" width="17.41" height="14.51" rx="1.16" ry="1.16"/>
  <text class="cls-39" transform="translate(114.15 357.29)"><tspan x="0" y="0">30</tspan></text>
  <rect class="cls-10" x="128.27" y="347.12" width="17.41" height="14.51" rx="1.16" ry="1.16"/>
  <text class="cls-39" transform="translate(133.71 356.98)"><tspan x="0" y="0">50</tspan></text>
  <rect class="cls-9" x="148.78" y="347.12" width="17.41" height="14.51" rx="1.16" ry="1.16"/>
  <text class="cls-41" transform="translate(154.6 356.98)"><tspan class="cls-53" x="0" y="0">7</tspan><tspan class="cls-56" x="2.64" y="0">5</tspan></text>
  <rect class="cls-8" x="169.29" y="347.12" width="17.41" height="14.51" rx="1.16" ry="1.16"/>
  <text class="cls-41" transform="translate(173.26 356.88)"><tspan x="0" y="0">100</tspan></text>
  <rect class="cls-14" x="189.8" y="347.12" width="17.41" height="14.51" rx="1.16" ry="1.16"/>
  <text class="cls-43" transform="translate(195.08 356.98)"><tspan x="0" y="0">125</tspan></text>
  <rect class="cls-6" x="210.31" y="347.12" width="17.41" height="14.51" rx="1.16" ry="1.16"/>
  <text class="cls-43" transform="translate(215.07 356.98)"><tspan x="0" y="0">150</tspan></text>
  <rect class="cls-11" x="230.82" y="347.12" width="17.41" height="14.51" rx="1.16" ry="1.16"/>
  <text class="cls-43" transform="translate(235.87 356.98)"><tspan x="0" y="0">1</tspan><tspan class="cls-50" x="1.82" y="0">7</tspan><tspan x="4.49" y="0">5</tspan></text>
  <rect class="cls-7" x="251.33" y="347.12" width="17.41" height="14.51" rx="1.16" ry="1.16"/>
  <text class="cls-43" transform="translate(255.65 356.98)"><tspan x="0" y="0">2</tspan><tspan class="cls-58" x="3.01" y="0">2</tspan><tspan x="5.97" y="0">7</tspan></text>
  <text class="cls-40" transform="translate(31.63 356.47)"><tspan x="0" y="0">Baja</tspan></text>
  <text class="cls-40" transform="translate(272.76 357.05)"><tspan x="0" y="0">Alta</tspan></text>
  <text class="cls-42" transform="translate(433.68 33.22)"><tspan class="cls-57" x="0" y="0">T</tspan><tspan class="cls-35" x="3.09" y="0">o</tspan><tspan x="6.85" y="0">tal: 1.</tspan><tspan class="cls-59" x="21.27" y="0">3</tspan><tspan x="25.06" y="0">19 usuarios</tspan></text>
  <text class="cls-32" transform="translate(30.91 40.12)"><tspan class="cls-51" x="0" y="0">Mapa de calor con </tspan><tspan class="cls-2" x="141.71" y="0">densidad de usuarios </tspan><tspan class="cls-51"><tspan x="0" y="19.2">por ran</tspan><tspan class="cls-34" x="53.5" y="19.2">g</tspan><tspan class="cls-54" x="62.11" y="19.2">o </tspan><tspan class="cls-62" x="75.85" y="19.2">e</tspan><tspan x="84.67" y="19.2">tario y hora del día</tspan></tspan></text>
  <g>
    <path class="cls-36" d="M380.09,350.45v-3.7h-1.24v-.49h3.08v.49h-1.25v3.7h-.6Z"/>
    <path class="cls-36" d="M383.35,350.52c-.28,0-.54-.07-.76-.2s-.4-.32-.53-.55-.19-.51-.19-.82,.07-.6,.2-.84,.31-.42,.54-.55,.48-.2,.77-.2,.54,.07,.77,.2,.4,.32,.53,.55,.19,.51,.19,.83-.06,.6-.19,.83-.31,.42-.54,.55-.49,.2-.77,.2Zm0-.52c.16,0,.31-.04,.45-.12,.13-.08,.24-.2,.32-.36,.08-.16,.12-.35,.12-.59s-.04-.43-.12-.59c-.08-.16-.19-.28-.32-.36-.13-.08-.28-.12-.44-.12s-.31,.04-.44,.12c-.14,.08-.24,.2-.33,.36-.08,.16-.12,.35-.12,.59s.04,.43,.12,.59c.08,.16,.19,.28,.32,.36,.13,.08,.28,.12,.43,.12Z"/>
    <path class="cls-36" d="M386.9,350.52c-.29,0-.54-.07-.76-.21s-.39-.33-.51-.56c-.12-.24-.18-.51-.18-.81s.06-.58,.18-.81c.12-.24,.29-.42,.51-.56s.48-.21,.76-.21c.24,0,.44,.05,.62,.14,.18,.09,.32,.23,.42,.4v-1.76h.6v4.31h-.53l-.07-.47c-.06,.09-.14,.18-.23,.26-.1,.08-.21,.15-.35,.2s-.29,.08-.47,.08Zm.1-.52c.19,0,.35-.04,.5-.13s.25-.21,.33-.37c.08-.16,.12-.35,.12-.56s-.04-.4-.12-.55c-.08-.16-.19-.28-.33-.37s-.31-.13-.5-.13-.34,.04-.49,.13-.26,.21-.33,.37c-.08,.16-.12,.34-.12,.55s.04,.4,.12,.56c.08,.16,.19,.28,.33,.37s.31,.13,.49,.13Z"/>
    <path class="cls-36" d="M390.75,350.52c-.28,0-.54-.07-.76-.2s-.4-.32-.53-.55-.19-.51-.19-.82,.07-.6,.2-.84,.31-.42,.54-.55,.48-.2,.77-.2,.54,.07,.77,.2,.4,.32,.53,.55,.19,.51,.19,.83-.06,.6-.19,.83-.31,.42-.54,.55-.49,.2-.77,.2Zm0-.52c.16,0,.31-.04,.45-.12,.13-.08,.24-.2,.32-.36,.08-.16,.12-.35,.12-.59s-.04-.43-.12-.59c-.08-.16-.19-.28-.32-.36-.13-.08-.28-.12-.44-.12s-.31,.04-.44,.12c-.14,.08-.24,.2-.33,.36-.08,.16-.12,.35-.12,.59s.04,.43,.12,.59c.08,.16,.19,.28,.32,.36,.13,.08,.28,.12,.43,.12Z"/>
    <path class="cls-36" d="M394.12,350.52c-.26,0-.48-.04-.67-.13s-.34-.2-.46-.35c-.11-.15-.18-.33-.2-.53h.61c.02,.1,.06,.18,.12,.26,.06,.08,.14,.14,.24,.19s.22,.07,.36,.07c.13,0,.24-.02,.33-.06,.09-.04,.15-.09,.19-.16,.04-.07,.06-.14,.06-.21,0-.11-.03-.2-.08-.25s-.13-.1-.24-.14c-.11-.03-.23-.07-.38-.09-.14-.02-.27-.06-.4-.1s-.25-.09-.35-.16c-.1-.06-.18-.14-.24-.24-.06-.1-.09-.22-.09-.36,0-.17,.05-.33,.14-.46s.22-.25,.39-.32,.37-.12,.6-.12c.34,0,.61,.08,.81,.24,.2,.16,.32,.38,.36,.68h-.58c-.02-.14-.08-.24-.18-.31-.1-.07-.24-.11-.41-.11s-.3,.03-.4,.1c-.09,.07-.14,.16-.14,.27,0,.07,.03,.14,.08,.19s.13,.1,.23,.14,.23,.07,.37,.1c.21,.04,.4,.09,.57,.15,.17,.06,.3,.15,.4,.26,.1,.12,.15,.28,.15,.5,0,.19-.04,.35-.14,.5-.1,.14-.24,.26-.41,.34s-.39,.12-.63,.12Z"/>
    <path class="cls-36" d="M397.55,350.45v-4.31h.6v4.31h-.6Z"/>
    <path class="cls-36" d="M400.35,350.52c-.28,0-.54-.07-.76-.2s-.4-.32-.53-.55-.19-.51-.19-.82,.07-.6,.2-.84,.31-.42,.54-.55,.48-.2,.77-.2,.54,.07,.77,.2,.4,.32,.53,.55,.19,.51,.19,.83-.06,.6-.19,.83-.31,.42-.54,.55-.49,.2-.77,.2Zm0-.52c.16,0,.31-.04,.45-.12,.13-.08,.24-.2,.32-.36,.08-.16,.12-.35,.12-.59s-.04-.43-.12-.59c-.08-.16-.19-.28-.32-.36-.13-.08-.28-.12-.44-.12s-.31,.04-.44,.12c-.14,.08-.24,.2-.33,.36-.08,.16-.12,.35-.12,.59s.04,.43,.12,.59c.08,.16,.19,.28,.32,.36,.13,.08,.28,.12,.43,.12Z"/>
    <path class="cls-36" d="M403.73,350.52c-.26,0-.48-.04-.67-.13s-.34-.2-.46-.35c-.11-.15-.18-.33-.2-.53h.61c.02,.1,.06,.18,.12,.26,.06,.08,.14,.14,.24,.19s.22,.07,.36,.07c.13,0,.24-.02,.33-.06,.09-.04,.15-.09,.19-.16,.04-.07,.06-.14,.06-.21,0-.11-.03-.2-.08-.25s-.13-.1-.24-.14c-.11-.03-.23-.07-.38-.09-.14-.02-.27-.06-.4-.1s-.25-.09-.35-.16c-.1-.06-.18-.14-.24-.24-.06-.1-.09-.22-.09-.36,0-.17,.05-.33,.14-.46s.22-.25,.39-.32,.37-.12,.6-.12c.34,0,.61,.08,.81,.24,.2,.16,.32,.38,.36,.68h-.58c-.02-.14-.08-.24-.18-.31-.1-.07-.24-.11-.41-.11s-.3,.03-.4,.1c-.09,.07-.14,.16-.14,.27,0,.07,.03,.14,.08,.19s.13,.1,.23,.14,.23,.07,.37,.1c.21,.04,.4,.09,.57,.15,.17,.06,.3,.15,.4,.26,.1,.12,.15,.28,.15,.5,0,.19-.04,.35-.14,.5-.1,.14-.24,.26-.41,.34s-.39,.12-.63,.12Z"/>
    <path class="cls-36" d="M408.49,350.52c-.29,0-.54-.07-.76-.21s-.39-.33-.51-.56c-.12-.24-.18-.51-.18-.81s.06-.58,.18-.81c.12-.24,.29-.42,.51-.56s.48-.21,.76-.21c.24,0,.44,.05,.62,.14,.18,.09,.32,.23,.42,.4v-1.76h.6v4.31h-.53l-.07-.47c-.06,.09-.14,.18-.23,.26-.1,.08-.21,.15-.35,.2s-.29,.08-.47,.08Zm.1-.52c.19,0,.35-.04,.5-.13s.25-.21,.33-.37c.08-.16,.12-.35,.12-.56s-.04-.4-.12-.55c-.08-.16-.19-.28-.33-.37s-.31-.13-.5-.13-.34,.04-.49,.13-.26,.21-.33,.37c-.08,.16-.12,.34-.12,.55s.04,.4,.12,.56c.08,.16,.19,.28,.33,.37s.31,.13,.49,.13Z"/>
    <path class="cls-36" d="M411.96,350.52c-.25,0-.45-.04-.62-.13-.16-.08-.29-.2-.37-.34-.08-.14-.12-.29-.12-.46,0-.2,.05-.37,.16-.51,.1-.14,.25-.25,.44-.33,.19-.08,.42-.11,.69-.11h.79c0-.18-.03-.32-.08-.44-.05-.12-.13-.2-.23-.26-.1-.06-.23-.09-.39-.09-.18,0-.33,.04-.46,.13-.13,.09-.21,.21-.24,.38h-.6c.02-.21,.1-.39,.22-.54,.12-.15,.28-.27,.47-.35s.4-.12,.61-.12c.28,0,.52,.05,.71,.15s.34,.24,.43,.42,.15,.4,.15,.65v1.87h-.52l-.05-.51c-.04,.08-.1,.16-.16,.23-.06,.07-.13,.13-.21,.19s-.18,.09-.28,.12c-.11,.03-.22,.04-.35,.04Zm.11-.49c.13,0,.24-.03,.35-.08,.1-.05,.19-.12,.27-.21,.07-.09,.13-.19,.17-.3,.04-.11,.06-.23,.06-.35v-.02h-.71c-.17,0-.31,.02-.42,.06-.11,.04-.18,.1-.23,.17-.05,.07-.07,.16-.07,.25s.02,.18,.07,.25c.05,.07,.11,.12,.2,.16,.09,.04,.19,.06,.32,.06Z"/>
    <path class="cls-36" d="M415.47,350.45c-.19,0-.35-.03-.49-.09s-.25-.16-.32-.3c-.08-.14-.11-.33-.11-.57v-1.55h-.52v-.51h.52l.07-.75h.53v.75h.86v.51h-.86v1.56c0,.17,.04,.29,.11,.35,.07,.06,.2,.09,.37,.09h.35v.51h-.5Z"/>
    <path class="cls-36" d="M417.95,350.52c-.28,0-.54-.07-.76-.2s-.4-.32-.53-.55-.19-.51-.19-.82,.07-.6,.2-.84,.31-.42,.54-.55,.48-.2,.77-.2,.54,.07,.77,.2,.4,.32,.53,.55,.19,.51,.19,.83-.06,.6-.19,.83-.31,.42-.54,.55-.49,.2-.77,.2Zm0-.52c.16,0,.31-.04,.45-.12,.13-.08,.24-.2,.32-.36,.08-.16,.12-.35,.12-.59s-.04-.43-.12-.59c-.08-.16-.19-.28-.32-.36-.13-.08-.28-.12-.44-.12s-.31,.04-.44,.12c-.14,.08-.24,.2-.33,.36-.08,.16-.12,.35-.12,.59s.04,.43,.12,.59c.08,.16,.19,.28,.32,.36,.13,.08,.28,.12,.43,.12Z"/>
    <path class="cls-36" d="M421.33,350.52c-.26,0-.48-.04-.67-.13s-.34-.2-.46-.35c-.11-.15-.18-.33-.2-.53h.61c.02,.1,.06,.18,.12,.26,.06,.08,.14,.14,.24,.19s.22,.07,.36,.07c.13,0,.24-.02,.33-.06,.09-.04,.15-.09,.19-.16,.04-.07,.06-.14,.06-.21,0-.11-.03-.2-.08-.25s-.13-.1-.24-.14c-.11-.03-.23-.07-.38-.09-.14-.02-.27-.06-.4-.1s-.25-.09-.35-.16c-.1-.06-.18-.14-.24-.24-.06-.1-.09-.22-.09-.36,0-.17,.05-.33,.14-.46s.22-.25,.39-.32,.37-.12,.6-.12c.34,0,.61,.08,.81,.24,.2,.16,.32,.38,.36,.68h-.58c-.02-.14-.08-.24-.18-.31-.1-.07-.24-.11-.41-.11s-.3,.03-.4,.1c-.09,.07-.14,.16-.14,.27,0,.07,.03,.14,.08,.19s.13,.1,.23,.14,.23,.07,.37,.1c.21,.04,.4,.09,.57,.15,.17,.06,.3,.15,.4,.26,.1,.12,.15,.28,.15,.5,0,.19-.04,.35-.14,.5-.1,.14-.24,.26-.41,.34s-.39,.12-.63,.12Z"/>
    <path class="cls-36" d="M424.47,347.94v-.51h1.77v.51h-1.77Zm.44,2.51v-3.43c0-.21,.03-.38,.1-.51,.07-.13,.17-.23,.31-.29,.14-.06,.3-.09,.49-.09h.35v.51h-.26c-.14,0-.25,.03-.31,.09-.06,.06-.09,.16-.09,.3v3.41h-.6Z"/>
    <path class="cls-36" d="M427.96,350.52c-.24,0-.44-.05-.61-.14-.17-.1-.31-.24-.4-.43s-.14-.43-.14-.72v-1.79h.6v1.72c0,.28,.06,.5,.19,.64,.12,.14,.3,.21,.53,.21,.16,0,.3-.04,.42-.11,.12-.08,.22-.19,.3-.33,.07-.14,.11-.32,.11-.53v-1.61h.6v3.02h-.53l-.04-.51c-.09,.18-.23,.33-.4,.43s-.38,.16-.61,.16Z"/>
    <path class="cls-36" d="M431.73,350.52c-.29,0-.54-.07-.77-.2s-.4-.32-.52-.55c-.13-.24-.19-.51-.19-.82s.06-.6,.19-.84c.12-.24,.3-.42,.52-.56s.48-.2,.78-.2,.55,.07,.76,.2c.21,.13,.38,.31,.49,.52,.12,.22,.17,.46,.17,.72,0,.04,0,.08,0,.13s0,.1,0,.15h-2.47v-.43h1.88c-.01-.25-.1-.45-.25-.59-.16-.14-.35-.21-.58-.21-.16,0-.31,.04-.45,.11-.14,.07-.25,.18-.33,.32s-.12,.32-.12,.54v.17c0,.22,.04,.41,.12,.57,.08,.15,.19,.27,.33,.35,.13,.08,.28,.12,.44,.12,.19,0,.35-.04,.47-.13s.22-.2,.28-.34h.6c-.05,.18-.14,.35-.26,.49-.12,.15-.28,.26-.46,.34s-.39,.13-.63,.13Z"/>
    <path class="cls-36" d="M433.83,350.45v-3.02h.54l.05,.57c.07-.14,.16-.25,.26-.34s.23-.17,.38-.22c.15-.05,.31-.08,.5-.08v.63h-.22c-.12,0-.24,.02-.35,.04-.11,.03-.21,.08-.3,.15-.09,.07-.15,.17-.2,.29-.05,.12-.07,.28-.07,.46v1.5h-.6Z"/>
    <path class="cls-36" d="M437.4,350.52c-.28,0-.54-.07-.76-.2s-.4-.32-.53-.55-.19-.51-.19-.82,.07-.6,.2-.84,.31-.42,.54-.55,.48-.2,.77-.2,.54,.07,.77,.2,.4,.32,.53,.55,.19,.51,.19,.83-.06,.6-.19,.83-.31,.42-.54,.55-.49,.2-.77,.2Zm0-.52c.16,0,.31-.04,.45-.12,.13-.08,.24-.2,.32-.36,.08-.16,.12-.35,.12-.59s-.04-.43-.12-.59c-.08-.16-.19-.28-.32-.36-.13-.08-.28-.12-.44-.12s-.31,.04-.44,.12c-.14,.08-.24,.2-.33,.36-.08,.16-.12,.35-.12,.59s.04,.43,.12,.59c.08,.16,.19,.28,.32,.36,.13,.08,.28,.12,.43,.12Z"/>
    <path class="cls-36" d="M439.61,350.45v-3.02h.54l.04,.51c.1-.18,.23-.32,.41-.43s.38-.16,.6-.16c.24,0,.45,.05,.62,.14,.17,.1,.31,.24,.4,.43,.1,.19,.14,.44,.14,.73v1.79h-.6v-1.72c0-.28-.06-.49-.19-.63-.12-.14-.3-.22-.54-.22-.16,0-.3,.04-.42,.11-.12,.07-.22,.18-.3,.33-.07,.14-.11,.32-.11,.53v1.61h-.6Z"/>
    <path class="cls-36" d="M444.66,350.45v-3.02h.54l.05,.57c.07-.14,.16-.25,.26-.34s.23-.17,.38-.22c.15-.05,.31-.08,.5-.08v.63h-.22c-.12,0-.24,.02-.35,.04-.11,.03-.21,.08-.3,.15-.09,.07-.15,.17-.2,.29-.05,.12-.07,.28-.07,.46v1.5h-.6Z"/>
    <path class="cls-36" d="M448.22,350.52c-.29,0-.54-.07-.77-.2s-.4-.32-.52-.55c-.13-.24-.19-.51-.19-.82s.06-.6,.19-.84c.12-.24,.3-.42,.52-.56s.48-.2,.78-.2,.55,.07,.76,.2c.21,.13,.38,.31,.49,.52,.12,.22,.17,.46,.17,.72,0,.04,0,.08,0,.13s0,.1,0,.15h-2.47v-.43h1.88c-.01-.25-.1-.45-.25-.59-.16-.14-.35-.21-.58-.21-.16,0-.31,.04-.45,.11-.14,.07-.25,.18-.33,.32s-.12,.32-.12,.54v.17c0,.22,.04,.41,.12,.57,.08,.15,.19,.27,.33,.35,.13,.08,.28,.12,.44,.12,.19,0,.35-.04,.47-.13s.22-.2,.28-.34h.6c-.05,.18-.14,.35-.26,.49-.12,.15-.28,.26-.46,.34s-.39,.13-.63,.13Z"/>
    <path class="cls-36" d="M451.72,350.52c-.29,0-.55-.07-.78-.2s-.41-.32-.54-.55-.19-.51-.19-.82,.06-.59,.19-.83c.13-.24,.31-.42,.54-.56s.49-.2,.78-.2c.37,0,.67,.1,.92,.29,.25,.19,.4,.45,.47,.78h-.62c-.04-.18-.13-.31-.27-.41s-.31-.14-.51-.14c-.16,0-.31,.04-.44,.12-.14,.08-.24,.2-.33,.36-.08,.16-.12,.35-.12,.58,0,.17,.02,.33,.07,.46s.11,.25,.19,.34,.18,.16,.28,.21c.11,.05,.22,.07,.34,.07,.13,0,.25-.02,.36-.06,.11-.04,.2-.1,.27-.19,.07-.08,.12-.18,.15-.3h.62c-.07,.32-.23,.58-.47,.77-.25,.19-.56,.29-.92,.29Z"/>
    <path class="cls-36" d="M455.19,350.52c-.28,0-.54-.07-.76-.2s-.4-.32-.53-.55-.19-.51-.19-.82,.07-.6,.2-.84,.31-.42,.54-.55,.48-.2,.77-.2,.54,.07,.77,.2,.4,.32,.53,.55,.19,.51,.19,.83-.06,.6-.19,.83-.31,.42-.54,.55-.49,.2-.77,.2Zm0-.52c.16,0,.31-.04,.45-.12,.13-.08,.24-.2,.32-.36,.08-.16,.12-.35,.12-.59s-.04-.43-.12-.59c-.08-.16-.19-.28-.32-.36-.13-.08-.28-.12-.44-.12s-.31,.04-.44,.12c-.14,.08-.24,.2-.33,.36-.08,.16-.12,.35-.12,.59s.04,.43,.12,.59c.08,.16,.19,.28,.32,.36,.13,.08,.28,.12,.43,.12Z"/>
    <path class="cls-36" d="M457.4,351.76v-4.34h.54l.06,.47c.06-.09,.14-.18,.24-.26,.1-.08,.21-.15,.34-.2s.29-.08,.47-.08c.29,0,.54,.07,.76,.21,.22,.14,.39,.33,.51,.57,.12,.24,.18,.51,.18,.81s-.06,.57-.19,.81c-.12,.24-.29,.42-.51,.56-.22,.14-.47,.2-.76,.2-.24,0-.44-.05-.62-.14s-.32-.22-.43-.39v1.78h-.6Zm1.55-1.77c.18,0,.35-.04,.49-.13s.25-.21,.34-.37c.08-.16,.12-.35,.12-.56s-.04-.4-.12-.55c-.08-.16-.19-.28-.34-.37s-.3-.13-.49-.13-.35,.04-.49,.13c-.14,.09-.25,.21-.33,.37-.08,.16-.12,.34-.12,.55s.04,.4,.12,.56c.08,.16,.19,.28,.33,.37,.14,.09,.31,.13,.49,.13Z"/>
    <path class="cls-36" d="M461.55,346.86c-.12,0-.21-.04-.29-.11-.07-.07-.11-.16-.11-.28s.04-.2,.11-.27c.07-.07,.17-.1,.29-.1s.21,.03,.28,.1c.08,.07,.11,.16,.11,.27s-.04,.2-.11,.28-.17,.11-.28,.11Zm-.31,3.59v-3.02h.6v3.02h-.6Z"/>
    <path class="cls-36" d="M462.7,350.45v-4.31h.6v4.31h-.6Z"/>
    <path class="cls-36" d="M465.12,350.52c-.25,0-.45-.04-.62-.13-.16-.08-.29-.2-.37-.34-.08-.14-.12-.29-.12-.46,0-.2,.05-.37,.16-.51,.1-.14,.25-.25,.44-.33,.19-.08,.42-.11,.69-.11h.79c0-.18-.03-.32-.08-.44-.05-.12-.13-.2-.23-.26-.1-.06-.23-.09-.39-.09-.18,0-.33,.04-.46,.13-.13,.09-.21,.21-.24,.38h-.6c.02-.21,.1-.39,.22-.54,.12-.15,.28-.27,.47-.35s.4-.12,.61-.12c.28,0,.52,.05,.71,.15s.34,.24,.43,.42,.15,.4,.15,.65v1.87h-.52l-.05-.51c-.04,.08-.1,.16-.16,.23-.06,.07-.13,.13-.21,.19s-.18,.09-.28,.12c-.11,.03-.22,.04-.35,.04Zm.11-.49c.13,0,.24-.03,.35-.08,.1-.05,.19-.12,.27-.21,.07-.09,.13-.19,.17-.3,.04-.11,.06-.23,.06-.35v-.02h-.71c-.17,0-.31,.02-.42,.06-.11,.04-.18,.1-.23,.17-.05,.07-.07,.16-.07,.25s.02,.18,.07,.25c.05,.07,.11,.12,.2,.16,.09,.04,.19,.06,.32,.06Z"/>
    <path class="cls-36" d="M468.8,350.52c-.29,0-.54-.07-.76-.21s-.39-.33-.51-.56c-.12-.24-.18-.51-.18-.81s.06-.58,.18-.81c.12-.24,.29-.42,.51-.56s.48-.21,.76-.21c.24,0,.44,.05,.62,.14,.18,.09,.32,.23,.42,.4v-1.76h.6v4.31h-.53l-.07-.47c-.06,.09-.14,.18-.23,.26-.1,.08-.21,.15-.35,.2s-.29,.08-.47,.08Zm.1-.52c.19,0,.35-.04,.5-.13s.25-.21,.33-.37c.08-.16,.12-.35,.12-.56s-.04-.4-.12-.55c-.08-.16-.19-.28-.33-.37s-.31-.13-.5-.13-.34,.04-.49,.13-.26,.21-.33,.37c-.08,.16-.12,.34-.12,.55s.04,.4,.12,.56c.08,.16,.19,.28,.33,.37s.31,.13,.49,.13Z"/>
    <path class="cls-36" d="M472.64,350.52c-.28,0-.54-.07-.76-.2s-.4-.32-.53-.55-.19-.51-.19-.82,.07-.6,.2-.84,.31-.42,.54-.55,.48-.2,.77-.2,.54,.07,.77,.2,.4,.32,.53,.55,.19,.51,.19,.83-.06,.6-.19,.83-.31,.42-.54,.55-.49,.2-.77,.2Zm0-.52c.16,0,.31-.04,.45-.12,.13-.08,.24-.2,.32-.36,.08-.16,.12-.35,.12-.59s-.04-.43-.12-.59c-.08-.16-.19-.28-.32-.36-.13-.08-.28-.12-.44-.12s-.31,.04-.44,.12c-.14,.08-.24,.2-.33,.36-.08,.16-.12,.35-.12,.59s.04,.43,.12,.59c.08,.16,.19,.28,.32,.36,.13,.08,.28,.12,.43,.12Z"/>
    <path class="cls-36" d="M476.02,350.52c-.26,0-.48-.04-.67-.13s-.34-.2-.46-.35c-.11-.15-.18-.33-.2-.53h.61c.02,.1,.06,.18,.12,.26,.06,.08,.14,.14,.24,.19s.22,.07,.36,.07c.13,0,.24-.02,.33-.06,.09-.04,.15-.09,.19-.16,.04-.07,.06-.14,.06-.21,0-.11-.03-.2-.08-.25s-.13-.1-.24-.14c-.11-.03-.23-.07-.38-.09-.14-.02-.27-.06-.4-.1s-.25-.09-.35-.16c-.1-.06-.18-.14-.24-.24-.06-.1-.09-.22-.09-.36,0-.17,.05-.33,.14-.46s.22-.25,.39-.32,.37-.12,.6-.12c.34,0,.61,.08,.81,.24,.2,.16,.32,.38,.36,.68h-.58c-.02-.14-.08-.24-.18-.31-.1-.07-.24-.11-.41-.11s-.3,.03-.4,.1c-.09,.07-.14,.16-.14,.27,0,.07,.03,.14,.08,.19s.13,.1,.23,.14,.23,.07,.37,.1c.21,.04,.4,.09,.57,.15,.17,.06,.3,.15,.4,.26,.1,.12,.15,.28,.15,.5,0,.19-.04,.35-.14,.5-.1,.14-.24,.26-.41,.34s-.39,.12-.63,.12Z"/>
    <path class="cls-36" d="M480.81,350.52c-.29,0-.54-.07-.77-.2s-.4-.32-.52-.55c-.13-.24-.19-.51-.19-.82s.06-.6,.19-.84c.12-.24,.3-.42,.52-.56s.48-.2,.78-.2,.55,.07,.76,.2c.21,.13,.38,.31,.49,.52,.12,.22,.17,.46,.17,.72,0,.04,0,.08,0,.13s0,.1,0,.15h-2.47v-.43h1.88c-.01-.25-.1-.45-.25-.59-.16-.14-.35-.21-.58-.21-.16,0-.31,.04-.45,.11-.14,.07-.25,.18-.33,.32s-.12,.32-.12,.54v.17c0,.22,.04,.41,.12,.57,.08,.15,.19,.27,.33,.35,.13,.08,.28,.12,.44,.12,.19,0,.35-.04,.47-.13s.22-.2,.28-.34h.6c-.05,.18-.14,.35-.26,.49-.12,.15-.28,.26-.46,.34s-.39,.13-.63,.13Z"/>
    <path class="cls-36" d="M482.91,350.45v-3.02h.54l.04,.51c.1-.18,.23-.32,.41-.43s.38-.16,.6-.16c.24,0,.45,.05,.62,.14,.17,.1,.31,.24,.4,.43,.1,.19,.14,.44,.14,.73v1.79h-.6v-1.72c0-.28-.06-.49-.19-.63-.12-.14-.3-.22-.54-.22-.16,0-.3,.04-.42,.11-.12,.07-.22,.18-.3,.33-.07,.14-.11,.32-.11,.53v1.61h-.6Z"/>
    <path class="cls-36" d="M487.67,350.45c-.19,0-.35-.03-.49-.09s-.25-.16-.32-.3c-.08-.14-.11-.33-.11-.57v-1.55h-.52v-.51h.52l.07-.75h.53v.75h.86v.51h-.86v1.56c0,.17,.04,.29,.11,.35,.07,.06,.2,.09,.37,.09h.35v.51h-.5Z"/>
    <path class="cls-36" d="M488.86,350.45v-3.02h.54l.05,.57c.07-.14,.16-.25,.26-.34s.23-.17,.38-.22c.15-.05,.31-.08,.5-.08v.63h-.22c-.12,0-.24,.02-.35,.04-.11,.03-.21,.08-.3,.15-.09,.07-.15,.17-.2,.29-.05,.12-.07,.28-.07,.46v1.5h-.6Z"/>
    <path class="cls-36" d="M492.41,350.52c-.29,0-.54-.07-.77-.2s-.4-.32-.52-.55c-.13-.24-.19-.51-.19-.82s.06-.6,.19-.84c.12-.24,.3-.42,.52-.56s.48-.2,.78-.2,.55,.07,.76,.2c.21,.13,.38,.31,.49,.52,.12,.22,.17,.46,.17,.72,0,.04,0,.08,0,.13s0,.1,0,.15h-2.47v-.43h1.88c-.01-.25-.1-.45-.25-.59-.16-.14-.35-.21-.58-.21-.16,0-.31,.04-.45,.11-.14,.07-.25,.18-.33,.32s-.12,.32-.12,.54v.17c0,.22,.04,.41,.12,.57,.08,.15,.19,.27,.33,.35,.13,.08,.28,.12,.44,.12,.19,0,.35-.04,.47-.13s.22-.2,.28-.34h.6c-.05,.18-.14,.35-.26,.49-.12,.15-.28,.26-.46,.34s-.39,.13-.63,.13Z"/>
    <path class="cls-36" d="M396.87,357.71c-.29,0-.54-.07-.77-.2s-.4-.32-.52-.55c-.13-.24-.19-.51-.19-.82s.06-.6,.19-.84c.12-.24,.3-.42,.52-.56s.48-.2,.78-.2,.55,.07,.76,.2c.21,.13,.38,.31,.49,.52,.12,.22,.17,.46,.17,.72,0,.04,0,.08,0,.13s0,.1,0,.15h-2.47v-.43h1.88c-.01-.25-.1-.45-.25-.59-.16-.14-.35-.21-.58-.21-.16,0-.31,.04-.45,.11-.14,.07-.25,.18-.33,.32s-.12,.32-.12,.54v.17c0,.22,.04,.41,.12,.57,.08,.15,.19,.27,.33,.35,.13,.08,.28,.12,.44,.12,.19,0,.35-.04,.47-.13s.22-.2,.28-.34h.6c-.05,.18-.14,.35-.26,.49-.12,.15-.28,.26-.46,.34s-.39,.13-.63,.13Z"/>
    <path class="cls-36" d="M398.98,357.63v-4.31h.6v4.31h-.6Z"/>
    <path class="cls-36" d="M401.35,358.95v-.51h.24c.14,0,.25-.03,.3-.09,.06-.06,.09-.16,.09-.3v-3.44h.6v3.45c0,.21-.04,.38-.11,.51-.07,.13-.17,.23-.31,.29-.14,.06-.3,.09-.49,.09h-.33Zm.94-4.91c-.12,0-.21-.04-.28-.11-.07-.07-.11-.16-.11-.28s.04-.2,.11-.27c.07-.07,.17-.1,.28-.1s.21,.03,.28,.1c.07,.07,.11,.16,.11,.27s-.04,.2-.11,.28c-.07,.07-.17,.11-.28,.11Z"/>
    <path class="cls-36" d="M404.55,357.71c-.24,0-.44-.05-.61-.14-.17-.1-.31-.24-.4-.43s-.14-.43-.14-.72v-1.79h.6v1.72c0,.28,.06,.5,.19,.64,.12,.14,.3,.21,.53,.21,.16,0,.3-.04,.42-.11,.12-.08,.22-.19,.3-.33,.07-.14,.11-.32,.11-.53v-1.61h.6v3.02h-.53l-.04-.51c-.09,.18-.23,.33-.4,.43s-.38,.16-.61,.16Z"/>
    <path class="cls-36" d="M408.32,357.71c-.29,0-.54-.07-.77-.2s-.4-.32-.52-.55c-.13-.24-.19-.51-.19-.82s.06-.6,.19-.84c.12-.24,.3-.42,.52-.56s.48-.2,.78-.2,.55,.07,.76,.2c.21,.13,.38,.31,.49,.52,.12,.22,.17,.46,.17,.72,0,.04,0,.08,0,.13s0,.1,0,.15h-2.47v-.43h1.88c-.01-.25-.1-.45-.25-.59-.16-.14-.35-.21-.58-.21-.16,0-.31,.04-.45,.11-.14,.07-.25,.18-.33,.32s-.12,.32-.12,.54v.17c0,.22,.04,.41,.12,.57,.08,.15,.19,.27,.33,.35,.13,.08,.28,.12,.44,.12,.19,0,.35-.04,.47-.13s.22-.2,.28-.34h.6c-.05,.18-.14,.35-.26,.49-.12,.15-.28,.26-.46,.34s-.39,.13-.63,.13Z"/>
    <path class="cls-36" d="M411.16,357.63l-1.13-3.02h.63l.86,2.44,.86-2.44h.62l-1.13,3.02h-.71Z"/>
    <path class="cls-36" d="M414.75,357.71c-.29,0-.54-.07-.77-.2s-.4-.32-.52-.55c-.13-.24-.19-.51-.19-.82s.06-.6,.19-.84c.12-.24,.3-.42,.52-.56s.48-.2,.78-.2,.55,.07,.76,.2c.21,.13,.38,.31,.49,.52,.12,.22,.17,.46,.17,.72,0,.04,0,.08,0,.13s0,.1,0,.15h-2.47v-.43h1.88c-.01-.25-.1-.45-.25-.59-.16-.14-.35-.21-.58-.21-.16,0-.31,.04-.45,.11-.14,.07-.25,.18-.33,.32s-.12,.32-.12,.54v.17c0,.22,.04,.41,.12,.57,.08,.15,.19,.27,.33,.35,.13,.08,.28,.12,.44,.12,.19,0,.35-.04,.47-.13s.22-.2,.28-.34h.6c-.05,.18-.14,.35-.26,.49-.12,.15-.28,.26-.46,.34s-.39,.13-.63,.13Z"/>
    <path class="cls-36" d="M418.02,357.71c-.26,0-.48-.04-.67-.13s-.34-.2-.46-.35c-.11-.15-.18-.33-.2-.53h.61c.02,.1,.06,.18,.12,.26,.06,.08,.14,.14,.24,.19s.22,.07,.36,.07c.13,0,.24-.02,.33-.06,.09-.04,.15-.09,.19-.16,.04-.07,.06-.14,.06-.21,0-.11-.03-.2-.08-.25s-.13-.1-.24-.14c-.11-.03-.23-.07-.38-.09-.14-.02-.27-.06-.4-.1s-.25-.09-.35-.16c-.1-.06-.18-.14-.24-.24-.06-.1-.09-.22-.09-.36,0-.17,.05-.33,.14-.46s.22-.25,.39-.32,.37-.12,.6-.12c.34,0,.61,.08,.81,.24,.2,.16,.32,.38,.36,.68h-.58c-.02-.14-.08-.24-.18-.31-.1-.07-.24-.11-.41-.11s-.3,.03-.4,.1c-.09,.07-.14,.16-.14,.27,0,.07,.03,.14,.08,.19s.13,.1,.23,.14,.23,.07,.37,.1c.21,.04,.4,.09,.57,.15,.17,.06,.3,.15,.4,.26,.1,.12,.15,.28,.15,.5,0,.19-.04,.35-.14,.5-.1,.14-.24,.26-.41,.34s-.39,.12-.63,.12Z"/>
    <path class="cls-36" d="M421.82,357.63l1.6-3.68h-2.22v-.51h2.83v.44l-1.59,3.75h-.62Z"/>
    <path class="cls-36" d="M426.53,358.95l.74-1.65h-.17l-1.19-2.68h.65l.95,2.19,.95-2.19h.63l-1.92,4.34h-.63Z"/>
    <path class="cls-36" d="M432.5,357.71c-.29,0-.54-.07-.77-.2s-.4-.32-.52-.55c-.13-.24-.19-.51-.19-.82s.06-.6,.19-.84c.12-.24,.3-.42,.52-.56s.48-.2,.78-.2,.55,.07,.76,.2c.21,.13,.38,.31,.49,.52,.12,.22,.17,.46,.17,.72,0,.04,0,.08,0,.13s0,.1,0,.15h-2.47v-.43h1.88c-.01-.25-.1-.45-.25-.59-.16-.14-.35-.21-.58-.21-.16,0-.31,.04-.45,.11-.14,.07-.25,.18-.33,.32s-.12,.32-.12,.54v.17c0,.22,.04,.41,.12,.57,.08,.15,.19,.27,.33,.35,.13,.08,.28,.12,.44,.12,.19,0,.35-.04,.47-.13s.22-.2,.28-.34h.6c-.05,.18-.14,.35-.26,.49-.12,.15-.28,.26-.46,.34s-.39,.13-.63,.13Z"/>
    <path class="cls-36" d="M434.61,357.63v-4.31h.6v4.31h-.6Z"/>
    <path class="cls-36" d="M438.73,357.71c-.26,0-.48-.04-.67-.13s-.34-.2-.46-.35c-.11-.15-.18-.33-.2-.53h.61c.02,.1,.06,.18,.12,.26,.06,.08,.14,.14,.24,.19s.22,.07,.36,.07c.13,0,.24-.02,.33-.06,.09-.04,.15-.09,.19-.16,.04-.07,.06-.14,.06-.21,0-.11-.03-.2-.08-.25s-.13-.1-.24-.14c-.11-.03-.23-.07-.38-.09-.14-.02-.27-.06-.4-.1s-.25-.09-.35-.16c-.1-.06-.18-.14-.24-.24-.06-.1-.09-.22-.09-.36,0-.17,.05-.33,.14-.46s.22-.25,.39-.32,.37-.12,.6-.12c.34,0,.61,.08,.81,.24,.2,.16,.32,.38,.36,.68h-.58c-.02-.14-.08-.24-.18-.31-.1-.07-.24-.11-.41-.11s-.3,.03-.4,.1c-.09,.07-.14,.16-.14,.27,0,.07,.03,.14,.08,.19s.13,.1,.23,.14,.23,.07,.37,.1c.21,.04,.4,.09,.57,.15,.17,.06,.3,.15,.4,.26,.1,.12,.15,.28,.15,.5,0,.19-.04,.35-.14,.5-.1,.14-.24,.26-.41,.34s-.39,.12-.63,.12Z"/>
    <path class="cls-36" d="M441.62,357.71c-.25,0-.45-.04-.62-.13-.16-.08-.29-.2-.37-.34-.08-.14-.12-.29-.12-.46,0-.2,.05-.37,.16-.51,.1-.14,.25-.25,.44-.33,.19-.08,.42-.11,.69-.11h.79c0-.18-.03-.32-.08-.44-.05-.12-.13-.2-.23-.26-.1-.06-.23-.09-.39-.09-.18,0-.33,.04-.46,.13-.13,.09-.21,.21-.24,.38h-.6c.02-.21,.1-.39,.22-.54,.12-.15,.28-.27,.47-.35s.4-.12,.61-.12c.28,0,.52,.05,.71,.15s.34,.24,.43,.42,.15,.4,.15,.65v1.87h-.52l-.05-.51c-.04,.08-.1,.16-.16,.23-.06,.07-.13,.13-.21,.19s-.18,.09-.28,.12c-.11,.03-.22,.04-.35,.04Zm.11-.49c.13,0,.24-.03,.35-.08,.1-.05,.19-.12,.27-.21,.07-.09,.13-.19,.17-.3,.04-.11,.06-.23,.06-.35v-.02h-.71c-.17,0-.31,.02-.42,.06-.11,.04-.18,.1-.23,.17-.05,.07-.07,.16-.07,.25s.02,.18,.07,.25c.05,.07,.11,.12,.2,.16,.09,.04,.19,.06,.32,.06Zm-.47-2.86l-.06-.41,1.24-.76,.08,.49-1.26,.68Z"/>
    <path class="cls-36" d="M445.6,357.71c-.16,0-.31-.02-.45-.07s-.25-.11-.35-.19-.18-.17-.25-.28l-.06,.46h-.54v-4.31h.6v1.77c.1-.15,.23-.28,.4-.39s.39-.16,.64-.16c.29,0,.54,.07,.76,.21,.22,.14,.39,.33,.51,.56,.12,.24,.18,.51,.18,.82s-.06,.57-.18,.81c-.12,.24-.29,.43-.51,.56-.22,.14-.47,.2-.76,.2Zm-.1-.52c.18,0,.35-.04,.49-.13s.25-.21,.34-.37c.08-.16,.12-.35,.12-.56s-.04-.4-.12-.55c-.08-.16-.19-.28-.34-.37s-.3-.13-.49-.13-.35,.04-.49,.13c-.14,.09-.25,.21-.33,.37-.08,.16-.12,.34-.12,.55s.04,.4,.12,.56c.08,.16,.19,.28,.33,.37,.14,.09,.31,.13,.49,.13Z"/>
    <path class="cls-36" d="M448.76,357.71c-.25,0-.45-.04-.62-.13-.16-.08-.29-.2-.37-.34-.08-.14-.12-.29-.12-.46,0-.2,.05-.37,.16-.51,.1-.14,.25-.25,.44-.33,.19-.08,.42-.11,.69-.11h.79c0-.18-.03-.32-.08-.44-.05-.12-.13-.2-.23-.26-.1-.06-.23-.09-.39-.09-.18,0-.33,.04-.46,.13-.13,.09-.21,.21-.24,.38h-.6c.02-.21,.1-.39,.22-.54,.12-.15,.28-.27,.47-.35s.4-.12,.61-.12c.28,0,.52,.05,.71,.15s.34,.24,.43,.42,.15,.4,.15,.65v1.87h-.52l-.05-.51c-.04,.08-.1,.16-.16,.23-.06,.07-.13,.13-.21,.19s-.18,.09-.28,.12c-.11,.03-.22,.04-.35,.04Zm.11-.49c.13,0,.24-.03,.35-.08,.1-.05,.19-.12,.27-.21,.07-.09,.13-.19,.17-.3,.04-.11,.06-.23,.06-.35v-.02h-.71c-.17,0-.31,.02-.42,.06-.11,.04-.18,.1-.23,.17-.05,.07-.07,.16-.07,.25s.02,.18,.07,.25c.05,.07,.11,.12,.2,.16,.09,.04,.19,.06,.32,.06Z"/>
    <path class="cls-36" d="M452.44,357.71c-.29,0-.54-.07-.76-.21s-.39-.33-.51-.56c-.12-.24-.18-.51-.18-.81s.06-.58,.18-.81c.12-.24,.29-.42,.51-.56s.48-.21,.76-.21c.24,0,.44,.05,.62,.14,.18,.09,.32,.23,.42,.4v-1.76h.6v4.31h-.53l-.07-.47c-.06,.09-.14,.18-.23,.26-.1,.08-.21,.15-.35,.2s-.29,.08-.47,.08Zm.1-.52c.19,0,.35-.04,.5-.13s.25-.21,.33-.37c.08-.16,.12-.35,.12-.56s-.04-.4-.12-.55c-.08-.16-.19-.28-.33-.37s-.31-.13-.5-.13-.34,.04-.49,.13-.26,.21-.33,.37c-.08,.16-.12,.34-.12,.55s.04,.4,.12,.56c.08,.16,.19,.28,.33,.37s.31,.13,.49,.13Z"/>
    <path class="cls-36" d="M456.28,357.71c-.28,0-.54-.07-.76-.2s-.4-.32-.53-.55-.19-.51-.19-.82,.07-.6,.2-.84,.31-.42,.54-.55,.48-.2,.77-.2,.54,.07,.77,.2,.4,.32,.53,.55,.19,.51,.19,.83-.06,.6-.19,.83-.31,.42-.54,.55-.49,.2-.77,.2Zm0-.52c.16,0,.31-.04,.45-.12,.13-.08,.24-.2,.32-.36,.08-.16,.12-.35,.12-.59s-.04-.43-.12-.59c-.08-.16-.19-.28-.32-.36-.13-.08-.28-.12-.44-.12s-.31,.04-.44,.12c-.14,.08-.24,.2-.33,.36-.08,.16-.12,.35-.12,.59s.04,.43,.12,.59c.08,.16,.19,.28,.32,.36,.13,.08,.28,.12,.43,.12Z"/>
    <path class="cls-36" d="M461.44,357.71c-.27,0-.5-.05-.69-.16s-.34-.25-.46-.42c-.11-.18-.18-.37-.2-.58h.56c.04,.21,.13,.37,.27,.48,.14,.11,.32,.17,.53,.17,.2,0,.38-.06,.53-.18,.15-.12,.27-.3,.37-.54,.09-.24,.14-.55,.16-.92,0-.01,0-.02,0-.04v-.04c-.06,.12-.15,.23-.26,.33-.11,.1-.24,.18-.39,.24-.15,.06-.32,.09-.5,.09-.24,0-.46-.06-.66-.17-.21-.11-.37-.27-.5-.47-.13-.2-.19-.44-.19-.71,0-.24,.06-.47,.18-.69,.12-.21,.29-.39,.5-.52s.47-.2,.77-.2,.57,.06,.78,.17c.21,.11,.38,.27,.5,.46,.12,.19,.22,.41,.28,.65,.06,.24,.09,.48,.09,.73,0,.46-.06,.86-.19,1.21-.13,.35-.31,.62-.56,.82s-.54,.29-.89,.29Zm.04-2.08c.17,0,.33-.04,.46-.12,.14-.08,.24-.18,.32-.31,.08-.13,.12-.28,.12-.44s-.04-.32-.12-.45c-.08-.13-.19-.23-.33-.31-.14-.07-.29-.11-.46-.11s-.32,.04-.46,.11c-.14,.07-.24,.18-.32,.31s-.12,.28-.12,.45,.04,.32,.12,.45,.18,.23,.32,.3,.29,.11,.46,.11Z"/>
    <path class="cls-36" d="M466.67,357.71c-.29,0-.54-.07-.76-.21s-.39-.33-.51-.56c-.12-.24-.18-.51-.18-.81s.06-.58,.18-.81c.12-.24,.29-.42,.51-.56s.48-.21,.76-.21c.24,0,.44,.05,.62,.14,.18,.09,.32,.23,.42,.4v-1.76h.6v4.31h-.53l-.07-.47c-.06,.09-.14,.18-.23,.26-.1,.08-.21,.15-.35,.2s-.29,.08-.47,.08Zm.1-.52c.19,0,.35-.04,.5-.13s.25-.21,.33-.37c.08-.16,.12-.35,.12-.56s-.04-.4-.12-.55c-.08-.16-.19-.28-.33-.37s-.31-.13-.5-.13-.34,.04-.49,.13-.26,.21-.33,.37c-.08,.16-.12,.34-.12,.55s.04,.4,.12,.56c.08,.16,.19,.28,.33,.37s.31,.13,.49,.13Z"/>
    <path class="cls-36" d="M470.5,357.71c-.29,0-.54-.07-.77-.2s-.4-.32-.52-.55c-.13-.24-.19-.51-.19-.82s.06-.6,.19-.84c.12-.24,.3-.42,.52-.56s.48-.2,.78-.2,.55,.07,.76,.2c.21,.13,.38,.31,.49,.52,.12,.22,.17,.46,.17,.72,0,.04,0,.08,0,.13s0,.1,0,.15h-2.47v-.43h1.88c-.01-.25-.1-.45-.25-.59-.16-.14-.35-.21-.58-.21-.16,0-.31,.04-.45,.11-.14,.07-.25,.18-.33,.32s-.12,.32-.12,.54v.17c0,.22,.04,.41,.12,.57,.08,.15,.19,.27,.33,.35,.13,.08,.28,.12,.44,.12,.19,0,.35-.04,.47-.13s.22-.2,.28-.34h.6c-.05,.18-.14,.35-.26,.49-.12,.15-.28,.26-.46,.34s-.39,.13-.63,.13Z"/>
    <path class="cls-36" d="M475.14,357.71c-.25,0-.45-.04-.62-.13-.16-.08-.29-.2-.37-.34-.08-.14-.12-.29-.12-.46,0-.2,.05-.37,.16-.51,.1-.14,.25-.25,.44-.33,.19-.08,.42-.11,.69-.11h.79c0-.18-.03-.32-.08-.44-.05-.12-.13-.2-.23-.26-.1-.06-.23-.09-.39-.09-.18,0-.33,.04-.46,.13-.13,.09-.21,.21-.24,.38h-.6c.02-.21,.1-.39,.22-.54,.12-.15,.28-.27,.47-.35s.4-.12,.61-.12c.28,0,.52,.05,.71,.15s.34,.24,.43,.42,.15,.4,.15,.65v1.87h-.52l-.05-.51c-.04,.08-.1,.16-.16,.23-.06,.07-.13,.13-.21,.19s-.18,.09-.28,.12c-.11,.03-.22,.04-.35,.04Zm.11-.49c.13,0,.24-.03,.35-.08,.1-.05,.19-.12,.27-.21,.07-.09,.13-.19,.17-.3,.04-.11,.06-.23,.06-.35v-.02h-.71c-.17,0-.31,.02-.42,.06-.11,.04-.18,.1-.23,.17-.05,.07-.07,.16-.07,.25s.02,.18,.07,.25c.05,.07,.11,.12,.2,.16,.09,.04,.19,.06,.32,.06Z"/>
    <path class="cls-36" d="M478.7,359.02c-.28,0-.52-.04-.73-.1-.21-.07-.38-.18-.49-.32-.12-.14-.17-.32-.17-.53,0-.11,.02-.22,.07-.33,.05-.11,.13-.21,.23-.31,.11-.1,.25-.19,.44-.27l.33,.27c-.2,.08-.34,.17-.41,.27-.07,.11-.1,.21-.1,.31,0,.12,.04,.22,.11,.3,.07,.08,.17,.14,.3,.18s.27,.06,.43,.06,.29-.02,.41-.07c.12-.04,.21-.11,.27-.19,.06-.08,.1-.17,.1-.28,0-.13-.05-.24-.14-.32-.1-.08-.28-.14-.55-.15-.23-.02-.42-.04-.58-.07-.16-.03-.29-.06-.4-.1-.11-.04-.2-.08-.28-.13s-.14-.1-.19-.15v-.14l.6-.62,.49,.17-.65,.6,.12-.27s.09,.06,.13,.08c.04,.03,.09,.05,.16,.07,.07,.02,.16,.04,.28,.05,.12,.02,.27,.03,.46,.05,.27,.02,.49,.07,.66,.14,.17,.08,.29,.18,.36,.31,.08,.13,.11,.28,.11,.46s-.05,.34-.14,.49-.24,.28-.44,.38c-.2,.1-.45,.15-.76,.15Zm0-2.32c-.25,0-.47-.05-.65-.14s-.31-.23-.41-.39c-.09-.16-.14-.35-.14-.55s.05-.39,.14-.55c.09-.16,.23-.29,.41-.39,.18-.1,.4-.15,.65-.15s.47,.05,.64,.15c.18,.1,.31,.23,.41,.39,.09,.16,.14,.34,.14,.55s-.05,.38-.14,.55c-.09,.16-.23,.29-.41,.39-.18,.1-.39,.14-.64,.14Zm0-.48c.2,0,.35-.05,.47-.15,.12-.1,.17-.25,.17-.45s-.06-.34-.17-.45c-.12-.1-.27-.15-.47-.15s-.35,.05-.47,.15c-.12,.1-.18,.25-.18,.45s.06,.34,.18,.45c.12,.1,.28,.15,.47,.15Zm.49-1.14l-.14-.47h1.24v.41l-1.1,.06Z"/>
    <path class="cls-36" d="M482.15,357.71c-.28,0-.54-.07-.76-.2s-.4-.32-.53-.55-.19-.51-.19-.82,.07-.6,.2-.84,.31-.42,.54-.55,.48-.2,.77-.2,.54,.07,.77,.2,.4,.32,.53,.55,.19,.51,.19,.83-.06,.6-.19,.83-.31,.42-.54,.55-.49,.2-.77,.2Zm0-.52c.16,0,.31-.04,.45-.12,.13-.08,.24-.2,.32-.36,.08-.16,.12-.35,.12-.59s-.04-.43-.12-.59c-.08-.16-.19-.28-.32-.36-.13-.08-.28-.12-.44-.12s-.31,.04-.44,.12c-.14,.08-.24,.2-.33,.36-.08,.16-.12,.35-.12,.59s.04,.43,.12,.59c.08,.16,.19,.28,.32,.36,.13,.08,.28,.12,.43,.12Z"/>
    <path class="cls-36" d="M485.53,357.71c-.26,0-.48-.04-.67-.13s-.34-.2-.46-.35c-.11-.15-.18-.33-.2-.53h.61c.02,.1,.06,.18,.12,.26,.06,.08,.14,.14,.24,.19s.22,.07,.36,.07c.13,0,.24-.02,.33-.06,.09-.04,.15-.09,.19-.16,.04-.07,.06-.14,.06-.21,0-.11-.03-.2-.08-.25s-.13-.1-.24-.14c-.11-.03-.23-.07-.38-.09-.14-.02-.27-.06-.4-.1s-.25-.09-.35-.16c-.1-.06-.18-.14-.24-.24-.06-.1-.09-.22-.09-.36,0-.17,.05-.33,.14-.46s.22-.25,.39-.32,.37-.12,.6-.12c.34,0,.61,.08,.81,.24,.2,.16,.32,.38,.36,.68h-.58c-.02-.14-.08-.24-.18-.31-.1-.07-.24-.11-.41-.11s-.3,.03-.4,.1c-.09,.07-.14,.16-.14,.27,0,.07,.03,.14,.08,.19s.13,.1,.23,.14,.23,.07,.37,.1c.21,.04,.4,.09,.57,.15,.17,.06,.3,.15,.4,.26,.1,.12,.15,.28,.15,.5,0,.19-.04,.35-.14,.5-.1,.14-.24,.26-.41,.34s-.39,.12-.63,.12Z"/>
    <path class="cls-36" d="M488.54,357.63c-.19,0-.35-.03-.49-.09s-.25-.16-.32-.3c-.08-.14-.11-.33-.11-.57v-1.55h-.52v-.51h.52l.07-.75h.53v.75h.86v.51h-.86v1.56c0,.17,.04,.29,.11,.35,.07,.06,.2,.09,.37,.09h.35v.51h-.5Z"/>
    <path class="cls-36" d="M491.02,357.71c-.28,0-.54-.07-.76-.2s-.4-.32-.53-.55-.19-.51-.19-.82,.07-.6,.2-.84,.31-.42,.54-.55,.48-.2,.77-.2,.54,.07,.77,.2,.4,.32,.53,.55,.19,.51,.19,.83-.06,.6-.19,.83-.31,.42-.54,.55-.49,.2-.77,.2Zm0-.52c.16,0,.31-.04,.45-.12,.13-.08,.24-.2,.32-.36,.08-.16,.12-.35,.12-.59s-.04-.43-.12-.59c-.08-.16-.19-.28-.32-.36-.13-.08-.28-.12-.44-.12s-.31,.04-.44,.12c-.14,.08-.24,.2-.33,.36-.08,.16-.12,.35-.12,.59s.04,.43,.12,.59c.08,.16,.19,.28,.32,.36,.13,.08,.28,.12,.43,.12Z"/>
    <path class="cls-36" d="M493.47,357.66c-.12,0-.21-.04-.28-.11-.07-.07-.11-.16-.11-.27s.04-.2,.11-.27c.07-.07,.17-.11,.28-.11s.21,.04,.28,.11c.07,.07,.11,.17,.11,.27s-.04,.19-.11,.27c-.07,.07-.17,.11-.28,.11Z"/>
  </g>
</svg>